<svg xmlns="http://www.w3.org/2000/svg" xmlns:xlink="http://www.w3.org/1999/xlink" id="body_1" preserveAspectRatio="xMinYMin meet" viewBox="0 0 792 1087"><defs><clipPath id="1"><path id="" clip-rule="evenodd" transform="matrix(1 0 0 1 0 0)" d="M0 815L0 -0.56781006L0 -0.56781006L594.8364 -0.56781006L594.8364 -0.56781006L594.8364 815L594.8364 815L0 815z" /></clipPath><clipPath id="2"><path id="" clip-rule="evenodd" transform="matrix(1 0 0 1 0 0)" d="M59.98 69.79834L569.98 69.79834L569.98 69.79834L569.98 744.79834L569.98 744.79834L59.98 744.79834z" /></clipPath><clipPath id="3"><path id="" clip-rule="evenodd" transform="matrix(1 0 0 1 0 0)" d="M59.98 68.84973L569.98 68.84973L569.98 68.84973L569.98 745.84973L569.98 745.84973L59.98 745.84973z" /></clipPath><clipPath id="4"><path id="" clip-rule="evenodd" transform="matrix(1 0 0 1 0 0)" d="M59.98 69.79834L569.98 69.79834L569.98 69.79834L569.98 744.79834L569.98 744.79834L59.98 744.79834z" /></clipPath><clipPath id="5"><path id="" clip-rule="evenodd" transform="matrix(1 0 0 1 0 0)" d="M60.73 70.54834L504.41483 70.54834L504.41483 70.54834L504.41483 102.64166L504.41483 102.64166L60.73 102.64166z" /></clipPath><clipPath id="6"><path id="" clip-rule="evenodd" transform="matrix(1 0 0 1 0 0)" d="M60.73 103.14166L202.2005 103.14166L202.2005 103.14166L202.2005 151.89362L202.2005 151.89362L60.73 151.89362z" /></clipPath><clipPath id="7"><path id="" clip-rule="evenodd" transform="matrix(1 0 0 1 0 0)" d="M349.5907 103.14166L419.3731 103.14166L419.3731 103.14166L419.3731 151.89362L419.3731 151.89362L349.5907 151.89362z" /></clipPath><clipPath id="8"><path id="" clip-rule="evenodd" transform="matrix(1 0 0 1 0 0)" d="M60.73 152.39362L202.2005 152.39362L202.2005 152.39362L202.2005 265.84937L202.2005 265.84937L60.73 265.84937z" /></clipPath><clipPath id="9"><path id="" clip-rule="evenodd" transform="matrix(1 0 0 1 0 0)" d="M60.73 266.34937L202.2005 266.34937L202.2005 266.34937L202.2005 430.98853L202.2005 430.98853L60.73 430.98853z" /></clipPath><clipPath id="10"><path id="" clip-rule="evenodd" transform="matrix(1 0 0 1 0 0)" d="M60.73 431.48853L202.2005 431.48853L202.2005 431.48853L202.2005 500.52084L202.2005 500.52084L60.73 500.52084z" /></clipPath><clipPath id="11"><path id="" clip-rule="evenodd" transform="matrix(1 0 0 1 0 0)" d="M60.73 501.02084L202.2005 501.02084L202.2005 501.02084L202.2005 582.60767L202.2005 582.60767L60.73 582.60767z" /></clipPath><clipPath id="12"><path id="" clip-rule="evenodd" transform="matrix(1 0 0 1 0 0)" d="M202.7005 501.02084L569.0746 501.02084L569.0746 501.02084L569.0746 582.60767L569.0746 582.60767L202.7005 582.60767z" /></clipPath><clipPath id="13"><path id="" clip-rule="evenodd" transform="matrix(1 0 0 1 0 0)" d="M60.73 583.10767L202.2005 583.10767L202.2005 583.10767L202.2005 662.7628L202.2005 662.7628L60.73 662.7628z" /></clipPath><clipPath id="14"><path id="" clip-rule="evenodd" transform="matrix(1 0 0 1 0 0)" d="M202.7005 583.10767L569.0746 583.10767L569.0746 583.10767L569.0746 662.7628L569.0746 662.7628L202.7005 662.7628z" /></clipPath><clipPath id="15"><path id="" clip-rule="evenodd" transform="matrix(1 0 0 1 0 0)" d="M60.73 663.2628L202.2005 663.2628L202.2005 663.2628L202.2005 743.8839L202.2005 743.8839L60.73 743.8839z" /></clipPath><clipPath id="16"><path id="" clip-rule="evenodd" transform="matrix(1 0 0 1 0 0)" d="M59.98 69.79834L569.98 69.79834L569.98 69.79834L569.98 744.79834L569.98 744.79834L59.98 744.79834z" /></clipPath></defs><g transform="matrix(1.3333334 0 0 1.3333334 0 0)"><g clip-path="url(#1)"><g clip-path="url(#2)"></g><g clip-path="url(#3)"><path id="1" transform="matrix(1 0 0 -1 0 815)" d="M269.9216 70.86566L349.3407 70.86566" stroke="#000000" stroke-width="0.9657" fill="none" /><path id="2" transform="matrix(1 0 0 -1 0 815)" d="M202.4505 70.86566L269.9216 70.86566" stroke="#000000" stroke-width="0.9657" fill="none" /><path id="3" transform="matrix(1 0 0 -1 0 815)" d="M60.48 70.86566L202.4505 70.86566" stroke="#000000" stroke-width="0.9657" fill="none" /><path id="4" transform="matrix(1 0 0 -1 0 815)" d="M569.325 712.10834L569.325 662.8564" stroke="#000000" stroke-width="0.9657" fill="none" /><path id="5" transform="matrix(1 0 0 -1 0 815)" d="M504.66483 712.10864L569.3246 712.10864" stroke="#000000" stroke-width="0.9657" fill="none" /><path id="6" transform="matrix(1 0 0 -1 0 815)" d="M504.66483 712.10864L504.66483 712.10864" stroke="#000000" stroke-width="0.9657" fill="none" /><path id="7" transform="matrix(1 0 0 -1 0 815)" d="M470.2264 712.10864L504.66483 712.10864" stroke="#000000" stroke-width="0.9657" fill="none" /><path id="8" transform="matrix(1 0 0 -1 0 815)" d="M419.62302 712.10834L419.62302 662.8564" stroke="#000000" stroke-width="0.9657" fill="none" /><path id="9" transform="matrix(1 0 0 -1 0 815)" d="M419.6231 712.10864L470.2264 712.10864" stroke="#000000" stroke-width="0.9657" fill="none" /><path id="10" transform="matrix(1 0 0 -1 0 815)" d="M349.341 712.10834L349.341 662.8564" stroke="#000000" stroke-width="0.9657" fill="none" /><path id="11" transform="matrix(1 0 0 -1 0 815)" d="M349.3407 712.10864L419.6231 712.10864" stroke="#000000" stroke-width="0.9657" fill="none" /><path id="12" transform="matrix(1 0 0 -1 0 815)" d="M269.9216 712.10864L349.3407 712.10864" stroke="#000000" stroke-width="0.9657" fill="none" /><path id="13" transform="matrix(1 0 0 -1 0 815)" d="M202.45 712.10834L202.45 662.8564" stroke="#000000" stroke-width="0.9657" fill="none" /><path id="14" transform="matrix(1 0 0 -1 0 815)" d="M202.4505 712.10864L269.9216 712.10864" stroke="#000000" stroke-width="0.9657" fill="none" /><path id="15" transform="matrix(1 0 0 -1 0 815)" d="M60.48 712.10834L60.48 662.8564" stroke="#000000" stroke-width="0.9657" fill="none" /><path id="16" transform="matrix(1 0 0 -1 0 815)" d="M60.48 712.10864L202.4505 712.10864" stroke="#000000" stroke-width="0.9657" fill="none" /><path id="17" transform="matrix(1 0 0 -1 0 815)" d="M569.325 548.90063L569.325 383.76147" stroke="#000000" stroke-width="0.9657" fill="none" /><path id="18" transform="matrix(1 0 0 -1 0 815)" d="M504.66483 548.90063L569.3246 548.90063" stroke="#000000" stroke-width="0.9657" fill="none" /><path id="19" transform="matrix(1 0 0 -1 0 815)" d="M504.66483 548.90063L504.66483 548.90063" stroke="#000000" stroke-width="0.9657" fill="none" /><path id="20" transform="matrix(1 0 0 -1 0 815)" d="M470.2264 548.90063L504.66483 548.90063" stroke="#000000" stroke-width="0.9657" fill="none" /><path id="21" transform="matrix(1 0 0 -1 0 815)" d="M419.6231 548.90063L470.2264 548.90063" stroke="#000000" stroke-width="0.9657" fill="none" /><path id="22" transform="matrix(1 0 0 -1 0 815)" d="M349.3407 548.90063L419.6231 548.90063" stroke="#000000" stroke-width="0.9657" fill="none" /><path id="23" transform="matrix(1 0 0 -1 0 815)" d="M269.9216 548.90063L349.3407 548.90063" stroke="#000000" stroke-width="0.9657" fill="none" /><path id="24" transform="matrix(1 0 0 -1 0 815)" d="M202.45 548.90063L202.45 383.76147" stroke="#000000" stroke-width="0.9657" fill="none" /><path id="25" transform="matrix(1 0 0 -1 0 815)" d="M202.4505 548.90063L269.9216 548.90063" stroke="#000000" stroke-width="0.9657" fill="none" /><path id="26" transform="matrix(1 0 0 -1 0 815)" d="M60.48 548.90063L60.48 383.76147" stroke="#000000" stroke-width="0.9657" fill="none" /><path id="27" transform="matrix(1 0 0 -1 0 815)" d="M60.48 548.90063L202.4505 548.90063" stroke="#000000" stroke-width="0.9657" fill="none" /><path id="28" transform="matrix(1 0 0 -1 0 815)" d="M569.325 314.22916L569.325 232.14233" stroke="#000000" stroke-width="0.9657" fill="none" /><path id="29" transform="matrix(1 0 0 -1 0 815)" d="M504.66483 314.22867L569.3246 314.22867" stroke="#000000" stroke-width="0.9657" fill="none" /><path id="30" transform="matrix(1 0 0 -1 0 815)" d="M504.66483 314.22867L504.66483 314.22867" stroke="#000000" stroke-width="0.9657" fill="none" /><path id="31" transform="matrix(1 0 0 -1 0 815)" d="M470.2264 314.22867L504.66483 314.22867" stroke="#000000" stroke-width="0.9657" fill="none" /><path id="32" transform="matrix(1 0 0 -1 0 815)" d="M419.6231 314.22867L470.2264 314.22867" stroke="#000000" stroke-width="0.9657" fill="none" /><path id="33" transform="matrix(1 0 0 -1 0 815)" d="M349.3407 314.22867L419.6231 314.22867" stroke="#000000" stroke-width="0.9657" fill="none" /><path id="34" transform="matrix(1 0 0 -1 0 815)" d="M269.9216 314.22867L349.3407 314.22867" stroke="#000000" stroke-width="0.9657" fill="none" /><path id="35" transform="matrix(1 0 0 -1 0 815)" d="M202.45 314.22916L202.45 232.14233" stroke="#000000" stroke-width="0.9657" fill="none" /><path id="36" transform="matrix(1 0 0 -1 0 815)" d="M202.4505 314.22867L269.9216 314.22867" stroke="#000000" stroke-width="0.9657" fill="none" /><path id="37" transform="matrix(1 0 0 -1 0 815)" d="M60.48 314.22916L60.48 232.14233" stroke="#000000" stroke-width="0.9657" fill="none" /><path id="38" transform="matrix(1 0 0 -1 0 815)" d="M60.48 314.22867L202.4505 314.22867" stroke="#000000" stroke-width="0.9657" fill="none" /><path id="39" transform="matrix(1 0 0 -1 0 815)" d="M569.325 151.98718L569.325 70.86609" stroke="#000000" stroke-width="0.9657" fill="none" /><path id="40" transform="matrix(1 0 0 -1 0 815)" d="M504.66483 151.98663L569.3246 151.98663" stroke="#000000" stroke-width="0.9657" fill="none" /><path id="41" transform="matrix(1 0 0 -1 0 815)" d="M504.66483 151.98663L504.66483 151.98663" stroke="#000000" stroke-width="0.9657" fill="none" /><path id="42" transform="matrix(1 0 0 -1 0 815)" d="M470.2264 151.98663L504.66483 151.98663" stroke="#000000" stroke-width="0.9657" fill="none" /><path id="43" transform="matrix(1 0 0 -1 0 815)" d="M419.6231 151.98663L470.2264 151.98663" stroke="#000000" stroke-width="0.9657" fill="none" /><path id="44" transform="matrix(1 0 0 -1 0 815)" d="M349.3407 151.98663L419.6231 151.98663" stroke="#000000" stroke-width="0.9657" fill="none" /><path id="45" transform="matrix(1 0 0 -1 0 815)" d="M269.9216 151.98663L349.3407 151.98663" stroke="#000000" stroke-width="0.9657" fill="none" /><path id="46" transform="matrix(1 0 0 -1 0 815)" d="M202.45 151.98718L202.45 70.86609" stroke="#000000" stroke-width="0.9657" fill="none" /><path id="47" transform="matrix(1 0 0 -1 0 815)" d="M202.4505 151.98663L269.9216 151.98663" stroke="#000000" stroke-width="0.9657" fill="none" /><path id="48" transform="matrix(1 0 0 -1 0 815)" d="M60.48 151.98718L60.48 70.86609" stroke="#000000" stroke-width="0.9657" fill="none" /><path id="49" transform="matrix(1 0 0 -1 0 815)" d="M60.48 151.98663L202.4505 151.98663" stroke="#000000" stroke-width="0.9657" fill="none" /><path id="50" transform="matrix(1 0 0 -1 0 815)" d="M569.325 662.8564L569.325 548.90063" stroke="#000000" stroke-width="0.9657" fill="none" /><path id="51" transform="matrix(1 0 0 -1 0 815)" d="M504.66483 662.8567L569.3246 662.8567" stroke="#000000" stroke-width="0.9657" fill="none" /><path id="52" transform="matrix(1 0 0 -1 0 815)" d="M504.66483 662.8567L504.66483 662.8567" stroke="#000000" stroke-width="0.9657" fill="none" /><path id="53" transform="matrix(1 0 0 -1 0 815)" d="M470.2264 662.8567L504.66483 662.8567" stroke="#000000" stroke-width="0.9657" fill="none" /><path id="54" transform="matrix(1 0 0 -1 0 815)" d="M419.6231 662.8567L470.2264 662.8567" stroke="#000000" stroke-width="0.9657" fill="none" /><path id="55" transform="matrix(1 0 0 -1 0 815)" d="M349.3407 662.8567L419.6231 662.8567" stroke="#000000" stroke-width="0.9657" fill="none" /><path id="56" transform="matrix(1 0 0 -1 0 815)" d="M269.9216 662.8567L349.3407 662.8567" stroke="#000000" stroke-width="0.9657" fill="none" /><path id="57" transform="matrix(1 0 0 -1 0 815)" d="M202.45 662.8564L202.45 548.90063" stroke="#000000" stroke-width="0.9657" fill="none" /><path id="58" transform="matrix(1 0 0 -1 0 815)" d="M202.4505 662.8567L269.9216 662.8567" stroke="#000000" stroke-width="0.9657" fill="none" /><path id="59" transform="matrix(1 0 0 -1 0 815)" d="M60.48 662.8564L60.48 548.90063" stroke="#000000" stroke-width="0.9657" fill="none" /><path id="60" transform="matrix(1 0 0 -1 0 815)" d="M60.48 662.8567L202.4505 662.8567" stroke="#000000" stroke-width="0.9657" fill="none" /><path id="61" transform="matrix(1 0 0 -1 0 815)" d="M569.325 383.76147L569.325 314.22916" stroke="#000000" stroke-width="0.9657" fill="none" /><path id="62" transform="matrix(1 0 0 -1 0 815)" d="M504.66483 383.76166L569.3246 383.76166" stroke="#000000" stroke-width="0.9657" fill="none" /><path id="63" transform="matrix(1 0 0 -1 0 815)" d="M504.66483 383.76166L504.66483 383.76166" stroke="#000000" stroke-width="0.9657" fill="none" /><path id="64" transform="matrix(1 0 0 -1 0 815)" d="M470.2264 383.76166L504.66483 383.76166" stroke="#000000" stroke-width="0.9657" fill="none" /><path id="65" transform="matrix(1 0 0 -1 0 815)" d="M419.6231 383.76166L470.2264 383.76166" stroke="#000000" stroke-width="0.9657" fill="none" /><path id="66" transform="matrix(1 0 0 -1 0 815)" d="M349.3407 383.76166L419.6231 383.76166" stroke="#000000" stroke-width="0.9657" fill="none" /><path id="67" transform="matrix(1 0 0 -1 0 815)" d="M269.9216 383.76166L349.3407 383.76166" stroke="#000000" stroke-width="0.9657" fill="none" /><path id="68" transform="matrix(1 0 0 -1 0 815)" d="M202.45 383.76147L202.45 314.22916" stroke="#000000" stroke-width="0.9657" fill="none" /><path id="69" transform="matrix(1 0 0 -1 0 815)" d="M202.4505 383.76166L269.9216 383.76166" stroke="#000000" stroke-width="0.9657" fill="none" /><path id="70" transform="matrix(1 0 0 -1 0 815)" d="M60.48 383.76147L60.48 314.22916" stroke="#000000" stroke-width="0.9657" fill="none" /><path id="71" transform="matrix(1 0 0 -1 0 815)" d="M60.48 383.76166L202.4505 383.76166" stroke="#000000" stroke-width="0.9657" fill="none" /><path id="72" transform="matrix(1 0 0 -1 0 815)" d="M569.325 232.14233L569.325 151.98718" stroke="#000000" stroke-width="0.9657" fill="none" /><path id="73" transform="matrix(1 0 0 -1 0 815)" d="M504.66483 232.14264L569.3246 232.14264" stroke="#000000" stroke-width="0.9657" fill="none" /><path id="74" transform="matrix(1 0 0 -1 0 815)" d="M504.66483 232.14264L504.66483 232.14264" stroke="#000000" stroke-width="0.9657" fill="none" /><path id="75" transform="matrix(1 0 0 -1 0 815)" d="M470.2264 232.14264L504.66483 232.14264" stroke="#000000" stroke-width="0.9657" fill="none" /><path id="76" transform="matrix(1 0 0 -1 0 815)" d="M419.6231 232.14264L470.2264 232.14264" stroke="#000000" stroke-width="0.9657" fill="none" /><path id="77" transform="matrix(1 0 0 -1 0 815)" d="M349.3407 232.14264L419.6231 232.14264" stroke="#000000" stroke-width="0.9657" fill="none" /><path id="78" transform="matrix(1 0 0 -1 0 815)" d="M269.9216 232.14264L349.3407 232.14264" stroke="#000000" stroke-width="0.9657" fill="none" /><path id="79" transform="matrix(1 0 0 -1 0 815)" d="M202.45 232.14233L202.45 151.98718" stroke="#000000" stroke-width="0.9657" fill="none" /><path id="80" transform="matrix(1 0 0 -1 0 815)" d="M202.4505 232.14264L269.9216 232.14264" stroke="#000000" stroke-width="0.9657" fill="none" /><path id="81" transform="matrix(1 0 0 -1 0 815)" d="M60.48 232.14233L60.48 151.98718" stroke="#000000" stroke-width="0.9657" fill="none" /><path id="82" transform="matrix(1 0 0 -1 0 815)" d="M60.48 232.14264L202.4505 232.14264" stroke="#000000" stroke-width="0.9657" fill="none" /><path id="83" transform="matrix(1 0 0 -1 0 815)" d="M504.66483 70.86566L569.3246 70.86566" stroke="#000000" stroke-width="0.9657" fill="none" /><path id="84" transform="matrix(1 0 0 -1 0 815)" d="M504.66483 70.86566L504.66483 70.86566" stroke="#000000" stroke-width="0.9657" fill="none" /><path id="85" transform="matrix(1 0 0 -1 0 815)" d="M470.2264 70.86566L504.66483 70.86566" stroke="#000000" stroke-width="0.9657" fill="none" /><path id="86" transform="matrix(1 0 0 -1 0 815)" d="M419.6231 70.86566L470.2264 70.86566" stroke="#000000" stroke-width="0.9657" fill="none" /><path id="87" transform="matrix(1 0 0 -1 0 815)" d="M349.3407 70.86566L419.6231 70.86566" stroke="#000000" stroke-width="0.9657" fill="none" /></g><g clip-path="url(#4)"><g clip-path="url(#5)"></g><g clip-path="url(#6)"></g><g clip-path="url(#7)"></g><g clip-path="url(#8)"></g><g clip-path="url(#9)"></g><g clip-path="url(#10)"></g><g clip-path="url(#11)"></g><g clip-path="url(#12)"></g><g clip-path="url(#13)"></g><g clip-path="url(#14)"></g><g clip-path="url(#15)"></g></g><g clip-path="url(#16)"></g></g></g></svg>