<svg xmlns="http://www.w3.org/2000/svg" xmlns:xlink="http://www.w3.org/1999/xlink" id="body_1" preserveAspectRatio="xMinYMin meet" viewBox="0 0 745 997"><defs><clipPath id="1"><path id="" clip-rule="evenodd" transform="matrix(1 0 0 1 0 0)" d="M0 748L0 -0.9069824L0 -0.9069824L559.2765 -0.9069824L559.2765 -0.9069824L559.2765 748L559.2765 748L0 748z" /></clipPath><clipPath id="2"><path id="" clip-rule="evenodd" transform="matrix(1 0 0 1 0 0)" d="M59.98 69.45917L534.98 69.45917L534.98 69.45917L534.98 678.45917L534.98 678.45917L59.98 678.45917z" /></clipPath><clipPath id="3"><path id="" clip-rule="evenodd" transform="matrix(1 0 0 1 0 0)" d="M59.98 68.41809L534.98 68.41809L534.98 68.41809L534.98 679.4181L534.98 679.4181L59.98 679.4181z" /></clipPath><clipPath id="4"><path id="" clip-rule="evenodd" transform="matrix(1 0 0 1 0 0)" d="M59.98 69.45917L534.98 69.45917L534.98 69.45917L534.98 678.45917L534.98 678.45917L59.98 678.45917z" /></clipPath><clipPath id="5"><path id="" clip-rule="evenodd" transform="matrix(1 0 0 1 0 0)" d="M60.73 70.20917L516.318 70.20917L516.318 70.20917L516.318 104.38287L516.318 104.38287L60.73 104.38287z" /></clipPath><clipPath id="6"><path id="" clip-rule="evenodd" transform="matrix(1 0 0 1 0 0)" d="M60.73 104.88287L170.8874 104.88287L170.8874 104.88287L170.8874 156.77869L170.8874 156.77869L60.73 156.77869z" /></clipPath><clipPath id="7"><path id="" clip-rule="evenodd" transform="matrix(1 0 0 1 0 0)" d="M171.3874 104.88287L296.4985 104.88287L296.4985 104.88287L296.4985 156.77869L296.4985 156.77869L171.3874 156.77869z" /></clipPath><clipPath id="8"><path id="" clip-rule="evenodd" transform="matrix(1 0 0 1 0 0)" d="M296.9985 104.88287L360.0517 104.88287L360.0517 104.88287L360.0517 156.77869L360.0517 156.77869L296.9985 156.77869z" /></clipPath><clipPath id="9"><path id="" clip-rule="evenodd" transform="matrix(1 0 0 1 0 0)" d="M360.5517 104.88287L533.5147 104.88287L533.5147 104.88287L533.5147 156.77869L533.5147 156.77869L360.5517 156.77869z" /></clipPath><clipPath id="10"><path id="" clip-rule="evenodd" transform="matrix(1 0 0 1 0 0)" d="M60.73 157.27869L170.8874 157.27869L170.8874 157.27869L170.8874 245.38916L170.8874 245.38916L60.73 245.38916z" /></clipPath><clipPath id="11"><path id="" clip-rule="evenodd" transform="matrix(1 0 0 1 0 0)" d="M171.3874 157.27869L533.5147 157.27869L533.5147 157.27869L533.5147 245.38916L533.5147 245.38916L171.3874 245.38916z" /></clipPath><clipPath id="12"><path id="" clip-rule="evenodd" transform="matrix(1 0 0 1 0 0)" d="M60.73 245.88916L170.8874 245.88916L170.8874 245.88916L170.8874 307.03125L170.8874 307.03125L60.73 307.03125z" /></clipPath><clipPath id="13"><path id="" clip-rule="evenodd" transform="matrix(1 0 0 1 0 0)" d="M171.3874 245.88916L533.5147 245.88916L533.5147 245.88916L533.5147 307.03125L533.5147 307.03125L171.3874 307.03125z" /></clipPath><clipPath id="14"><path id="" clip-rule="evenodd" transform="matrix(1 0 0 1 0 0)" d="M60.73 307.53125L170.8874 307.53125L170.8874 307.53125L170.8874 368.67337L170.8874 368.67337L60.73 368.67337z" /></clipPath><clipPath id="15"><path id="" clip-rule="evenodd" transform="matrix(1 0 0 1 0 0)" d="M171.3874 307.53125L533.5147 307.53125L533.5147 307.53125L533.5147 368.67337L533.5147 368.67337L171.3874 368.67337z" /></clipPath><clipPath id="16"><path id="" clip-rule="evenodd" transform="matrix(1 0 0 1 0 0)" d="M60.73 369.17337L170.8874 369.17337L170.8874 369.17337L170.8874 430.31546L170.8874 430.31546L60.73 430.31546z" /></clipPath><clipPath id="17"><path id="" clip-rule="evenodd" transform="matrix(1 0 0 1 0 0)" d="M171.3874 369.17337L533.5147 369.17337L533.5147 369.17337L533.5147 430.31546L533.5147 430.31546L171.3874 430.31546z" /></clipPath><clipPath id="18"><path id="" clip-rule="evenodd" transform="matrix(1 0 0 1 0 0)" d="M60.73 430.81546L170.8874 430.81546L170.8874 430.81546L170.8874 491.95758L170.8874 491.95758L60.73 491.95758z" /></clipPath><clipPath id="19"><path id="" clip-rule="evenodd" transform="matrix(1 0 0 1 0 0)" d="M171.3874 430.81546L533.5147 430.81546L533.5147 430.81546L533.5147 491.95758L533.5147 491.95758L171.3874 491.95758z" /></clipPath><clipPath id="20"><path id="" clip-rule="evenodd" transform="matrix(1 0 0 1 0 0)" d="M60.73 492.45758L170.8874 492.45758L170.8874 492.45758L170.8874 553.5997L170.8874 553.5997L60.73 553.5997z" /></clipPath><clipPath id="21"><path id="" clip-rule="evenodd" transform="matrix(1 0 0 1 0 0)" d="M171.3874 492.45758L533.5147 492.45758L533.5147 492.45758L533.5147 553.5997L533.5147 553.5997L171.3874 553.5997z" /></clipPath><clipPath id="22"><path id="" clip-rule="evenodd" transform="matrix(1 0 0 1 0 0)" d="M60.73 554.0997L170.8874 554.0997L170.8874 554.0997L170.8874 615.24176L170.8874 615.24176L60.73 615.24176z" /></clipPath><clipPath id="23"><path id="" clip-rule="evenodd" transform="matrix(1 0 0 1 0 0)" d="M171.3874 554.0997L533.5147 554.0997L533.5147 554.0997L533.5147 615.24176L533.5147 615.24176L171.3874 615.24176z" /></clipPath><clipPath id="24"><path id="" clip-rule="evenodd" transform="matrix(1 0 0 1 0 0)" d="M60.73 615.74176L170.8874 615.74176L170.8874 615.74176L170.8874 676.88385L170.8874 676.88385L60.73 676.88385z" /></clipPath><clipPath id="25"><path id="" clip-rule="evenodd" transform="matrix(1 0 0 1 0 0)" d="M171.3874 615.74176L533.5147 615.74176L533.5147 615.74176L533.5147 676.88385L533.5147 676.88385L171.3874 676.88385z" /></clipPath><clipPath id="26"><path id="" clip-rule="evenodd" transform="matrix(1 0 0 1 0 0)" d="M59.98 69.45917L534.98 69.45917L534.98 69.45917L534.98 678.45917L534.98 678.45917L59.98 678.45917z" /></clipPath></defs><g transform="matrix(1.3333333 0 0 1.3333334 0 0)"><g clip-path="url(#1)"><g clip-path="url(#2)"></g><g clip-path="url(#3)"><path id="1" transform="matrix(1 0 0 -1 0 748)" d="M533.765 440.71875L533.765 379.07663" stroke="#000000" stroke-width="1.0274" fill="none" /><path id="2" transform="matrix(1 0 0 -1 0 748)" d="M516.568 440.7188L533.7647 440.7188" stroke="#000000" stroke-width="1.0274" fill="none" /><path id="3" transform="matrix(1 0 0 -1 0 748)" d="M516.568 440.7188L516.568 440.7188" stroke="#000000" stroke-width="1.0274" fill="none" /><path id="4" transform="matrix(1 0 0 -1 0 748)" d="M414.1351 440.7188L516.568 440.7188" stroke="#000000" stroke-width="1.0274" fill="none" /><path id="5" transform="matrix(1 0 0 -1 0 748)" d="M360.3017 440.7188L414.1351 440.7188" stroke="#000000" stroke-width="1.0274" fill="none" /><path id="6" transform="matrix(1 0 0 -1 0 748)" d="M296.7485 440.7188L360.3017 440.7188" stroke="#000000" stroke-width="1.0274" fill="none" /><path id="7" transform="matrix(1 0 0 -1 0 748)" d="M242.91519 440.7188L296.7485 440.7188" stroke="#000000" stroke-width="1.0274" fill="none" /><path id="8" transform="matrix(1 0 0 -1 0 748)" d="M171.137 440.71875L171.137 379.07663" stroke="#000000" stroke-width="1.0274" fill="none" /><path id="9" transform="matrix(1 0 0 -1 0 748)" d="M171.1374 440.7188L242.91519 440.7188" stroke="#000000" stroke-width="1.0274" fill="none" /><path id="10" transform="matrix(1 0 0 -1 0 748)" d="M60.48 440.71875L60.48 379.07663" stroke="#000000" stroke-width="1.0274" fill="none" /><path id="11" transform="matrix(1 0 0 -1 0 748)" d="M60.48 440.7188L171.1374 440.7188" stroke="#000000" stroke-width="1.0274" fill="none" /><path id="12" transform="matrix(1 0 0 -1 0 748)" d="M533.765 132.50824L533.765 70.86615" stroke="#000000" stroke-width="1.0274" fill="none" /><path id="13" transform="matrix(1 0 0 -1 0 748)" d="M516.568 132.50781L533.7647 132.50781" stroke="#000000" stroke-width="1.0274" fill="none" /><path id="14" transform="matrix(1 0 0 -1 0 748)" d="M516.568 132.50781L516.568 132.50781" stroke="#000000" stroke-width="1.0274" fill="none" /><path id="15" transform="matrix(1 0 0 -1 0 748)" d="M414.1351 132.50781L516.568 132.50781" stroke="#000000" stroke-width="1.0274" fill="none" /><path id="16" transform="matrix(1 0 0 -1 0 748)" d="M360.3017 132.50781L414.1351 132.50781" stroke="#000000" stroke-width="1.0274" fill="none" /><path id="17" transform="matrix(1 0 0 -1 0 748)" d="M296.7485 132.50781L360.3017 132.50781" stroke="#000000" stroke-width="1.0274" fill="none" /><path id="18" transform="matrix(1 0 0 -1 0 748)" d="M242.91519 132.50781L296.7485 132.50781" stroke="#000000" stroke-width="1.0274" fill="none" /><path id="19" transform="matrix(1 0 0 -1 0 748)" d="M171.137 132.50824L171.137 70.86615" stroke="#000000" stroke-width="1.0274" fill="none" /><path id="20" transform="matrix(1 0 0 -1 0 748)" d="M171.1374 132.50781L242.91519 132.50781" stroke="#000000" stroke-width="1.0274" fill="none" /><path id="21" transform="matrix(1 0 0 -1 0 748)" d="M60.48 132.50824L60.48 70.86615" stroke="#000000" stroke-width="1.0274" fill="none" /><path id="22" transform="matrix(1 0 0 -1 0 748)" d="M60.48 132.50781L171.1374 132.50781" stroke="#000000" stroke-width="1.0274" fill="none" /><path id="23" transform="matrix(1 0 0 -1 0 748)" d="M533.765 379.07663L533.765 317.43454" stroke="#000000" stroke-width="1.0274" fill="none" /><path id="24" transform="matrix(1 0 0 -1 0 748)" d="M516.568 379.07684L533.7647 379.07684" stroke="#000000" stroke-width="1.0274" fill="none" /><path id="25" transform="matrix(1 0 0 -1 0 748)" d="M516.568 379.07684L516.568 379.07684" stroke="#000000" stroke-width="1.0274" fill="none" /><path id="26" transform="matrix(1 0 0 -1 0 748)" d="M414.1351 379.07684L516.568 379.07684" stroke="#000000" stroke-width="1.0274" fill="none" /><path id="27" transform="matrix(1 0 0 -1 0 748)" d="M360.3017 379.07684L414.1351 379.07684" stroke="#000000" stroke-width="1.0274" fill="none" /><path id="28" transform="matrix(1 0 0 -1 0 748)" d="M296.7485 379.07684L360.3017 379.07684" stroke="#000000" stroke-width="1.0274" fill="none" /><path id="29" transform="matrix(1 0 0 -1 0 748)" d="M242.91519 379.07684L296.7485 379.07684" stroke="#000000" stroke-width="1.0274" fill="none" /><path id="30" transform="matrix(1 0 0 -1 0 748)" d="M171.137 379.07663L171.137 317.43454" stroke="#000000" stroke-width="1.0274" fill="none" /><path id="31" transform="matrix(1 0 0 -1 0 748)" d="M171.1374 379.07684L242.91519 379.07684" stroke="#000000" stroke-width="1.0274" fill="none" /><path id="32" transform="matrix(1 0 0 -1 0 748)" d="M60.48 379.07663L60.48 317.43454" stroke="#000000" stroke-width="1.0274" fill="none" /><path id="33" transform="matrix(1 0 0 -1 0 748)" d="M60.48 379.07684L171.1374 379.07684" stroke="#000000" stroke-width="1.0274" fill="none" /><path id="34" transform="matrix(1 0 0 -1 0 748)" d="M516.568 70.865845L533.7647 70.865845" stroke="#000000" stroke-width="1.0274" fill="none" /><path id="35" transform="matrix(1 0 0 -1 0 748)" d="M516.568 70.865845L516.568 70.865845" stroke="#000000" stroke-width="1.0274" fill="none" /><path id="36" transform="matrix(1 0 0 -1 0 748)" d="M414.1351 70.865845L516.568 70.865845" stroke="#000000" stroke-width="1.0274" fill="none" /><path id="37" transform="matrix(1 0 0 -1 0 748)" d="M360.3017 70.865845L414.1351 70.865845" stroke="#000000" stroke-width="1.0274" fill="none" /><path id="38" transform="matrix(1 0 0 -1 0 748)" d="M296.7485 70.865845L360.3017 70.865845" stroke="#000000" stroke-width="1.0274" fill="none" /><path id="39" transform="matrix(1 0 0 -1 0 748)" d="M242.91519 70.865845L296.7485 70.865845" stroke="#000000" stroke-width="1.0274" fill="none" /><path id="40" transform="matrix(1 0 0 -1 0 748)" d="M171.1374 70.865845L242.91519 70.865845" stroke="#000000" stroke-width="1.0274" fill="none" /><path id="41" transform="matrix(1 0 0 -1 0 748)" d="M533.765 643.3671L533.765 590.9713" stroke="#000000" stroke-width="1.0274" fill="none" /><path id="42" transform="matrix(1 0 0 -1 0 748)" d="M60.48 70.865845L171.1374 70.865845" stroke="#000000" stroke-width="1.0274" fill="none" /><path id="43" transform="matrix(1 0 0 -1 0 748)" d="M516.568 643.3668L533.7647 643.3668" stroke="#000000" stroke-width="1.0274" fill="none" /><path id="44" transform="matrix(1 0 0 -1 0 748)" d="M516.568 643.3668L516.568 643.3668" stroke="#000000" stroke-width="1.0274" fill="none" /><path id="45" transform="matrix(1 0 0 -1 0 748)" d="M414.1351 643.3668L516.568 643.3668" stroke="#000000" stroke-width="1.0274" fill="none" /><path id="46" transform="matrix(1 0 0 -1 0 748)" d="M360.302 643.3671L360.302 590.9713" stroke="#000000" stroke-width="1.0274" fill="none" /><path id="47" transform="matrix(1 0 0 -1 0 748)" d="M360.3017 643.3668L414.1351 643.3668" stroke="#000000" stroke-width="1.0274" fill="none" /><path id="48" transform="matrix(1 0 0 -1 0 748)" d="M296.749 643.3671L296.749 590.9713" stroke="#000000" stroke-width="1.0274" fill="none" /><path id="49" transform="matrix(1 0 0 -1 0 748)" d="M296.7485 643.3668L360.3017 643.3668" stroke="#000000" stroke-width="1.0274" fill="none" /><path id="50" transform="matrix(1 0 0 -1 0 748)" d="M242.91519 643.3668L296.7485 643.3668" stroke="#000000" stroke-width="1.0274" fill="none" /><path id="51" transform="matrix(1 0 0 -1 0 748)" d="M171.137 643.3671L171.137 590.9713" stroke="#000000" stroke-width="1.0274" fill="none" /><path id="52" transform="matrix(1 0 0 -1 0 748)" d="M171.1374 643.3668L242.91519 643.3668" stroke="#000000" stroke-width="1.0274" fill="none" /><path id="53" transform="matrix(1 0 0 -1 0 748)" d="M60.48 643.3671L60.48 590.9713" stroke="#000000" stroke-width="1.0274" fill="none" /><path id="54" transform="matrix(1 0 0 -1 0 748)" d="M60.48 643.3668L171.1374 643.3668" stroke="#000000" stroke-width="1.0274" fill="none" /><path id="55" transform="matrix(1 0 0 -1 0 748)" d="M533.765 317.43454L533.765 255.79242" stroke="#000000" stroke-width="1.0274" fill="none" /><path id="56" transform="matrix(1 0 0 -1 0 748)" d="M516.568 317.43484L533.7647 317.43484" stroke="#000000" stroke-width="1.0274" fill="none" /><path id="57" transform="matrix(1 0 0 -1 0 748)" d="M516.568 317.43484L516.568 317.43484" stroke="#000000" stroke-width="1.0274" fill="none" /><path id="58" transform="matrix(1 0 0 -1 0 748)" d="M414.1351 317.43484L516.568 317.43484" stroke="#000000" stroke-width="1.0274" fill="none" /><path id="59" transform="matrix(1 0 0 -1 0 748)" d="M360.3017 317.43484L414.1351 317.43484" stroke="#000000" stroke-width="1.0274" fill="none" /><path id="60" transform="matrix(1 0 0 -1 0 748)" d="M296.7485 317.43484L360.3017 317.43484" stroke="#000000" stroke-width="1.0274" fill="none" /><path id="61" transform="matrix(1 0 0 -1 0 748)" d="M242.91519 317.43484L296.7485 317.43484" stroke="#000000" stroke-width="1.0274" fill="none" /><path id="62" transform="matrix(1 0 0 -1 0 748)" d="M171.137 317.43454L171.137 255.79242" stroke="#000000" stroke-width="1.0274" fill="none" /><path id="63" transform="matrix(1 0 0 -1 0 748)" d="M171.1374 317.43484L242.91519 317.43484" stroke="#000000" stroke-width="1.0274" fill="none" /><path id="64" transform="matrix(1 0 0 -1 0 748)" d="M60.48 317.43454L60.48 255.79242" stroke="#000000" stroke-width="1.0274" fill="none" /><path id="65" transform="matrix(1 0 0 -1 0 748)" d="M60.48 317.43484L171.1374 317.43484" stroke="#000000" stroke-width="1.0274" fill="none" /><path id="66" transform="matrix(1 0 0 -1 0 748)" d="M533.765 590.9713L533.765 502.36084" stroke="#000000" stroke-width="1.0274" fill="none" /><path id="67" transform="matrix(1 0 0 -1 0 748)" d="M516.568 590.9718L533.7647 590.9718" stroke="#000000" stroke-width="1.0274" fill="none" /><path id="68" transform="matrix(1 0 0 -1 0 748)" d="M516.568 590.9718L516.568 590.9718" stroke="#000000" stroke-width="1.0274" fill="none" /><path id="69" transform="matrix(1 0 0 -1 0 748)" d="M414.1351 590.9718L516.568 590.9718" stroke="#000000" stroke-width="1.0274" fill="none" /><path id="70" transform="matrix(1 0 0 -1 0 748)" d="M360.3017 590.9718L414.1351 590.9718" stroke="#000000" stroke-width="1.0274" fill="none" /><path id="71" transform="matrix(1 0 0 -1 0 748)" d="M296.7485 590.9718L360.3017 590.9718" stroke="#000000" stroke-width="1.0274" fill="none" /><path id="72" transform="matrix(1 0 0 -1 0 748)" d="M242.91519 590.9718L296.7485 590.9718" stroke="#000000" stroke-width="1.0274" fill="none" /><path id="73" transform="matrix(1 0 0 -1 0 748)" d="M171.137 590.9713L171.137 502.36084" stroke="#000000" stroke-width="1.0274" fill="none" /><path id="74" transform="matrix(1 0 0 -1 0 748)" d="M171.1374 590.9718L242.91519 590.9718" stroke="#000000" stroke-width="1.0274" fill="none" /><path id="75" transform="matrix(1 0 0 -1 0 748)" d="M60.48 590.9713L60.48 502.36084" stroke="#000000" stroke-width="1.0274" fill="none" /><path id="76" transform="matrix(1 0 0 -1 0 748)" d="M60.48 590.9718L171.1374 590.9718" stroke="#000000" stroke-width="1.0274" fill="none" /><path id="77" transform="matrix(1 0 0 -1 0 748)" d="M533.765 255.79242L533.765 194.15033" stroke="#000000" stroke-width="1.0274" fill="none" /><path id="78" transform="matrix(1 0 0 -1 0 748)" d="M516.568 255.79285L533.7647 255.79285" stroke="#000000" stroke-width="1.0274" fill="none" /><path id="79" transform="matrix(1 0 0 -1 0 748)" d="M516.568 255.79285L516.568 255.79285" stroke="#000000" stroke-width="1.0274" fill="none" /><path id="80" transform="matrix(1 0 0 -1 0 748)" d="M414.1351 255.79285L516.568 255.79285" stroke="#000000" stroke-width="1.0274" fill="none" /><path id="81" transform="matrix(1 0 0 -1 0 748)" d="M360.3017 255.79285L414.1351 255.79285" stroke="#000000" stroke-width="1.0274" fill="none" /><path id="82" transform="matrix(1 0 0 -1 0 748)" d="M296.7485 255.79285L360.3017 255.79285" stroke="#000000" stroke-width="1.0274" fill="none" /><path id="83" transform="matrix(1 0 0 -1 0 748)" d="M242.91519 255.79285L296.7485 255.79285" stroke="#000000" stroke-width="1.0274" fill="none" /><path id="84" transform="matrix(1 0 0 -1 0 748)" d="M171.137 255.79242L171.137 194.15033" stroke="#000000" stroke-width="1.0274" fill="none" /><path id="85" transform="matrix(1 0 0 -1 0 748)" d="M171.1374 255.79285L242.91519 255.79285" stroke="#000000" stroke-width="1.0274" fill="none" /><path id="86" transform="matrix(1 0 0 -1 0 748)" d="M60.48 255.79242L60.48 194.15033" stroke="#000000" stroke-width="1.0274" fill="none" /><path id="87" transform="matrix(1 0 0 -1 0 748)" d="M60.48 255.79285L171.1374 255.79285" stroke="#000000" stroke-width="1.0274" fill="none" /><path id="88" transform="matrix(1 0 0 -1 0 748)" d="M533.765 502.36084L533.765 440.71875" stroke="#000000" stroke-width="1.0274" fill="none" /><path id="89" transform="matrix(1 0 0 -1 0 748)" d="M516.568 502.36084L533.7647 502.36084" stroke="#000000" stroke-width="1.0274" fill="none" /><path id="90" transform="matrix(1 0 0 -1 0 748)" d="M516.568 502.36084L516.568 502.36084" stroke="#000000" stroke-width="1.0274" fill="none" /><path id="91" transform="matrix(1 0 0 -1 0 748)" d="M414.1351 502.36084L516.568 502.36084" stroke="#000000" stroke-width="1.0274" fill="none" /><path id="92" transform="matrix(1 0 0 -1 0 748)" d="M360.3017 502.36084L414.1351 502.36084" stroke="#000000" stroke-width="1.0274" fill="none" /><path id="93" transform="matrix(1 0 0 -1 0 748)" d="M296.7485 502.36084L360.3017 502.36084" stroke="#000000" stroke-width="1.0274" fill="none" /><path id="94" transform="matrix(1 0 0 -1 0 748)" d="M242.91519 502.36084L296.7485 502.36084" stroke="#000000" stroke-width="1.0274" fill="none" /><path id="95" transform="matrix(1 0 0 -1 0 748)" d="M171.137 502.36084L171.137 440.71875" stroke="#000000" stroke-width="1.0274" fill="none" /><path id="96" transform="matrix(1 0 0 -1 0 748)" d="M171.1374 502.36084L242.91519 502.36084" stroke="#000000" stroke-width="1.0274" fill="none" /><path id="97" transform="matrix(1 0 0 -1 0 748)" d="M60.48 502.36084L60.48 440.71875" stroke="#000000" stroke-width="1.0274" fill="none" /><path id="98" transform="matrix(1 0 0 -1 0 748)" d="M60.48 502.36084L171.1374 502.36084" stroke="#000000" stroke-width="1.0274" fill="none" /><path id="99" transform="matrix(1 0 0 -1 0 748)" d="M533.765 194.15033L533.765 132.50824" stroke="#000000" stroke-width="1.0274" fill="none" /><path id="100" transform="matrix(1 0 0 -1 0 748)" d="M516.568 194.14984L533.7647 194.14984" stroke="#000000" stroke-width="1.0274" fill="none" /><path id="101" transform="matrix(1 0 0 -1 0 748)" d="M516.568 194.14984L516.568 194.14984" stroke="#000000" stroke-width="1.0274" fill="none" /><path id="102" transform="matrix(1 0 0 -1 0 748)" d="M414.1351 194.14984L516.568 194.14984" stroke="#000000" stroke-width="1.0274" fill="none" /><path id="103" transform="matrix(1 0 0 -1 0 748)" d="M360.3017 194.14984L414.1351 194.14984" stroke="#000000" stroke-width="1.0274" fill="none" /><path id="104" transform="matrix(1 0 0 -1 0 748)" d="M296.7485 194.14984L360.3017 194.14984" stroke="#000000" stroke-width="1.0274" fill="none" /><path id="105" transform="matrix(1 0 0 -1 0 748)" d="M242.91519 194.14984L296.7485 194.14984" stroke="#000000" stroke-width="1.0274" fill="none" /><path id="106" transform="matrix(1 0 0 -1 0 748)" d="M171.137 194.15033L171.137 132.50824" stroke="#000000" stroke-width="1.0274" fill="none" /><path id="107" transform="matrix(1 0 0 -1 0 748)" d="M171.1374 194.14984L242.91519 194.14984" stroke="#000000" stroke-width="1.0274" fill="none" /><path id="108" transform="matrix(1 0 0 -1 0 748)" d="M60.48 194.15033L60.48 132.50824" stroke="#000000" stroke-width="1.0274" fill="none" /><path id="109" transform="matrix(1 0 0 -1 0 748)" d="M60.48 194.14984L171.1374 194.14984" stroke="#000000" stroke-width="1.0274" fill="none" /></g><g clip-path="url(#4)"><g clip-path="url(#5)"></g><g clip-path="url(#6)"></g><g clip-path="url(#7)"></g><g clip-path="url(#8)"></g><g clip-path="url(#9)"></g><g clip-path="url(#10)"></g><g clip-path="url(#11)"></g><g clip-path="url(#12)"></g><g clip-path="url(#13)"></g><g clip-path="url(#14)"></g><g clip-path="url(#15)"></g><g clip-path="url(#16)"></g><g clip-path="url(#17)"></g><g clip-path="url(#18)"></g><g clip-path="url(#19)"></g><g clip-path="url(#20)"></g><g clip-path="url(#21)"></g><g clip-path="url(#22)"></g><g clip-path="url(#23)"></g><g clip-path="url(#24)"></g><g clip-path="url(#25)"></g></g><g clip-path="url(#26)"></g></g></g></svg>