<svg xmlns="http://www.w3.org/2000/svg" xmlns:xlink="http://www.w3.org/1999/xlink" id="body_1" preserveAspectRatio="xMinYMin meet" viewBox="0 0 772 649"><defs><clipPath id="1"><path id="" clip-rule="evenodd" transform="matrix(1 0 0 1 0 0)" d="M0 487L0 -0.7060852L0 -0.7060852L579.282 -0.7060852L579.282 -0.7060852L579.282 487L579.282 487L0 487z" /></clipPath><clipPath id="2"><path id="" clip-rule="evenodd" transform="matrix(1 0 0 1 0 0)" d="M33.5 70.793915L557.5 70.793915L557.5 70.793915L557.5 415.7939L557.5 415.7939L33.5 415.7939z" /></clipPath><clipPath id="3"><path id="" clip-rule="evenodd" transform="matrix(1 0 0 1 0 0)" d="M33.5 69.75281L557.5 69.75281L557.5 69.75281L557.5 416.75293L557.5 416.75293L33.5 416.75293z" /></clipPath><clipPath id="4"><path id="" clip-rule="evenodd" transform="matrix(1 0 0 1 0 0)" d="M33.5 70.793915L557.5 70.793915L557.5 70.793915L557.5 415.7939L557.5 415.7939L33.5 415.7939z" /></clipPath><clipPath id="5"><path id="" clip-rule="evenodd" transform="matrix(1 0 0 1 0 0)" d="M34.25 115.46393L68.891205 115.46393L68.891205 115.46393L68.891205 414.75L68.891205 414.75L34.25 414.75z" /></clipPath><clipPath id="6"><path id="" clip-rule="evenodd" transform="matrix(1 0 0 1 0 0)" d="M328.838 115.46393L382.1713 115.46393L382.1713 115.46393L382.1713 145.785L382.1713 145.785L328.838 145.785z" /></clipPath><clipPath id="7"><path id="" clip-rule="evenodd" transform="matrix(1 0 0 1 0 0)" d="M382.6713 115.46393L483.8565 115.46393L483.8565 115.46393L483.8565 145.785L483.8565 145.785L382.6713 145.785z" /></clipPath><clipPath id="8"><path id="" clip-rule="evenodd" transform="matrix(1 0 0 1 0 0)" d="M484.3565 115.46393L520.49304 115.46393L520.49304 115.46393L520.49304 414.75L520.49304 414.75L484.3565 414.75z" /></clipPath><clipPath id="9"><path id="" clip-rule="evenodd" transform="matrix(1 0 0 1 0 0)" d="M520.99304 115.46393L556.382 115.46393L556.382 115.46393L556.382 414.75L556.382 414.75L520.99304 414.75z" /></clipPath><clipPath id="10"><path id="" clip-rule="evenodd" transform="matrix(1 0 0 1 0 0)" d="M328.838 146.285L382.1713 146.285L382.1713 146.285L382.1713 176.60602L382.1713 176.60602L328.838 176.60602z" /></clipPath><clipPath id="11"><path id="" clip-rule="evenodd" transform="matrix(1 0 0 1 0 0)" d="M382.6713 146.285L483.8565 146.285L483.8565 146.285L483.8565 176.60602L483.8565 176.60602L382.6713 176.60602z" /></clipPath><clipPath id="12"><path id="" clip-rule="evenodd" transform="matrix(1 0 0 1 0 0)" d="M328.838 177.10602L382.1713 177.10602L382.1713 177.10602L382.1713 207.42712L382.1713 207.42712L328.838 207.42712z" /></clipPath><clipPath id="13"><path id="" clip-rule="evenodd" transform="matrix(1 0 0 1 0 0)" d="M382.6713 177.10602L483.8565 177.10602L483.8565 177.10602L483.8565 207.42712L483.8565 207.42712L382.6713 207.42712z" /></clipPath><clipPath id="14"><path id="" clip-rule="evenodd" transform="matrix(1 0 0 1 0 0)" d="M328.838 207.92712L382.1713 207.92712L382.1713 207.92712L382.1713 238.24811L382.1713 238.24811L328.838 238.24811z" /></clipPath><clipPath id="15"><path id="" clip-rule="evenodd" transform="matrix(1 0 0 1 0 0)" d="M382.6713 207.92712L483.8565 207.92712L483.8565 207.92712L483.8565 238.24811L483.8565 238.24811L382.6713 238.24811z" /></clipPath><clipPath id="16"><path id="" clip-rule="evenodd" transform="matrix(1 0 0 1 0 0)" d="M328.838 238.74811L382.1713 238.74811L382.1713 238.74811L382.1713 269.0692L382.1713 269.0692L328.838 269.0692z" /></clipPath><clipPath id="17"><path id="" clip-rule="evenodd" transform="matrix(1 0 0 1 0 0)" d="M382.6713 238.74811L483.8565 238.74811L483.8565 238.74811L483.8565 269.0692L483.8565 269.0692L382.6713 269.0692z" /></clipPath><clipPath id="18"><path id="" clip-rule="evenodd" transform="matrix(1 0 0 1 0 0)" d="M328.838 269.5692L382.1713 269.5692L382.1713 269.5692L382.1713 297.78412L382.1713 297.78412L328.838 297.78412z" /></clipPath><clipPath id="19"><path id="" clip-rule="evenodd" transform="matrix(1 0 0 1 0 0)" d="M382.6713 269.5692L483.8565 269.5692L483.8565 269.5692L483.8565 297.78412L483.8565 297.78412L382.6713 297.78412z" /></clipPath><clipPath id="20"><path id="" clip-rule="evenodd" transform="matrix(1 0 0 1 0 0)" d="M328.838 298.28412L382.1713 298.28412L382.1713 298.28412L382.1713 326.4991L382.1713 326.4991L328.838 326.4991z" /></clipPath><clipPath id="21"><path id="" clip-rule="evenodd" transform="matrix(1 0 0 1 0 0)" d="M382.6713 298.28412L483.8565 298.28412L483.8565 298.28412L483.8565 326.4991L483.8565 326.4991L382.6713 326.4991z" /></clipPath><clipPath id="22"><path id="" clip-rule="evenodd" transform="matrix(1 0 0 1 0 0)" d="M69.391205 326.9991L483.8565 326.9991L483.8565 326.9991L483.8565 355.21402L483.8565 355.21402L69.391205 355.21402z" /></clipPath><clipPath id="23"><path id="" clip-rule="evenodd" transform="matrix(1 0 0 1 0 0)" d="M69.391205 355.71402L121.9769 355.71402L121.9769 355.71402L121.9769 383.92892L121.9769 383.92892L69.391205 383.92892z" /></clipPath><clipPath id="24"><path id="" clip-rule="evenodd" transform="matrix(1 0 0 1 0 0)" d="M122.4769 355.71402L483.8564 355.71402L483.8564 355.71402L483.8564 383.92892L483.8564 383.92892L122.4769 383.92892z" /></clipPath><clipPath id="25"><path id="" clip-rule="evenodd" transform="matrix(1 0 0 1 0 0)" d="M69.391205 384.42892L121.9769 384.42892L121.9769 384.42892L121.9769 414.75L121.9769 414.75L69.391205 414.75z" /></clipPath><clipPath id="26"><path id="" clip-rule="evenodd" transform="matrix(1 0 0 1 0 0)" d="M122.4769 384.42892L246.0926 384.42892L246.0926 384.42892L246.0926 414.75L246.0926 414.75L122.4769 414.75z" /></clipPath><clipPath id="27"><path id="" clip-rule="evenodd" transform="matrix(1 0 0 1 0 0)" d="M246.5926 384.42892L299.9259 384.42892L299.9259 384.42892L299.9259 414.75L299.9259 414.75L246.5926 414.75z" /></clipPath><clipPath id="28"><path id="" clip-rule="evenodd" transform="matrix(1 0 0 1 0 0)" d="M300.4259 384.42892L483.8564 384.42892L483.8564 384.42892L483.8564 414.75L483.8564 414.75L300.4259 414.75z" /></clipPath><clipPath id="29"><path id="" clip-rule="evenodd" transform="matrix(1 0 0 1 0 0)" d="M33.5 70.793915L557.5 70.793915L557.5 70.793915L557.5 415.7939L557.5 415.7939L33.5 415.7939z" /></clipPath></defs><g transform="matrix(1.3333334 0 0 1.3333333 0 0)"><g clip-path="url(#1)"><g clip-path="url(#2)"></g><g clip-path="url(#3)"><path id="1" transform="matrix(1 0 0 -1 0 487)" d="M520.74304 72.00009L556.632 72.00009" stroke="#000000" stroke-width="1.0274" fill="none" /><path id="2" transform="matrix(1 0 0 -1 0 487)" d="M484.1065 72.00009L520.74304 72.00009" stroke="#000000" stroke-width="1.0274" fill="none" /><path id="3" transform="matrix(1 0 0 -1 0 487)" d="M382.4213 72.00009L484.1065 72.00009" stroke="#000000" stroke-width="1.0274" fill="none" /><path id="4" transform="matrix(1 0 0 -1 0 487)" d="M328.588 72.00009L382.4213 72.00009" stroke="#000000" stroke-width="1.0274" fill="none" /><path id="5" transform="matrix(1 0 0 -1 0 487)" d="M300.1759 72.00009L328.588 72.00009" stroke="#000000" stroke-width="1.0274" fill="none" /><path id="6" transform="matrix(1 0 0 -1 0 487)" d="M246.3426 72.00009L300.1759 72.00009" stroke="#000000" stroke-width="1.0274" fill="none" /><path id="7" transform="matrix(1 0 0 -1 0 487)" d="M122.2269 72.00009L246.3426 72.00009" stroke="#000000" stroke-width="1.0274" fill="none" /><path id="8" transform="matrix(1 0 0 -1 0 487)" d="M556.632 340.965L556.632 310.14398" stroke="#000000" stroke-width="1.0274" fill="none" /><path id="9" transform="matrix(1 0 0 -1 0 487)" d="M69.141205 72.00009L122.2269 72.00009" stroke="#000000" stroke-width="1.0274" fill="none" /><path id="10" transform="matrix(1 0 0 -1 0 487)" d="M520.74304 340.965L520.74304 310.14398" stroke="#000000" stroke-width="1.0274" fill="none" /><path id="11" transform="matrix(1 0 0 -1 0 487)" d="M484.106 340.965L484.106 310.14398" stroke="#000000" stroke-width="1.0274" fill="none" /><path id="12" transform="matrix(1 0 0 -1 0 487)" d="M382.421 340.965L382.421 310.14398" stroke="#000000" stroke-width="1.0274" fill="none" /><path id="13" transform="matrix(1 0 0 -1 0 487)" d="M382.4213 340.9651L484.1065 340.9651" stroke="#000000" stroke-width="1.0274" fill="none" /><path id="14" transform="matrix(1 0 0 -1 0 487)" d="M328.588 340.965L328.588 310.14398" stroke="#000000" stroke-width="1.0274" fill="none" /><path id="15" transform="matrix(1 0 0 -1 0 487)" d="M328.588 340.9651L382.4213 340.9651" stroke="#000000" stroke-width="1.0274" fill="none" /><path id="16" transform="matrix(1 0 0 -1 0 487)" d="M69.141 340.965L69.141 310.14398" stroke="#000000" stroke-width="1.0274" fill="none" /><path id="17" transform="matrix(1 0 0 -1 0 487)" d="M556.632 188.96588L556.632 160.25089" stroke="#000000" stroke-width="1.0274" fill="none" /><path id="18" transform="matrix(1 0 0 -1 0 487)" d="M520.74304 188.96588L520.74304 160.25089" stroke="#000000" stroke-width="1.0274" fill="none" /><path id="19" transform="matrix(1 0 0 -1 0 487)" d="M484.106 188.96588L484.106 160.25089" stroke="#000000" stroke-width="1.0274" fill="none" /><path id="20" transform="matrix(1 0 0 -1 0 487)" d="M382.421 188.96588L382.421 160.25089" stroke="#000000" stroke-width="1.0274" fill="none" /><path id="21" transform="matrix(1 0 0 -1 0 487)" d="M382.4213 188.96608L484.1065 188.96608" stroke="#000000" stroke-width="1.0274" fill="none" /><path id="22" transform="matrix(1 0 0 -1 0 487)" d="M328.588 188.96588L328.588 160.25089" stroke="#000000" stroke-width="1.0274" fill="none" /><path id="23" transform="matrix(1 0 0 -1 0 487)" d="M328.588 188.96608L382.4213 188.96608" stroke="#000000" stroke-width="1.0274" fill="none" /><path id="24" transform="matrix(1 0 0 -1 0 487)" d="M69.141 188.96588L69.141 160.25089" stroke="#000000" stroke-width="1.0274" fill="none" /><path id="25" transform="matrix(1 0 0 -1 0 487)" d="M556.632 310.14398L556.632 279.32288" stroke="#000000" stroke-width="1.0274" fill="none" /><path id="26" transform="matrix(1 0 0 -1 0 487)" d="M520.74304 310.14398L520.74304 279.32288" stroke="#000000" stroke-width="1.0274" fill="none" /><path id="27" transform="matrix(1 0 0 -1 0 487)" d="M484.106 310.14398L484.106 279.32288" stroke="#000000" stroke-width="1.0274" fill="none" /><path id="28" transform="matrix(1 0 0 -1 0 487)" d="M382.421 310.14398L382.421 279.32288" stroke="#000000" stroke-width="1.0274" fill="none" /><path id="29" transform="matrix(1 0 0 -1 0 487)" d="M382.4213 310.1441L484.1065 310.1441" stroke="#000000" stroke-width="1.0274" fill="none" /><path id="30" transform="matrix(1 0 0 -1 0 487)" d="M328.588 310.14398L328.588 279.32288" stroke="#000000" stroke-width="1.0274" fill="none" /><path id="31" transform="matrix(1 0 0 -1 0 487)" d="M328.588 310.1441L382.4213 310.1441" stroke="#000000" stroke-width="1.0274" fill="none" /><path id="32" transform="matrix(1 0 0 -1 0 487)" d="M69.141 310.14398L69.141 279.32288" stroke="#000000" stroke-width="1.0274" fill="none" /><path id="33" transform="matrix(1 0 0 -1 0 487)" d="M556.632 160.25089L556.632 131.53598" stroke="#000000" stroke-width="1.0274" fill="none" /><path id="34" transform="matrix(1 0 0 -1 0 487)" d="M520.74304 160.25089L520.74304 131.53598" stroke="#000000" stroke-width="1.0274" fill="none" /><path id="35" transform="matrix(1 0 0 -1 0 487)" d="M484.106 160.25089L484.106 131.53598" stroke="#000000" stroke-width="1.0274" fill="none" /><path id="36" transform="matrix(1 0 0 -1 0 487)" d="M382.4213 160.25108L484.1065 160.25108" stroke="#000000" stroke-width="1.0274" fill="none" /><path id="37" transform="matrix(1 0 0 -1 0 487)" d="M328.588 160.25108L382.4213 160.25108" stroke="#000000" stroke-width="1.0274" fill="none" /><path id="38" transform="matrix(1 0 0 -1 0 487)" d="M300.1759 160.25108L328.588 160.25108" stroke="#000000" stroke-width="1.0274" fill="none" /><path id="39" transform="matrix(1 0 0 -1 0 487)" d="M246.3426 160.25108L300.1759 160.25108" stroke="#000000" stroke-width="1.0274" fill="none" /><path id="40" transform="matrix(1 0 0 -1 0 487)" d="M122.2269 160.25108L246.3426 160.25108" stroke="#000000" stroke-width="1.0274" fill="none" /><path id="41" transform="matrix(1 0 0 -1 0 487)" d="M69.141 160.25089L69.141 131.53598" stroke="#000000" stroke-width="1.0274" fill="none" /><path id="42" transform="matrix(1 0 0 -1 0 487)" d="M69.141205 160.25108L122.2269 160.25108" stroke="#000000" stroke-width="1.0274" fill="none" /><path id="43" transform="matrix(1 0 0 -1 0 487)" d="M556.632 279.32288L556.632 248.50189" stroke="#000000" stroke-width="1.0274" fill="none" /><path id="44" transform="matrix(1 0 0 -1 0 487)" d="M520.74304 279.32288L520.74304 248.50189" stroke="#000000" stroke-width="1.0274" fill="none" /><path id="45" transform="matrix(1 0 0 -1 0 487)" d="M484.106 279.32288L484.106 248.50189" stroke="#000000" stroke-width="1.0274" fill="none" /><path id="46" transform="matrix(1 0 0 -1 0 487)" d="M382.421 279.32288L382.421 248.50189" stroke="#000000" stroke-width="1.0274" fill="none" /><path id="47" transform="matrix(1 0 0 -1 0 487)" d="M382.4213 279.3231L484.1065 279.3231" stroke="#000000" stroke-width="1.0274" fill="none" /><path id="48" transform="matrix(1 0 0 -1 0 487)" d="M328.588 279.32288L328.588 248.50189" stroke="#000000" stroke-width="1.0274" fill="none" /><path id="49" transform="matrix(1 0 0 -1 0 487)" d="M328.588 279.3231L382.4213 279.3231" stroke="#000000" stroke-width="1.0274" fill="none" /><path id="50" transform="matrix(1 0 0 -1 0 487)" d="M69.141 279.32288L69.141 248.50189" stroke="#000000" stroke-width="1.0274" fill="none" /><path id="51" transform="matrix(1 0 0 -1 0 487)" d="M556.632 131.53598L556.632 102.821075" stroke="#000000" stroke-width="1.0274" fill="none" /><path id="52" transform="matrix(1 0 0 -1 0 487)" d="M520.74304 131.53598L520.74304 102.821075" stroke="#000000" stroke-width="1.0274" fill="none" /><path id="53" transform="matrix(1 0 0 -1 0 487)" d="M484.106 131.53598L484.106 102.821075" stroke="#000000" stroke-width="1.0274" fill="none" /><path id="54" transform="matrix(1 0 0 -1 0 487)" d="M382.4213 131.53607L484.1065 131.53607" stroke="#000000" stroke-width="1.0274" fill="none" /><path id="55" transform="matrix(1 0 0 -1 0 487)" d="M328.588 131.53607L382.4213 131.53607" stroke="#000000" stroke-width="1.0274" fill="none" /><path id="56" transform="matrix(1 0 0 -1 0 487)" d="M300.1759 131.53607L328.588 131.53607" stroke="#000000" stroke-width="1.0274" fill="none" /><path id="57" transform="matrix(1 0 0 -1 0 487)" d="M246.3426 131.53607L300.1759 131.53607" stroke="#000000" stroke-width="1.0274" fill="none" /><path id="58" transform="matrix(1 0 0 -1 0 487)" d="M122.227 131.53598L122.227 102.821075" stroke="#000000" stroke-width="1.0274" fill="none" /><path id="59" transform="matrix(1 0 0 -1 0 487)" d="M122.2269 131.53607L246.3426 131.53607" stroke="#000000" stroke-width="1.0274" fill="none" /><path id="60" transform="matrix(1 0 0 -1 0 487)" d="M69.141 131.53598L69.141 102.821075" stroke="#000000" stroke-width="1.0274" fill="none" /><path id="61" transform="matrix(1 0 0 -1 0 487)" d="M69.141205 131.53607L122.2269 131.53607" stroke="#000000" stroke-width="1.0274" fill="none" /><path id="62" transform="matrix(1 0 0 -1 0 487)" d="M520.74304 371.78607L556.632 371.78607" stroke="#000000" stroke-width="1.0274" fill="none" /><path id="63" transform="matrix(1 0 0 -1 0 487)" d="M556.632 248.50189L556.632 217.68079" stroke="#000000" stroke-width="1.0274" fill="none" /><path id="64" transform="matrix(1 0 0 -1 0 487)" d="M520.74304 248.50189L520.74304 217.68079" stroke="#000000" stroke-width="1.0274" fill="none" /><path id="65" transform="matrix(1 0 0 -1 0 487)" d="M484.106 248.50189L484.106 217.68079" stroke="#000000" stroke-width="1.0274" fill="none" /><path id="66" transform="matrix(1 0 0 -1 0 487)" d="M382.421 248.50189L382.421 217.68079" stroke="#000000" stroke-width="1.0274" fill="none" /><path id="67" transform="matrix(1 0 0 -1 0 487)" d="M382.4213 248.50209L484.1065 248.50209" stroke="#000000" stroke-width="1.0274" fill="none" /><path id="68" transform="matrix(1 0 0 -1 0 487)" d="M328.588 248.50189L328.588 217.68079" stroke="#000000" stroke-width="1.0274" fill="none" /><path id="69" transform="matrix(1 0 0 -1 0 487)" d="M328.588 248.50209L382.4213 248.50209" stroke="#000000" stroke-width="1.0274" fill="none" /><path id="70" transform="matrix(1 0 0 -1 0 487)" d="M69.141 248.50189L69.141 217.68079" stroke="#000000" stroke-width="1.0274" fill="none" /><path id="71" transform="matrix(1 0 0 -1 0 487)" d="M556.632 102.821075L556.632 72" stroke="#000000" stroke-width="1.0274" fill="none" /><path id="72" transform="matrix(1 0 0 -1 0 487)" d="M520.74304 102.821075L520.74304 72" stroke="#000000" stroke-width="1.0274" fill="none" /><path id="73" transform="matrix(1 0 0 -1 0 487)" d="M484.106 102.821075L484.106 72" stroke="#000000" stroke-width="1.0274" fill="none" /><path id="74" transform="matrix(1 0 0 -1 0 487)" d="M382.4213 102.821075L484.1065 102.821075" stroke="#000000" stroke-width="1.0274" fill="none" /><path id="75" transform="matrix(1 0 0 -1 0 487)" d="M328.588 102.821075L382.4213 102.821075" stroke="#000000" stroke-width="1.0274" fill="none" /><path id="76" transform="matrix(1 0 0 -1 0 487)" d="M300.176 102.821075L300.176 72" stroke="#000000" stroke-width="1.0274" fill="none" /><path id="77" transform="matrix(1 0 0 -1 0 487)" d="M300.1759 102.821075L328.588 102.821075" stroke="#000000" stroke-width="1.0274" fill="none" /><path id="78" transform="matrix(1 0 0 -1 0 487)" d="M246.343 102.821075L246.343 72" stroke="#000000" stroke-width="1.0274" fill="none" /><path id="79" transform="matrix(1 0 0 -1 0 487)" d="M246.3426 102.821075L300.1759 102.821075" stroke="#000000" stroke-width="1.0274" fill="none" /><path id="80" transform="matrix(1 0 0 -1 0 487)" d="M122.227 102.821075L122.227 72" stroke="#000000" stroke-width="1.0274" fill="none" /><path id="81" transform="matrix(1 0 0 -1 0 487)" d="M122.2269 102.821075L246.3426 102.821075" stroke="#000000" stroke-width="1.0274" fill="none" /><path id="82" transform="matrix(1 0 0 -1 0 487)" d="M69.141 102.821075L69.141 72" stroke="#000000" stroke-width="1.0274" fill="none" /><path id="83" transform="matrix(1 0 0 -1 0 487)" d="M69.141205 102.821075L122.2269 102.821075" stroke="#000000" stroke-width="1.0274" fill="none" /><path id="84" transform="matrix(1 0 0 -1 0 487)" d="M520.74304 371.78607L520.74304 340.965" stroke="#000000" stroke-width="1.0274" fill="none" /><path id="85" transform="matrix(1 0 0 -1 0 487)" d="M484.106 371.78607L484.106 340.965" stroke="#000000" stroke-width="1.0274" fill="none" /><path id="86" transform="matrix(1 0 0 -1 0 487)" d="M484.1065 371.78607L520.74304 371.78607" stroke="#000000" stroke-width="1.0274" fill="none" /><path id="87" transform="matrix(1 0 0 -1 0 487)" d="M382.421 371.78607L382.421 340.965" stroke="#000000" stroke-width="1.0274" fill="none" /><path id="88" transform="matrix(1 0 0 -1 0 487)" d="M382.4213 371.78607L484.1065 371.78607" stroke="#000000" stroke-width="1.0274" fill="none" /><path id="89" transform="matrix(1 0 0 -1 0 487)" d="M328.588 371.78607L328.588 340.965" stroke="#000000" stroke-width="1.0274" fill="none" /><path id="90" transform="matrix(1 0 0 -1 0 487)" d="M328.588 371.78607L382.4213 371.78607" stroke="#000000" stroke-width="1.0274" fill="none" /><path id="91" transform="matrix(1 0 0 -1 0 487)" d="M300.1759 371.78607L328.588 371.78607" stroke="#000000" stroke-width="1.0274" fill="none" /><path id="92" transform="matrix(1 0 0 -1 0 487)" d="M246.3426 371.78607L300.1759 371.78607" stroke="#000000" stroke-width="1.0274" fill="none" /><path id="93" transform="matrix(1 0 0 -1 0 487)" d="M122.2269 371.78607L246.3426 371.78607" stroke="#000000" stroke-width="1.0274" fill="none" /><path id="94" transform="matrix(1 0 0 -1 0 487)" d="M69.141 371.78607L69.141 340.965" stroke="#000000" stroke-width="1.0274" fill="none" /><path id="95" transform="matrix(1 0 0 -1 0 487)" d="M69.141205 371.78607L122.2269 371.78607" stroke="#000000" stroke-width="1.0274" fill="none" /><path id="96" transform="matrix(1 0 0 -1 0 487)" d="M556.632 371.78607L556.632 340.965" stroke="#000000" stroke-width="1.0274" fill="none" /><path id="97" transform="matrix(1 0 0 -1 0 487)" d="M556.632 217.68079L556.632 188.96588" stroke="#000000" stroke-width="1.0274" fill="none" /><path id="98" transform="matrix(1 0 0 -1 0 487)" d="M520.74304 217.68079L520.74304 188.96588" stroke="#000000" stroke-width="1.0274" fill="none" /><path id="99" transform="matrix(1 0 0 -1 0 487)" d="M484.106 217.68079L484.106 188.96588" stroke="#000000" stroke-width="1.0274" fill="none" /><path id="100" transform="matrix(1 0 0 -1 0 487)" d="M382.421 217.68079L382.421 188.96588" stroke="#000000" stroke-width="1.0274" fill="none" /><path id="101" transform="matrix(1 0 0 -1 0 487)" d="M382.4213 217.68109L484.1065 217.68109" stroke="#000000" stroke-width="1.0274" fill="none" /><path id="102" transform="matrix(1 0 0 -1 0 487)" d="M328.588 217.68079L328.588 188.96588" stroke="#000000" stroke-width="1.0274" fill="none" /><path id="103" transform="matrix(1 0 0 -1 0 487)" d="M328.588 217.68109L382.4213 217.68109" stroke="#000000" stroke-width="1.0274" fill="none" /><path id="104" transform="matrix(1 0 0 -1 0 487)" d="M69.141 217.68079L69.141 188.96588" stroke="#000000" stroke-width="1.0274" fill="none" /></g><g clip-path="url(#4)"><g clip-path="url(#5)"></g><g clip-path="url(#6)"></g><g clip-path="url(#7)"></g><g clip-path="url(#8)"></g><g clip-path="url(#9)"></g><g clip-path="url(#10)"></g><g clip-path="url(#11)"></g><g clip-path="url(#12)"></g><g clip-path="url(#13)"></g><g clip-path="url(#14)"></g><g clip-path="url(#15)"></g><g clip-path="url(#16)"></g><g clip-path="url(#17)"></g><g clip-path="url(#18)"></g><g clip-path="url(#19)"></g><g clip-path="url(#20)"></g><g clip-path="url(#21)"></g><g clip-path="url(#22)"></g><g clip-path="url(#23)"></g><g clip-path="url(#24)"></g><g clip-path="url(#25)"></g><g clip-path="url(#26)"></g><g clip-path="url(#27)"></g><g clip-path="url(#28)"></g></g><g clip-path="url(#29)"></g></g></g></svg>