<svg xmlns="http://www.w3.org/2000/svg" xmlns:xlink="http://www.w3.org/1999/xlink" id="body_1" preserveAspectRatio="xMinYMin meet" viewBox="0 0 745 1099"><defs><clipPath id="1"><path id="" clip-rule="evenodd" transform="matrix(1 0 0 1 0 0)" d="M0 824L0 -0.664978L0 -0.664978L559.8959 -0.664978L559.8959 -0.664978L559.8959 824L559.8959 824L0 824z" /></clipPath><clipPath id="2"><path id="" clip-rule="evenodd" transform="matrix(1 0 0 1 0 0)" d="M53.5 41.335022L506.5 41.335022L506.5 41.335022L506.5 762.335L506.5 762.335L53.5 762.335z" /></clipPath><clipPath id="3"><path id="" clip-rule="evenodd" transform="matrix(1 0 0 1 0 0)" d="M53.5 40.330444L506.5 40.330444L506.5 40.330444L506.5 763.33044L506.5 763.33044L53.5 763.33044z" /></clipPath><clipPath id="4"><path id="" clip-rule="evenodd" transform="matrix(1 0 0 1 0 0)" d="M53.5 41.335022L506.5 41.335022L506.5 41.335022L506.5 762.335L506.5 762.335L53.5 762.335z" /></clipPath><clipPath id="5"><path id="" clip-rule="evenodd" transform="matrix(1 0 0 1 0 0)" d="M54.25 42.085022L505.6458 42.085022L505.6458 42.085022L505.6458 76.793335L505.6458 76.793335L54.25 76.793335z" /></clipPath><clipPath id="6"><path id="" clip-rule="evenodd" transform="matrix(1 0 0 1 0 0)" d="M54.25 88.42761L304.5729 88.42761L304.5729 88.42761L304.5729 108.99243L304.5729 108.99243L54.25 108.99243z" /></clipPath><clipPath id="7"><path id="" clip-rule="evenodd" transform="matrix(1 0 0 1 0 0)" d="M305.0729 88.42761L505.6458 88.42761L505.6458 88.42761L505.6458 108.99243L505.6458 108.99243L305.0729 108.99243z" /></clipPath><clipPath id="8"><path id="" clip-rule="evenodd" transform="matrix(1 0 0 1 0 0)" d="M54.25 109.49243L304.5729 109.49243L304.5729 109.49243L304.5729 130.05725L304.5729 130.05725L54.25 130.05725z" /></clipPath><clipPath id="9"><path id="" clip-rule="evenodd" transform="matrix(1 0 0 1 0 0)" d="M305.0729 109.49243L505.6458 109.49243L505.6458 109.49243L505.6458 130.05725L505.6458 130.05725L305.0729 130.05725z" /></clipPath><clipPath id="10"><path id="" clip-rule="evenodd" transform="matrix(1 0 0 1 0 0)" d="M54.25 130.55725L304.5729 130.55725L304.5729 130.55725L304.5729 151.12201L304.5729 151.12201L54.25 151.12201z" /></clipPath><clipPath id="11"><path id="" clip-rule="evenodd" transform="matrix(1 0 0 1 0 0)" d="M305.0729 130.55725L505.6458 130.55725L505.6458 130.55725L505.6458 151.12201L505.6458 151.12201L305.0729 151.12201z" /></clipPath><clipPath id="12"><path id="" clip-rule="evenodd" transform="matrix(1 0 0 1 0 0)" d="M54.25 151.62201L304.5729 151.62201L304.5729 151.62201L304.5729 172.18689L304.5729 172.18689L54.25 172.18689z" /></clipPath><clipPath id="13"><path id="" clip-rule="evenodd" transform="matrix(1 0 0 1 0 0)" d="M305.0729 151.62201L505.6458 151.62201L505.6458 151.62201L505.6458 172.18689L505.6458 172.18689L305.0729 172.18689z" /></clipPath><clipPath id="14"><path id="" clip-rule="evenodd" transform="matrix(1 0 0 1 0 0)" d="M54.25 172.68689L304.5729 172.68689L304.5729 172.68689L304.5729 193.25171L304.5729 193.25171L54.25 193.25171z" /></clipPath><clipPath id="15"><path id="" clip-rule="evenodd" transform="matrix(1 0 0 1 0 0)" d="M305.0729 172.68689L505.6458 172.68689L505.6458 172.68689L505.6458 193.25171L505.6458 193.25171L305.0729 193.25171z" /></clipPath><clipPath id="16"><path id="" clip-rule="evenodd" transform="matrix(1 0 0 1 0 0)" d="M54.25 196.76093L304.5729 196.76093L304.5729 196.76093L304.5729 217.3258L304.5729 217.3258L54.25 217.3258z" /></clipPath><clipPath id="17"><path id="" clip-rule="evenodd" transform="matrix(1 0 0 1 0 0)" d="M305.0729 196.76093L395.7813 196.76093L395.7813 196.76093L395.7813 217.3258L395.7813 217.3258L305.0729 217.3258z" /></clipPath><clipPath id="18"><path id="" clip-rule="evenodd" transform="matrix(1 0 0 1 0 0)" d="M396.2813 196.76093L505.6458 196.76093L505.6458 196.76093L505.6458 217.3258L505.6458 217.3258L396.2813 217.3258z" /></clipPath><clipPath id="19"><path id="" clip-rule="evenodd" transform="matrix(1 0 0 1 0 0)" d="M54.25 217.8258L304.5729 217.8258L304.5729 217.8258L304.5729 238.39062L304.5729 238.39062L54.25 238.39062z" /></clipPath><clipPath id="20"><path id="" clip-rule="evenodd" transform="matrix(1 0 0 1 0 0)" d="M305.0729 217.8258L395.7813 217.8258L395.7813 217.8258L395.7813 238.39062L395.7813 238.39062L305.0729 238.39062z" /></clipPath><clipPath id="21"><path id="" clip-rule="evenodd" transform="matrix(1 0 0 1 0 0)" d="M396.2813 217.8258L505.6458 217.8258L505.6458 217.8258L505.6458 238.39062L505.6458 238.39062L396.2813 238.39062z" /></clipPath><clipPath id="22"><path id="" clip-rule="evenodd" transform="matrix(1 0 0 1 0 0)" d="M54.25 681.2517L395.7813 681.2517L395.7813 681.2517L395.7813 701.81665L395.7813 701.81665L54.25 701.81665z" /></clipPath><clipPath id="23"><path id="" clip-rule="evenodd" transform="matrix(1 0 0 1 0 0)" d="M396.2813 681.2517L505.6458 681.2517L505.6458 681.2517L505.6458 701.81665L505.6458 701.81665L396.2813 701.81665z" /></clipPath><clipPath id="24"><path id="" clip-rule="evenodd" transform="matrix(1 0 0 1 0 0)" d="M54.25 712.2973L395.7813 712.2973L395.7813 712.2973L395.7813 729.85284L395.7813 729.85284L54.25 729.85284z" /></clipPath><clipPath id="25"><path id="" clip-rule="evenodd" transform="matrix(1 0 0 1 0 0)" d="M396.2813 712.2973L505.6458 712.2973L505.6458 712.2973L505.6458 729.85284L505.6458 729.85284L396.2813 729.85284z" /></clipPath><clipPath id="26"><path id="" clip-rule="evenodd" transform="matrix(1 0 0 1 0 0)" d="M54.25 743.89453L304.5729 743.89453L304.5729 743.89453L304.5729 761.45013L304.5729 761.45013L54.25 761.45013z" /></clipPath><clipPath id="27"><path id="" clip-rule="evenodd" transform="matrix(1 0 0 1 0 0)" d="M396.2813 743.89453L505.6458 743.89453L505.6458 743.89453L505.6458 761.45013L505.6458 761.45013L396.2813 761.45013z" /></clipPath><clipPath id="28"><path id="" clip-rule="evenodd" transform="matrix(1 0 0 1 0 0)" d="M53.5 41.335022L506.5 41.335022L506.5 41.335022L506.5 762.335L506.5 762.335L53.5 762.335z" /></clipPath></defs><g transform="matrix(1.3333333 0 0 1.3333334 0 0)"><g clip-path="url(#1)"><g clip-path="url(#2)"></g><g clip-path="url(#3)"><path id="1" transform="matrix(1 0 0 -1 0 824)" d="M396.031 311.51678L396.031 290.45197" stroke="#000000" stroke-width="1.0031" fill="none" /><path id="2" transform="matrix(1 0 0 -1 0 824)" d="M396.0313 311.51697L505.8958 311.51697" stroke="#000000" stroke-width="1.0031" fill="none" /><path id="3" transform="matrix(1 0 0 -1 0 824)" d="M304.823 311.51678L304.823 290.45197" stroke="#000000" stroke-width="1.0031" fill="none" /><path id="4" transform="matrix(1 0 0 -1 0 824)" d="M304.8229 311.51697L396.0313 311.51697" stroke="#000000" stroke-width="1.0031" fill="none" /><path id="5" transform="matrix(1 0 0 -1 0 824)" d="M54 311.51678L54 290.45197" stroke="#000000" stroke-width="1.0031" fill="none" /><path id="6" transform="matrix(1 0 0 -1 0 824)" d="M54 311.51697L304.8229 311.51697" stroke="#000000" stroke-width="1.0031" fill="none" /><path id="7" transform="matrix(1 0 0 -1 0 824)" d="M505.896 501.1002L505.896 480.03528" stroke="#000000" stroke-width="1.0031" fill="none" /><path id="8" transform="matrix(1 0 0 -1 0 824)" d="M396.031 501.1002L396.031 480.03528" stroke="#000000" stroke-width="1.0031" fill="none" /><path id="9" transform="matrix(1 0 0 -1 0 824)" d="M396.0313 501.09998L505.8958 501.09998" stroke="#000000" stroke-width="1.0031" fill="none" /><path id="10" transform="matrix(1 0 0 -1 0 824)" d="M304.823 501.1002L304.823 480.03528" stroke="#000000" stroke-width="1.0031" fill="none" /><path id="11" transform="matrix(1 0 0 -1 0 824)" d="M304.8229 501.09998L396.0313 501.09998" stroke="#000000" stroke-width="1.0031" fill="none" /><path id="12" transform="matrix(1 0 0 -1 0 824)" d="M54 501.1002L54 480.03528" stroke="#000000" stroke-width="1.0031" fill="none" /><path id="13" transform="matrix(1 0 0 -1 0 824)" d="M54 501.09998L304.8229 501.09998" stroke="#000000" stroke-width="1.0031" fill="none" /><path id="14" transform="matrix(1 0 0 -1 0 824)" d="M505.896 672.628L505.896 651.5631" stroke="#000000" stroke-width="1.0031" fill="none" /><path id="15" transform="matrix(1 0 0 -1 0 824)" d="M396.0313 672.628L505.8958 672.628" stroke="#000000" stroke-width="1.0031" fill="none" /><path id="16" transform="matrix(1 0 0 -1 0 824)" d="M304.823 672.628L304.823 651.5631" stroke="#000000" stroke-width="1.0031" fill="none" /><path id="17" transform="matrix(1 0 0 -1 0 824)" d="M304.8229 672.628L396.0313 672.628" stroke="#000000" stroke-width="1.0031" fill="none" /><path id="18" transform="matrix(1 0 0 -1 0 824)" d="M54 672.628L54 651.5631" stroke="#000000" stroke-width="1.0031" fill="none" /><path id="19" transform="matrix(1 0 0 -1 0 824)" d="M54 672.628L304.8229 672.628" stroke="#000000" stroke-width="1.0031" fill="none" /><path id="20" transform="matrix(1 0 0 -1 0 824)" d="M396.031 206.19269L396.031 185.12787" stroke="#000000" stroke-width="1.0031" fill="none" /><path id="21" transform="matrix(1 0 0 -1 0 824)" d="M396.0313 206.193L505.8958 206.193" stroke="#000000" stroke-width="1.0031" fill="none" /><path id="22" transform="matrix(1 0 0 -1 0 824)" d="M304.823 206.19269L304.823 185.12787" stroke="#000000" stroke-width="1.0031" fill="none" /><path id="23" transform="matrix(1 0 0 -1 0 824)" d="M304.8229 206.193L396.0313 206.193" stroke="#000000" stroke-width="1.0031" fill="none" /><path id="24" transform="matrix(1 0 0 -1 0 824)" d="M54 206.19269L54 185.12787" stroke="#000000" stroke-width="1.0031" fill="none" /><path id="25" transform="matrix(1 0 0 -1 0 824)" d="M54 206.193L304.8229 206.193" stroke="#000000" stroke-width="1.0031" fill="none" /><path id="26" transform="matrix(1 0 0 -1 0 824)" d="M505.896 395.7761L505.896 374.71118" stroke="#000000" stroke-width="1.0031" fill="none" /><path id="27" transform="matrix(1 0 0 -1 0 824)" d="M396.031 395.7761L396.031 374.71118" stroke="#000000" stroke-width="1.0031" fill="none" /><path id="28" transform="matrix(1 0 0 -1 0 824)" d="M396.0313 395.77597L505.8958 395.77597" stroke="#000000" stroke-width="1.0031" fill="none" /><path id="29" transform="matrix(1 0 0 -1 0 824)" d="M304.823 395.7761L304.823 374.71118" stroke="#000000" stroke-width="1.0031" fill="none" /><path id="30" transform="matrix(1 0 0 -1 0 824)" d="M304.8229 395.77597L396.0313 395.77597" stroke="#000000" stroke-width="1.0031" fill="none" /><path id="31" transform="matrix(1 0 0 -1 0 824)" d="M54 395.7761L54 374.71118" stroke="#000000" stroke-width="1.0031" fill="none" /><path id="32" transform="matrix(1 0 0 -1 0 824)" d="M54 395.77597L304.8229 395.77597" stroke="#000000" stroke-width="1.0031" fill="none" /><path id="33" transform="matrix(1 0 0 -1 0 824)" d="M505.896 585.3594L505.896 564.29456" stroke="#000000" stroke-width="1.0031" fill="none" /><path id="34" transform="matrix(1 0 0 -1 0 824)" d="M396.031 585.3594L396.031 564.29456" stroke="#000000" stroke-width="1.0031" fill="none" /><path id="35" transform="matrix(1 0 0 -1 0 824)" d="M396.0313 585.359L505.8958 585.359" stroke="#000000" stroke-width="1.0031" fill="none" /><path id="36" transform="matrix(1 0 0 -1 0 824)" d="M304.823 585.3594L304.823 564.29456" stroke="#000000" stroke-width="1.0031" fill="none" /><path id="37" transform="matrix(1 0 0 -1 0 824)" d="M304.8229 585.359L396.0313 585.359" stroke="#000000" stroke-width="1.0031" fill="none" /><path id="38" transform="matrix(1 0 0 -1 0 824)" d="M54 585.3594L54 564.29456" stroke="#000000" stroke-width="1.0031" fill="none" /><path id="39" transform="matrix(1 0 0 -1 0 824)" d="M54 585.359L304.8229 585.359" stroke="#000000" stroke-width="1.0031" fill="none" /><path id="40" transform="matrix(1 0 0 -1 0 824)" d="M505.896 269.3872L505.896 248.32227" stroke="#000000" stroke-width="1.0031" fill="none" /><path id="41" transform="matrix(1 0 0 -1 0 824)" d="M505.896 290.45197L505.896 269.3872" stroke="#000000" stroke-width="1.0031" fill="none" /><path id="42" transform="matrix(1 0 0 -1 0 824)" d="M505.896 185.12787L505.896 164.06305" stroke="#000000" stroke-width="1.0031" fill="none" /><path id="43" transform="matrix(1 0 0 -1 0 824)" d="M396.031 290.45197L396.031 269.3872" stroke="#000000" stroke-width="1.0031" fill="none" /><path id="44" transform="matrix(1 0 0 -1 0 824)" d="M396.0313 290.45197L505.8958 290.45197" stroke="#000000" stroke-width="1.0031" fill="none" /><path id="45" transform="matrix(1 0 0 -1 0 824)" d="M304.823 290.45197L304.823 269.3872" stroke="#000000" stroke-width="1.0031" fill="none" /><path id="46" transform="matrix(1 0 0 -1 0 824)" d="M304.8229 290.45197L396.0313 290.45197" stroke="#000000" stroke-width="1.0031" fill="none" /><path id="47" transform="matrix(1 0 0 -1 0 824)" d="M54 290.45197L54 269.3872" stroke="#000000" stroke-width="1.0031" fill="none" /><path id="48" transform="matrix(1 0 0 -1 0 824)" d="M54 290.45197L304.8229 290.45197" stroke="#000000" stroke-width="1.0031" fill="none" /><path id="49" transform="matrix(1 0 0 -1 0 824)" d="M505.896 480.03528L505.896 458.9705" stroke="#000000" stroke-width="1.0031" fill="none" /><path id="50" transform="matrix(1 0 0 -1 0 824)" d="M396.031 480.03528L396.031 458.9705" stroke="#000000" stroke-width="1.0031" fill="none" /><path id="51" transform="matrix(1 0 0 -1 0 824)" d="M396.0313 480.03497L505.8958 480.03497" stroke="#000000" stroke-width="1.0031" fill="none" /><path id="52" transform="matrix(1 0 0 -1 0 824)" d="M304.823 480.03528L304.823 458.9705" stroke="#000000" stroke-width="1.0031" fill="none" /><path id="53" transform="matrix(1 0 0 -1 0 824)" d="M304.8229 480.03497L396.0313 480.03497" stroke="#000000" stroke-width="1.0031" fill="none" /><path id="54" transform="matrix(1 0 0 -1 0 824)" d="M54 480.03528L54 458.9705" stroke="#000000" stroke-width="1.0031" fill="none" /><path id="55" transform="matrix(1 0 0 -1 0 824)" d="M54 480.03497L304.8229 480.03497" stroke="#000000" stroke-width="1.0031" fill="none" /><path id="56" transform="matrix(1 0 0 -1 0 824)" d="M505.896 651.5631L505.896 630.4983" stroke="#000000" stroke-width="1.0031" fill="none" /><path id="57" transform="matrix(1 0 0 -1 0 824)" d="M396.0313 651.563L505.8958 651.563" stroke="#000000" stroke-width="1.0031" fill="none" /><path id="58" transform="matrix(1 0 0 -1 0 824)" d="M304.823 651.5631L304.823 630.4983" stroke="#000000" stroke-width="1.0031" fill="none" /><path id="59" transform="matrix(1 0 0 -1 0 824)" d="M304.8229 651.563L396.0313 651.563" stroke="#000000" stroke-width="1.0031" fill="none" /><path id="60" transform="matrix(1 0 0 -1 0 824)" d="M54 651.5631L54 630.4983" stroke="#000000" stroke-width="1.0031" fill="none" /><path id="61" transform="matrix(1 0 0 -1 0 824)" d="M54 651.563L304.8229 651.563" stroke="#000000" stroke-width="1.0031" fill="none" /><path id="62" transform="matrix(1 0 0 -1 0 824)" d="M396.031 185.12787L396.031 164.06305" stroke="#000000" stroke-width="1.0031" fill="none" /><path id="63" transform="matrix(1 0 0 -1 0 824)" d="M396.0313 185.12799L505.8958 185.12799" stroke="#000000" stroke-width="1.0031" fill="none" /><path id="64" transform="matrix(1 0 0 -1 0 824)" d="M304.823 185.12787L304.823 164.06305" stroke="#000000" stroke-width="1.0031" fill="none" /><path id="65" transform="matrix(1 0 0 -1 0 824)" d="M304.8229 185.12799L396.0313 185.12799" stroke="#000000" stroke-width="1.0031" fill="none" /><path id="66" transform="matrix(1 0 0 -1 0 824)" d="M54 185.12787L54 164.06305" stroke="#000000" stroke-width="1.0031" fill="none" /><path id="67" transform="matrix(1 0 0 -1 0 824)" d="M54 185.12799L304.8229 185.12799" stroke="#000000" stroke-width="1.0031" fill="none" /><path id="68" transform="matrix(1 0 0 -1 0 824)" d="M505.896 374.71118L505.896 353.6464" stroke="#000000" stroke-width="1.0031" fill="none" /><path id="69" transform="matrix(1 0 0 -1 0 824)" d="M396.031 374.71118L396.031 353.6464" stroke="#000000" stroke-width="1.0031" fill="none" /><path id="70" transform="matrix(1 0 0 -1 0 824)" d="M396.0313 374.71097L505.8958 374.71097" stroke="#000000" stroke-width="1.0031" fill="none" /><path id="71" transform="matrix(1 0 0 -1 0 824)" d="M304.823 374.71118L304.823 353.6464" stroke="#000000" stroke-width="1.0031" fill="none" /><path id="72" transform="matrix(1 0 0 -1 0 824)" d="M304.8229 374.71097L396.0313 374.71097" stroke="#000000" stroke-width="1.0031" fill="none" /><path id="73" transform="matrix(1 0 0 -1 0 824)" d="M54 374.71118L54 353.6464" stroke="#000000" stroke-width="1.0031" fill="none" /><path id="74" transform="matrix(1 0 0 -1 0 824)" d="M54 374.71097L304.8229 374.71097" stroke="#000000" stroke-width="1.0031" fill="none" /><path id="75" transform="matrix(1 0 0 -1 0 824)" d="M505.896 564.29456L505.896 543.2298" stroke="#000000" stroke-width="1.0031" fill="none" /><path id="76" transform="matrix(1 0 0 -1 0 824)" d="M396.031 564.29456L396.031 543.2298" stroke="#000000" stroke-width="1.0031" fill="none" /><path id="77" transform="matrix(1 0 0 -1 0 824)" d="M396.0313 564.295L505.8958 564.295" stroke="#000000" stroke-width="1.0031" fill="none" /><path id="78" transform="matrix(1 0 0 -1 0 824)" d="M304.823 564.29456L304.823 543.2298" stroke="#000000" stroke-width="1.0031" fill="none" /><path id="79" transform="matrix(1 0 0 -1 0 824)" d="M304.8229 564.295L396.0313 564.295" stroke="#000000" stroke-width="1.0031" fill="none" /><path id="80" transform="matrix(1 0 0 -1 0 824)" d="M54 564.29456L54 543.2298" stroke="#000000" stroke-width="1.0031" fill="none" /><path id="81" transform="matrix(1 0 0 -1 0 824)" d="M54 564.295L304.8229 564.295" stroke="#000000" stroke-width="1.0031" fill="none" /><path id="82" transform="matrix(1 0 0 -1 0 824)" d="M505.896 735.8224L505.896 714.75757" stroke="#000000" stroke-width="1.0031" fill="none" /><path id="83" transform="matrix(1 0 0 -1 0 824)" d="M396.0313 735.82196L505.8958 735.82196" stroke="#000000" stroke-width="1.0031" fill="none" /><path id="84" transform="matrix(1 0 0 -1 0 824)" d="M304.823 735.8224L304.823 714.75757" stroke="#000000" stroke-width="1.0031" fill="none" /><path id="85" transform="matrix(1 0 0 -1 0 824)" d="M304.8229 735.82196L396.0313 735.82196" stroke="#000000" stroke-width="1.0031" fill="none" /><path id="86" transform="matrix(1 0 0 -1 0 824)" d="M54 735.8224L54 714.75757" stroke="#000000" stroke-width="1.0031" fill="none" /><path id="87" transform="matrix(1 0 0 -1 0 824)" d="M54 735.82196L304.8229 735.82196" stroke="#000000" stroke-width="1.0031" fill="none" /><path id="88" transform="matrix(1 0 0 -1 0 824)" d="M396.031 269.3872L396.031 248.32227" stroke="#000000" stroke-width="1.0031" fill="none" /><path id="89" transform="matrix(1 0 0 -1 0 824)" d="M396.0313 269.38696L505.8958 269.38696" stroke="#000000" stroke-width="1.0031" fill="none" /><path id="90" transform="matrix(1 0 0 -1 0 824)" d="M304.823 269.3872L304.823 248.32227" stroke="#000000" stroke-width="1.0031" fill="none" /><path id="91" transform="matrix(1 0 0 -1 0 824)" d="M304.8229 269.38696L396.0313 269.38696" stroke="#000000" stroke-width="1.0031" fill="none" /><path id="92" transform="matrix(1 0 0 -1 0 824)" d="M54 269.3872L54 248.32227" stroke="#000000" stroke-width="1.0031" fill="none" /><path id="93" transform="matrix(1 0 0 -1 0 824)" d="M54 269.38696L304.8229 269.38696" stroke="#000000" stroke-width="1.0031" fill="none" /><path id="94" transform="matrix(1 0 0 -1 0 824)" d="M505.896 458.9705L505.896 437.90567" stroke="#000000" stroke-width="1.0031" fill="none" /><path id="95" transform="matrix(1 0 0 -1 0 824)" d="M396.031 458.9705L396.031 437.90567" stroke="#000000" stroke-width="1.0031" fill="none" /><path id="96" transform="matrix(1 0 0 -1 0 824)" d="M396.0313 458.97098L505.8958 458.97098" stroke="#000000" stroke-width="1.0031" fill="none" /><path id="97" transform="matrix(1 0 0 -1 0 824)" d="M304.823 458.9705L304.823 437.90567" stroke="#000000" stroke-width="1.0031" fill="none" /><path id="98" transform="matrix(1 0 0 -1 0 824)" d="M304.8229 458.97098L396.0313 458.97098" stroke="#000000" stroke-width="1.0031" fill="none" /><path id="99" transform="matrix(1 0 0 -1 0 824)" d="M54 458.9705L54 437.90567" stroke="#000000" stroke-width="1.0031" fill="none" /><path id="100" transform="matrix(1 0 0 -1 0 824)" d="M54 458.97098L304.8229 458.97098" stroke="#000000" stroke-width="1.0031" fill="none" /><path id="101" transform="matrix(1 0 0 -1 0 824)" d="M396.0313 630.498L505.8958 630.498" stroke="#000000" stroke-width="1.0031" fill="none" /><path id="102" transform="matrix(1 0 0 -1 0 824)" d="M304.8229 630.498L396.0313 630.498" stroke="#000000" stroke-width="1.0031" fill="none" /><path id="103" transform="matrix(1 0 0 -1 0 824)" d="M54 630.498L304.8229 630.498" stroke="#000000" stroke-width="1.0031" fill="none" /><path id="104" transform="matrix(1 0 0 -1 0 824)" d="M396.031 164.06305L396.031 142.99829" stroke="#000000" stroke-width="1.0031" fill="none" /><path id="105" transform="matrix(1 0 0 -1 0 824)" d="M396.0313 164.06299L505.8958 164.06299" stroke="#000000" stroke-width="1.0031" fill="none" /><path id="106" transform="matrix(1 0 0 -1 0 824)" d="M304.823 164.06305L304.823 142.99829" stroke="#000000" stroke-width="1.0031" fill="none" /><path id="107" transform="matrix(1 0 0 -1 0 824)" d="M304.8229 164.06299L396.0313 164.06299" stroke="#000000" stroke-width="1.0031" fill="none" /><path id="108" transform="matrix(1 0 0 -1 0 824)" d="M54 164.06305L54 142.99829" stroke="#000000" stroke-width="1.0031" fill="none" /><path id="109" transform="matrix(1 0 0 -1 0 824)" d="M54 164.06299L304.8229 164.06299" stroke="#000000" stroke-width="1.0031" fill="none" /><path id="110" transform="matrix(1 0 0 -1 0 824)" d="M505.896 248.32227L505.896 227.2575" stroke="#000000" stroke-width="1.0031" fill="none" /><path id="111" transform="matrix(1 0 0 -1 0 824)" d="M505.896 353.6464L505.896 332.58157" stroke="#000000" stroke-width="1.0031" fill="none" /><path id="112" transform="matrix(1 0 0 -1 0 824)" d="M396.031 353.6464L396.031 332.58157" stroke="#000000" stroke-width="1.0031" fill="none" /><path id="113" transform="matrix(1 0 0 -1 0 824)" d="M396.0313 353.64597L505.8958 353.64597" stroke="#000000" stroke-width="1.0031" fill="none" /><path id="114" transform="matrix(1 0 0 -1 0 824)" d="M304.823 353.6464L304.823 332.58157" stroke="#000000" stroke-width="1.0031" fill="none" /><path id="115" transform="matrix(1 0 0 -1 0 824)" d="M304.8229 353.64597L396.0313 353.64597" stroke="#000000" stroke-width="1.0031" fill="none" /><path id="116" transform="matrix(1 0 0 -1 0 824)" d="M54 353.6464L54 332.58157" stroke="#000000" stroke-width="1.0031" fill="none" /><path id="117" transform="matrix(1 0 0 -1 0 824)" d="M54 353.64597L304.8229 353.64597" stroke="#000000" stroke-width="1.0031" fill="none" /><path id="118" transform="matrix(1 0 0 -1 0 824)" d="M505.896 206.19269L505.896 185.12787" stroke="#000000" stroke-width="1.0031" fill="none" /><path id="119" transform="matrix(1 0 0 -1 0 824)" d="M505.896 543.2298L505.896 522.165" stroke="#000000" stroke-width="1.0031" fill="none" /><path id="120" transform="matrix(1 0 0 -1 0 824)" d="M396.031 543.2298L396.031 522.165" stroke="#000000" stroke-width="1.0031" fill="none" /><path id="121" transform="matrix(1 0 0 -1 0 824)" d="M396.0313 543.23L505.8958 543.23" stroke="#000000" stroke-width="1.0031" fill="none" /><path id="122" transform="matrix(1 0 0 -1 0 824)" d="M304.823 543.2298L304.823 522.165" stroke="#000000" stroke-width="1.0031" fill="none" /><path id="123" transform="matrix(1 0 0 -1 0 824)" d="M304.8229 543.23L396.0313 543.23" stroke="#000000" stroke-width="1.0031" fill="none" /><path id="124" transform="matrix(1 0 0 -1 0 824)" d="M54 543.2298L54 522.165" stroke="#000000" stroke-width="1.0031" fill="none" /><path id="125" transform="matrix(1 0 0 -1 0 824)" d="M54 543.23L304.8229 543.23" stroke="#000000" stroke-width="1.0031" fill="none" /><path id="126" transform="matrix(1 0 0 -1 0 824)" d="M505.896 714.75757L505.896 693.69275" stroke="#000000" stroke-width="1.0031" fill="none" /><path id="127" transform="matrix(1 0 0 -1 0 824)" d="M396.0313 714.758L505.8958 714.758" stroke="#000000" stroke-width="1.0031" fill="none" /><path id="128" transform="matrix(1 0 0 -1 0 824)" d="M304.823 714.75757L304.823 693.69275" stroke="#000000" stroke-width="1.0031" fill="none" /><path id="129" transform="matrix(1 0 0 -1 0 824)" d="M304.8229 714.758L396.0313 714.758" stroke="#000000" stroke-width="1.0031" fill="none" /><path id="130" transform="matrix(1 0 0 -1 0 824)" d="M54 714.75757L54 693.69275" stroke="#000000" stroke-width="1.0031" fill="none" /><path id="131" transform="matrix(1 0 0 -1 0 824)" d="M54 714.758L304.8229 714.758" stroke="#000000" stroke-width="1.0031" fill="none" /><path id="132" transform="matrix(1 0 0 -1 0 824)" d="M396.031 248.32227L396.031 227.2575" stroke="#000000" stroke-width="1.0031" fill="none" /><path id="133" transform="matrix(1 0 0 -1 0 824)" d="M396.0313 248.32196L505.8958 248.32196" stroke="#000000" stroke-width="1.0031" fill="none" /><path id="134" transform="matrix(1 0 0 -1 0 824)" d="M304.823 248.32227L304.823 227.2575" stroke="#000000" stroke-width="1.0031" fill="none" /><path id="135" transform="matrix(1 0 0 -1 0 824)" d="M304.8229 248.32196L396.0313 248.32196" stroke="#000000" stroke-width="1.0031" fill="none" /><path id="136" transform="matrix(1 0 0 -1 0 824)" d="M54 248.32227L54 227.2575" stroke="#000000" stroke-width="1.0031" fill="none" /><path id="137" transform="matrix(1 0 0 -1 0 824)" d="M54 248.32196L304.8229 248.32196" stroke="#000000" stroke-width="1.0031" fill="none" /><path id="138" transform="matrix(1 0 0 -1 0 824)" d="M505.896 437.90567L505.896 416.84088" stroke="#000000" stroke-width="1.0031" fill="none" /><path id="139" transform="matrix(1 0 0 -1 0 824)" d="M396.031 437.90567L396.031 416.84088" stroke="#000000" stroke-width="1.0031" fill="none" /><path id="140" transform="matrix(1 0 0 -1 0 824)" d="M396.0313 437.90598L505.8958 437.90598" stroke="#000000" stroke-width="1.0031" fill="none" /><path id="141" transform="matrix(1 0 0 -1 0 824)" d="M304.823 437.90567L304.823 416.84088" stroke="#000000" stroke-width="1.0031" fill="none" /><path id="142" transform="matrix(1 0 0 -1 0 824)" d="M304.8229 437.90598L396.0313 437.90598" stroke="#000000" stroke-width="1.0031" fill="none" /><path id="143" transform="matrix(1 0 0 -1 0 824)" d="M54 437.90567L54 416.84088" stroke="#000000" stroke-width="1.0031" fill="none" /><path id="144" transform="matrix(1 0 0 -1 0 824)" d="M54 437.90598L304.8229 437.90598" stroke="#000000" stroke-width="1.0031" fill="none" /><path id="145" transform="matrix(1 0 0 -1 0 824)" d="M505.896 627.4891L505.896 606.4242" stroke="#000000" stroke-width="1.0031" fill="none" /><path id="146" transform="matrix(1 0 0 -1 0 824)" d="M396.031 627.4891L396.031 606.4242" stroke="#000000" stroke-width="1.0031" fill="none" /><path id="147" transform="matrix(1 0 0 -1 0 824)" d="M396.0313 627.489L505.8958 627.489" stroke="#000000" stroke-width="1.0031" fill="none" /><path id="148" transform="matrix(1 0 0 -1 0 824)" d="M304.823 627.4891L304.823 606.4242" stroke="#000000" stroke-width="1.0031" fill="none" /><path id="149" transform="matrix(1 0 0 -1 0 824)" d="M304.8229 627.489L396.0313 627.489" stroke="#000000" stroke-width="1.0031" fill="none" /><path id="150" transform="matrix(1 0 0 -1 0 824)" d="M54 627.4891L54 606.4242" stroke="#000000" stroke-width="1.0031" fill="none" /><path id="151" transform="matrix(1 0 0 -1 0 824)" d="M54 627.489L304.8229 627.489" stroke="#000000" stroke-width="1.0031" fill="none" /><path id="152" transform="matrix(1 0 0 -1 0 824)" d="M396.031 142.99829L396.031 121.93335" stroke="#000000" stroke-width="1.0031" fill="none" /><path id="153" transform="matrix(1 0 0 -1 0 824)" d="M396.0313 142.99799L505.8958 142.99799" stroke="#000000" stroke-width="1.0031" fill="none" /><path id="154" transform="matrix(1 0 0 -1 0 824)" d="M304.8229 142.99799L396.0313 142.99799" stroke="#000000" stroke-width="1.0031" fill="none" /><path id="155" transform="matrix(1 0 0 -1 0 824)" d="M54 142.99829L54 121.93335" stroke="#000000" stroke-width="1.0031" fill="none" /><path id="156" transform="matrix(1 0 0 -1 0 824)" d="M54 142.99799L304.8229 142.99799" stroke="#000000" stroke-width="1.0031" fill="none" /><path id="157" transform="matrix(1 0 0 -1 0 824)" d="M505.896 332.58157L505.896 311.51678" stroke="#000000" stroke-width="1.0031" fill="none" /><path id="158" transform="matrix(1 0 0 -1 0 824)" d="M396.031 332.58157L396.031 311.51678" stroke="#000000" stroke-width="1.0031" fill="none" /><path id="159" transform="matrix(1 0 0 -1 0 824)" d="M396.0313 332.58197L505.8958 332.58197" stroke="#000000" stroke-width="1.0031" fill="none" /><path id="160" transform="matrix(1 0 0 -1 0 824)" d="M304.823 332.58157L304.823 311.51678" stroke="#000000" stroke-width="1.0031" fill="none" /><path id="161" transform="matrix(1 0 0 -1 0 824)" d="M304.8229 332.58197L396.0313 332.58197" stroke="#000000" stroke-width="1.0031" fill="none" /><path id="162" transform="matrix(1 0 0 -1 0 824)" d="M54 332.58157L54 311.51678" stroke="#000000" stroke-width="1.0031" fill="none" /><path id="163" transform="matrix(1 0 0 -1 0 824)" d="M54 332.58197L304.8229 332.58197" stroke="#000000" stroke-width="1.0031" fill="none" /><path id="164" transform="matrix(1 0 0 -1 0 824)" d="M505.896 522.165L505.896 501.1002" stroke="#000000" stroke-width="1.0031" fill="none" /><path id="165" transform="matrix(1 0 0 -1 0 824)" d="M396.031 522.165L396.031 501.1002" stroke="#000000" stroke-width="1.0031" fill="none" /><path id="166" transform="matrix(1 0 0 -1 0 824)" d="M396.0313 522.165L505.8958 522.165" stroke="#000000" stroke-width="1.0031" fill="none" /><path id="167" transform="matrix(1 0 0 -1 0 824)" d="M304.823 522.165L304.823 501.1002" stroke="#000000" stroke-width="1.0031" fill="none" /><path id="168" transform="matrix(1 0 0 -1 0 824)" d="M304.8229 522.165L396.0313 522.165" stroke="#000000" stroke-width="1.0031" fill="none" /><path id="169" transform="matrix(1 0 0 -1 0 824)" d="M54 522.165L54 501.1002" stroke="#000000" stroke-width="1.0031" fill="none" /><path id="170" transform="matrix(1 0 0 -1 0 824)" d="M54 522.165L304.8229 522.165" stroke="#000000" stroke-width="1.0031" fill="none" /><path id="171" transform="matrix(1 0 0 -1 0 824)" d="M505.896 693.69275L505.896 672.628" stroke="#000000" stroke-width="1.0031" fill="none" /><path id="172" transform="matrix(1 0 0 -1 0 824)" d="M396.0313 693.693L505.8958 693.693" stroke="#000000" stroke-width="1.0031" fill="none" /><path id="173" transform="matrix(1 0 0 -1 0 824)" d="M304.823 693.69275L304.823 672.628" stroke="#000000" stroke-width="1.0031" fill="none" /><path id="174" transform="matrix(1 0 0 -1 0 824)" d="M304.8229 693.693L396.0313 693.693" stroke="#000000" stroke-width="1.0031" fill="none" /><path id="175" transform="matrix(1 0 0 -1 0 824)" d="M54 693.69275L54 672.628" stroke="#000000" stroke-width="1.0031" fill="none" /><path id="176" transform="matrix(1 0 0 -1 0 824)" d="M54 693.693L304.8229 693.693" stroke="#000000" stroke-width="1.0031" fill="none" /><path id="177" transform="matrix(1 0 0 -1 0 824)" d="M396.031 227.2575L396.031 206.19269" stroke="#000000" stroke-width="1.0031" fill="none" /><path id="178" transform="matrix(1 0 0 -1 0 824)" d="M396.0313 227.258L505.8958 227.258" stroke="#000000" stroke-width="1.0031" fill="none" /><path id="179" transform="matrix(1 0 0 -1 0 824)" d="M304.823 227.2575L304.823 206.19269" stroke="#000000" stroke-width="1.0031" fill="none" /><path id="180" transform="matrix(1 0 0 -1 0 824)" d="M304.8229 227.258L396.0313 227.258" stroke="#000000" stroke-width="1.0031" fill="none" /><path id="181" transform="matrix(1 0 0 -1 0 824)" d="M54 227.2575L54 206.19269" stroke="#000000" stroke-width="1.0031" fill="none" /><path id="182" transform="matrix(1 0 0 -1 0 824)" d="M54 227.258L304.8229 227.258" stroke="#000000" stroke-width="1.0031" fill="none" /><path id="183" transform="matrix(1 0 0 -1 0 824)" d="M505.896 142.99829L505.896 121.93335" stroke="#000000" stroke-width="1.0031" fill="none" /><path id="184" transform="matrix(1 0 0 -1 0 824)" d="M505.896 227.2575L505.896 206.19269" stroke="#000000" stroke-width="1.0031" fill="none" /><path id="185" transform="matrix(1 0 0 -1 0 824)" d="M505.896 416.84088L505.896 395.7761" stroke="#000000" stroke-width="1.0031" fill="none" /><path id="186" transform="matrix(1 0 0 -1 0 824)" d="M396.031 416.84088L396.031 395.7761" stroke="#000000" stroke-width="1.0031" fill="none" /><path id="187" transform="matrix(1 0 0 -1 0 824)" d="M396.0313 416.84097L505.8958 416.84097" stroke="#000000" stroke-width="1.0031" fill="none" /><path id="188" transform="matrix(1 0 0 -1 0 824)" d="M304.823 416.84088L304.823 395.7761" stroke="#000000" stroke-width="1.0031" fill="none" /><path id="189" transform="matrix(1 0 0 -1 0 824)" d="M304.8229 416.84097L396.0313 416.84097" stroke="#000000" stroke-width="1.0031" fill="none" /><path id="190" transform="matrix(1 0 0 -1 0 824)" d="M54 416.84088L54 395.7761" stroke="#000000" stroke-width="1.0031" fill="none" /><path id="191" transform="matrix(1 0 0 -1 0 824)" d="M54 416.84097L304.8229 416.84097" stroke="#000000" stroke-width="1.0031" fill="none" /><path id="192" transform="matrix(1 0 0 -1 0 824)" d="M505.896 606.4242L505.896 585.3594" stroke="#000000" stroke-width="1.0031" fill="none" /><path id="193" transform="matrix(1 0 0 -1 0 824)" d="M396.031 606.4242L396.031 585.3594" stroke="#000000" stroke-width="1.0031" fill="none" /><path id="194" transform="matrix(1 0 0 -1 0 824)" d="M396.0313 606.42395L505.8958 606.42395" stroke="#000000" stroke-width="1.0031" fill="none" /><path id="195" transform="matrix(1 0 0 -1 0 824)" d="M304.823 606.4242L304.823 585.3594" stroke="#000000" stroke-width="1.0031" fill="none" /><path id="196" transform="matrix(1 0 0 -1 0 824)" d="M304.8229 606.42395L396.0313 606.42395" stroke="#000000" stroke-width="1.0031" fill="none" /><path id="197" transform="matrix(1 0 0 -1 0 824)" d="M54 606.4242L54 585.3594" stroke="#000000" stroke-width="1.0031" fill="none" /><path id="198" transform="matrix(1 0 0 -1 0 824)" d="M54 606.42395L304.8229 606.42395" stroke="#000000" stroke-width="1.0031" fill="none" /><path id="199" transform="matrix(1 0 0 -1 0 824)" d="M505.896 164.06305L505.896 142.99829" stroke="#000000" stroke-width="1.0031" fill="none" /><path id="200" transform="matrix(1 0 0 -1 0 824)" d="M396.0313 121.93298L505.8958 121.93298" stroke="#000000" stroke-width="1.0031" fill="none" /><path id="201" transform="matrix(1 0 0 -1 0 824)" d="M304.8229 121.93298L396.0313 121.93298" stroke="#000000" stroke-width="1.0031" fill="none" /><path id="202" transform="matrix(1 0 0 -1 0 824)" d="M54 121.93298L304.8229 121.93298" stroke="#000000" stroke-width="1.0031" fill="none" /><path id="203" transform="matrix(1 0 0 -1 0 824)" d="M505.896 311.51678L505.896 290.45197" stroke="#000000" stroke-width="1.0031" fill="none" /></g><g clip-path="url(#4)"><g clip-path="url(#5)"></g><g clip-path="url(#6)"></g><g clip-path="url(#7)"></g><g clip-path="url(#8)"></g><g clip-path="url(#9)"></g><g clip-path="url(#10)"></g><g clip-path="url(#11)"></g><g clip-path="url(#12)"></g><g clip-path="url(#13)"></g><g clip-path="url(#14)"></g><g clip-path="url(#15)"></g><g clip-path="url(#16)"></g><g clip-path="url(#17)"></g><g clip-path="url(#18)"></g><g clip-path="url(#19)"></g><g clip-path="url(#20)"></g><g clip-path="url(#21)"></g><g clip-path="url(#22)"></g><g clip-path="url(#23)"></g><g clip-path="url(#24)"></g><g clip-path="url(#25)"></g><g clip-path="url(#26)"></g><g clip-path="url(#27)"></g></g><g clip-path="url(#28)"></g></g></g></svg>