<svg xmlns="http://www.w3.org/2000/svg" xmlns:xlink="http://www.w3.org/1999/xlink" id="body_1" preserveAspectRatio="xMinYMin meet" viewBox="0 0 788 515"><defs><clipPath id="1"><path id="" clip-rule="evenodd" transform="matrix(1 0 0 1 0 0)" d="M0 386L0 -0.99920654L0 -0.99920654L591.3213 -0.99920654L591.3213 -0.99920654L591.3213 386L591.3213 386L0 386z" /></clipPath><clipPath id="2"><path id="" clip-rule="evenodd" transform="matrix(1 0 0 1 0 0)" d="M53.5 70.50079L538.5 70.50079L538.5 70.50079L538.5 314.5008L538.5 314.5008L53.5 314.5008z" /></clipPath><clipPath id="3"><path id="" clip-rule="evenodd" transform="matrix(1 0 0 1 0 0)" d="M53.5 69.6918L538.5 69.6918L538.5 69.6918L538.5 315.69177L538.5 315.69177L53.5 315.69177z" /></clipPath><clipPath id="4"><path id="" clip-rule="evenodd" transform="matrix(1 0 0 1 0 0)" d="M53.5 70.50079L538.5 70.50079L538.5 70.50079L538.5 314.5008L538.5 314.5008L53.5 314.5008z" /></clipPath><clipPath id="5"><path id="" clip-rule="evenodd" transform="matrix(1 0 0 1 0 0)" d="M54.25 71.25079L537.0713 71.25079L537.0713 71.25079L537.0713 92.52429L537.0713 92.52429L54.25 92.52429z" /></clipPath><clipPath id="6"><path id="" clip-rule="evenodd" transform="matrix(1 0 0 1 0 0)" d="M54.25 107.947205L189.0078 107.947205L189.0078 107.947205L189.0078 135.46039L189.0078 135.46039L54.25 135.46039z" /></clipPath><clipPath id="7"><path id="" clip-rule="evenodd" transform="matrix(1 0 0 1 0 0)" d="M311.5404 107.947205L422.8536 107.947205L422.8536 107.947205L422.8536 135.46039L422.8536 135.46039L311.5404 135.46039z" /></clipPath><clipPath id="8"><path id="" clip-rule="evenodd" transform="matrix(1 0 0 1 0 0)" d="M54.25 135.96039L189.0078 135.96039L189.0078 135.96039L189.0078 163.4736L189.0078 163.4736L54.25 163.4736z" /></clipPath><clipPath id="9"><path id="" clip-rule="evenodd" transform="matrix(1 0 0 1 0 0)" d="M311.5404 135.96039L422.8536 135.96039L422.8536 135.96039L422.8536 163.4736L422.8536 163.4736L311.5404 163.4736z" /></clipPath><clipPath id="10"><path id="" clip-rule="evenodd" transform="matrix(1 0 0 1 0 0)" d="M54.25 163.9736L189.0078 163.9736L189.0078 163.9736L189.0078 191.48679L189.0078 191.48679L54.25 191.48679z" /></clipPath><clipPath id="11"><path id="" clip-rule="evenodd" transform="matrix(1 0 0 1 0 0)" d="M311.5404 163.9736L422.8536 163.9736L422.8536 163.9736L422.8536 191.48679L422.8536 191.48679L311.5404 191.48679z" /></clipPath><clipPath id="12"><path id="" clip-rule="evenodd" transform="matrix(1 0 0 1 0 0)" d="M54.25 191.98679L189.0078 191.98679L189.0078 191.98679L189.0078 219.5L189.0078 219.5L54.25 219.5z" /></clipPath><clipPath id="13"><path id="" clip-rule="evenodd" transform="matrix(1 0 0 1 0 0)" d="M54.25 220L189.0078 220L189.0078 220L189.0078 250.91669L189.0078 250.91669L54.25 250.91669z" /></clipPath><clipPath id="14"><path id="" clip-rule="evenodd" transform="matrix(1 0 0 1 0 0)" d="M189.5078 220L311.0404 220L311.0404 220L311.0404 250.91669L311.0404 250.91669L189.5078 250.91669z" /></clipPath><clipPath id="15"><path id="" clip-rule="evenodd" transform="matrix(1 0 0 1 0 0)" d="M423.3535 220L537.0713 220L537.0713 220L537.0713 250.91669L537.0713 250.91669L423.3535 250.91669z" /></clipPath><clipPath id="16"><path id="" clip-rule="evenodd" transform="matrix(1 0 0 1 0 0)" d="M54.25 251.41669L189.0078 251.41669L189.0078 251.41669L189.0078 282.3333L189.0078 282.3333L54.25 282.3333z" /></clipPath><clipPath id="17"><path id="" clip-rule="evenodd" transform="matrix(1 0 0 1 0 0)" d="M189.5078 251.41669L311.0404 251.41669L311.0404 251.41669L311.0404 282.3333L311.0404 282.3333L189.5078 282.3333z" /></clipPath><clipPath id="18"><path id="" clip-rule="evenodd" transform="matrix(1 0 0 1 0 0)" d="M423.3535 251.41669L537.0713 251.41669L537.0713 251.41669L537.0713 282.3333L537.0713 282.3333L423.3535 282.3333z" /></clipPath><clipPath id="19"><path id="" clip-rule="evenodd" transform="matrix(1 0 0 1 0 0)" d="M53.5 70.50079L538.5 70.50079L538.5 70.50079L538.5 314.5008L538.5 314.5008L53.5 314.5008z" /></clipPath></defs><g transform="matrix(1.3333334 0 0 1.3333333 0 0)"><g clip-path="url(#1)"><g clip-path="url(#2)"><path id="1" transform="matrix(1 0 0 -1 0 386)" d="M54 314.9992L537.3213 314.9992L537.3213 314.9992L537.3213 293.2257L537.3213 293.2257L54 293.2257z" stroke="none" fill="#FFFFFF" fill-rule="evenodd" /><path id="2" transform="matrix(1 0 0 -1 0 386)" d="M54 293.2257L189.2578 293.2257L189.2578 293.2257L189.2578 278.3028L189.2578 278.3028L54 278.3028z" stroke="none" fill="#FFFFFF" fill-rule="evenodd" /><path id="3" transform="matrix(1 0 0 -1 0 386)" d="M189.2578 293.2257L311.2904 293.2257L311.2904 293.2257L311.2904 278.3028L311.2904 278.3028L189.2578 278.3028z" stroke="none" fill="#FFFFFF" fill-rule="evenodd" /><path id="4" transform="matrix(1 0 0 -1 0 386)" d="M311.2904 293.2257L423.1036 293.2257L423.1036 293.2257L423.1036 278.3028L423.1036 278.3028L311.2904 278.3028z" stroke="none" fill="#FFFFFF" fill-rule="evenodd" /><path id="5" transform="matrix(1 0 0 -1 0 386)" d="M423.1035 293.2257L537.3213 293.2257L537.3213 293.2257L537.3213 278.3028L537.3213 278.3028L423.1035 278.3028z" stroke="none" fill="#FFFFFF" fill-rule="evenodd" /><path id="6" transform="matrix(1 0 0 -1 0 386)" d="M54 278.3028L189.2578 278.3028L189.2578 278.3028L189.2578 250.28961L189.2578 250.28961L54 250.28961z" stroke="none" fill="#FFFFFF" fill-rule="evenodd" /><path id="7" transform="matrix(1 0 0 -1 0 386)" d="M189.2578 278.3028L311.2904 278.3028L311.2904 278.3028L311.2904 250.28961L311.2904 250.28961L189.2578 250.28961z" stroke="none" fill="#FFFFFF" fill-rule="evenodd" /><path id="8" transform="matrix(1 0 0 -1 0 386)" d="M311.2904 278.3028L423.1036 278.3028L423.1036 278.3028L423.1036 250.28961L423.1036 250.28961L311.2904 250.28961z" stroke="none" fill="#FFFFFF" fill-rule="evenodd" /><path id="9" transform="matrix(1 0 0 -1 0 386)" d="M423.1035 278.3028L537.3213 278.3028L537.3213 278.3028L537.3213 250.28961L537.3213 250.28961L423.1035 250.28961z" stroke="none" fill="#FFFFFF" fill-rule="evenodd" /><path id="10" transform="matrix(1 0 0 -1 0 386)" d="M54 250.28961L189.2578 250.28961L189.2578 250.28961L189.2578 222.2764L189.2578 222.2764L54 222.2764z" stroke="none" fill="#FFFFFF" fill-rule="evenodd" /><path id="11" transform="matrix(1 0 0 -1 0 386)" d="M189.2578 250.28961L311.2904 250.28961L311.2904 250.28961L311.2904 222.2764L311.2904 222.2764L189.2578 222.2764z" stroke="none" fill="#FFFFFF" fill-rule="evenodd" /><path id="12" transform="matrix(1 0 0 -1 0 386)" d="M311.2904 250.28961L423.1036 250.28961L423.1036 250.28961L423.1036 222.2764L423.1036 222.2764L311.2904 222.2764z" stroke="none" fill="#FFFFFF" fill-rule="evenodd" /><path id="13" transform="matrix(1 0 0 -1 0 386)" d="M423.1035 250.28961L537.3213 250.28961L537.3213 250.28961L537.3213 222.2764L537.3213 222.2764L423.1035 222.2764z" stroke="none" fill="#FFFFFF" fill-rule="evenodd" /><path id="14" transform="matrix(1 0 0 -1 0 386)" d="M54 222.2764L189.2578 222.2764L189.2578 222.2764L189.2578 194.26321L189.2578 194.26321L54 194.26321z" stroke="none" fill="#FFFFFF" fill-rule="evenodd" /><path id="15" transform="matrix(1 0 0 -1 0 386)" d="M189.2578 222.2764L311.2904 222.2764L311.2904 222.2764L311.2904 194.26321L311.2904 194.26321L189.2578 194.26321z" stroke="none" fill="#FFFFFF" fill-rule="evenodd" /><path id="16" transform="matrix(1 0 0 -1 0 386)" d="M311.2904 222.2764L423.1036 222.2764L423.1036 222.2764L423.1036 194.26321L423.1036 194.26321L311.2904 194.26321z" stroke="none" fill="#FFFFFF" fill-rule="evenodd" /><path id="17" transform="matrix(1 0 0 -1 0 386)" d="M423.1035 222.2764L537.3213 222.2764L537.3213 222.2764L537.3213 194.26321L537.3213 194.26321L423.1035 194.26321z" stroke="none" fill="#FFFFFF" fill-rule="evenodd" /><path id="18" transform="matrix(1 0 0 -1 0 386)" d="M54 194.26321L189.2578 194.26321L189.2578 194.26321L189.2578 166.25L189.2578 166.25L54 166.25z" stroke="none" fill="#FFFFFF" fill-rule="evenodd" /><path id="19" transform="matrix(1 0 0 -1 0 386)" d="M189.2578 194.26321L537.3213 194.26321L537.3213 194.26321L537.3213 166.25L537.3213 166.25L189.2578 166.25z" stroke="none" fill="#FFFFFF" fill-rule="evenodd" /><path id="20" transform="matrix(1 0 0 -1 0 386)" d="M54 166.25L189.2578 166.25L189.2578 166.25L189.2578 134.83331L189.2578 134.83331L54 134.83331z" stroke="none" fill="#FFFFFF" fill-rule="evenodd" /><path id="21" transform="matrix(1 0 0 -1 0 386)" d="M189.2578 166.25L311.2904 166.25L311.2904 166.25L311.2904 134.83331L311.2904 134.83331L189.2578 134.83331z" stroke="none" fill="#FFFFFF" fill-rule="evenodd" /><path id="22" transform="matrix(1 0 0 -1 0 386)" d="M311.2904 166.25L423.1036 166.25L423.1036 166.25L423.1036 134.83331L423.1036 134.83331L311.2904 134.83331z" stroke="none" fill="#FFFFFF" fill-rule="evenodd" /><path id="23" transform="matrix(1 0 0 -1 0 386)" d="M423.1035 166.25L537.3213 166.25L537.3213 166.25L537.3213 134.83331L537.3213 134.83331L423.1035 134.83331z" stroke="none" fill="#FFFFFF" fill-rule="evenodd" /><path id="24" transform="matrix(1 0 0 -1 0 386)" d="M54 134.83331L189.2578 134.83331L189.2578 134.83331L189.2578 103.4167L189.2578 103.4167L54 103.4167z" stroke="none" fill="#FFFFFF" fill-rule="evenodd" /><path id="25" transform="matrix(1 0 0 -1 0 386)" d="M189.2578 134.83331L311.2904 134.83331L311.2904 134.83331L311.2904 103.4167L311.2904 103.4167L189.2578 103.4167z" stroke="none" fill="#FFFFFF" fill-rule="evenodd" /><path id="26" transform="matrix(1 0 0 -1 0 386)" d="M311.2904 134.83331L423.1036 134.83331L423.1036 134.83331L423.1036 103.4167L423.1036 103.4167L311.2904 103.4167z" stroke="none" fill="#FFFFFF" fill-rule="evenodd" /><path id="27" transform="matrix(1 0 0 -1 0 386)" d="M423.1035 134.83331L537.3213 134.83331L537.3213 134.83331L537.3213 103.4167L537.3213 103.4167L423.1035 103.4167z" stroke="none" fill="#FFFFFF" fill-rule="evenodd" /></g><g clip-path="url(#3)"><path id="28" transform="matrix(1 0 0 -1 0 386)" d="M423.1035 278.30322L537.3213 278.30322" stroke="#000000" stroke-width="0.8727" fill="none" /><path id="29" transform="matrix(1 0 0 -1 0 386)" d="M311.2904 166.25021L423.1035 166.25021" stroke="#000000" stroke-width="0.8727" fill="none" /><path id="30" transform="matrix(1 0 0 -1 0 386)" d="M189.258 194.26321L189.258 166.25" stroke="#000000" stroke-width="0.8727" fill="none" /><path id="31" transform="matrix(1 0 0 -1 0 386)" d="M311.29 278.3028L311.29 250.28961" stroke="#000000" stroke-width="0.8727" fill="none" /><path id="32" transform="matrix(1 0 0 -1 0 386)" d="M311.2904 194.26321L423.1036 194.26321" stroke="#000000" stroke-width="0.8727" fill="none" /><path id="33" transform="matrix(1 0 0 -1 0 386)" d="M423.1035 194.26321L537.3213 194.26321" stroke="#000000" stroke-width="0.8727" fill="none" /><path id="34" transform="matrix(1 0 0 -1 0 386)" d="M311.2904 278.30322L423.1036 278.30322" stroke="#000000" stroke-width="0.8727" fill="none" /><path id="35" transform="matrix(1 0 0 -1 0 386)" d="M537.32104 194.26321L537.32104 166.25" stroke="#000000" stroke-width="0.8727" fill="none" /><path id="36" transform="matrix(1 0 0 -1 0 386)" d="M189.258 222.2764L189.258 194.26321" stroke="#000000" stroke-width="0.8727" fill="none" /><path id="37" transform="matrix(1 0 0 -1 0 386)" d="M189.2578 194.26321L311.2904 194.26321" stroke="#000000" stroke-width="0.8727" fill="none" /><path id="38" transform="matrix(1 0 0 -1 0 386)" d="M537.32104 222.2764L537.32104 194.26321" stroke="#000000" stroke-width="0.8727" fill="none" /><path id="39" transform="matrix(1 0 0 -1 0 386)" d="M189.2578 166.25021L311.2904 166.25021" stroke="#000000" stroke-width="0.8727" fill="none" /><path id="40" transform="matrix(1 0 0 -1 0 386)" d="M537.32104 250.28961L537.32104 222.2764" stroke="#000000" stroke-width="0.8727" fill="none" /><path id="41" transform="matrix(1 0 0 -1 0 386)" d="M423.104 250.28961L423.104 222.2764" stroke="#000000" stroke-width="0.8727" fill="none" /><path id="42" transform="matrix(1 0 0 -1 0 386)" d="M423.1035 250.28922L537.3213 250.28922" stroke="#000000" stroke-width="0.8727" fill="none" /><path id="43" transform="matrix(1 0 0 -1 0 386)" d="M311.29 250.28961L311.29 222.2764" stroke="#000000" stroke-width="0.8727" fill="none" /><path id="44" transform="matrix(1 0 0 -1 0 386)" d="M311.2904 250.28922L423.1036 250.28922" stroke="#000000" stroke-width="0.8727" fill="none" /><path id="45" transform="matrix(1 0 0 -1 0 386)" d="M189.258 250.28961L189.258 222.2764" stroke="#000000" stroke-width="0.8727" fill="none" /><path id="46" transform="matrix(1 0 0 -1 0 386)" d="M189.2578 250.28922L311.2904 250.28922" stroke="#000000" stroke-width="0.8727" fill="none" /><path id="47" transform="matrix(1 0 0 -1 0 386)" d="M54 250.28961L54 222.2764" stroke="#000000" stroke-width="0.8727" fill="none" /><path id="48" transform="matrix(1 0 0 -1 0 386)" d="M54 250.28922L189.2578 250.28922" stroke="#000000" stroke-width="0.8727" fill="none" /><path id="49" transform="matrix(1 0 0 -1 0 386)" d="M189.2578 278.30322L311.2904 278.30322" stroke="#000000" stroke-width="0.8727" fill="none" /><path id="50" transform="matrix(1 0 0 -1 0 386)" d="M54 194.26321L54 166.25" stroke="#000000" stroke-width="0.8727" fill="none" /><path id="51" transform="matrix(1 0 0 -1 0 386)" d="M54 222.2764L54 194.26321" stroke="#000000" stroke-width="0.8727" fill="none" /><path id="52" transform="matrix(1 0 0 -1 0 386)" d="M54 166.25021L189.2578 166.25021" stroke="#000000" stroke-width="0.8727" fill="none" /><path id="53" transform="matrix(1 0 0 -1 0 386)" d="M423.1035 166.25021L537.32117 166.25021" stroke="#000000" stroke-width="0.8727" fill="none" /><path id="54" transform="matrix(1 0 0 -1 0 386)" d="M54 194.26321L189.2578 194.26321" stroke="#000000" stroke-width="0.8727" fill="none" /><path id="55" transform="matrix(1 0 0 -1 0 386)" d="M423.104 278.3028L423.104 250.28961" stroke="#000000" stroke-width="0.8727" fill="none" /><path id="56" transform="matrix(1 0 0 -1 0 386)" d="M54 222.27621L189.2578 222.27621" stroke="#000000" stroke-width="0.8727" fill="none" /><path id="57" transform="matrix(1 0 0 -1 0 386)" d="M189.258 278.3028L189.258 250.28961" stroke="#000000" stroke-width="0.8727" fill="none" /><path id="58" transform="matrix(1 0 0 -1 0 386)" d="M537.32104 278.3028L537.32104 250.28961" stroke="#000000" stroke-width="0.8727" fill="none" /><path id="59" transform="matrix(1 0 0 -1 0 386)" d="M423.104 222.2764L423.104 194.26321" stroke="#000000" stroke-width="0.8727" fill="none" /><path id="60" transform="matrix(1 0 0 -1 0 386)" d="M423.1035 222.27621L537.3213 222.27621" stroke="#000000" stroke-width="0.8727" fill="none" /><path id="61" transform="matrix(1 0 0 -1 0 386)" d="M311.2904 222.27621L423.1036 222.27621" stroke="#000000" stroke-width="0.8727" fill="none" /><path id="62" transform="matrix(1 0 0 -1 0 386)" d="M189.2578 222.27621L311.2904 222.27621" stroke="#000000" stroke-width="0.8727" fill="none" /><path id="63" transform="matrix(1 0 0 -1 0 386)" d="M54 278.3028L54 250.28961" stroke="#000000" stroke-width="0.8727" fill="none" /><path id="64" transform="matrix(1 0 0 -1 0 386)" d="M54 278.30322L189.2578 278.30322" stroke="#000000" stroke-width="0.8727" fill="none" /><path id="65" transform="matrix(1 0 0 -1 0 386)" d="M311.29 222.2764L311.29 194.26321" stroke="#000000" stroke-width="0.8727" fill="none" /></g><g clip-path="url(#4)"><g clip-path="url(#5)"></g><g clip-path="url(#6)"></g><g clip-path="url(#7)"></g><g clip-path="url(#8)"></g><g clip-path="url(#9)"></g><g clip-path="url(#10)"></g><g clip-path="url(#11)"></g><g clip-path="url(#12)"></g><g clip-path="url(#13)"></g><g clip-path="url(#14)"></g><g clip-path="url(#15)"></g><g clip-path="url(#16)"></g><g clip-path="url(#17)"></g><g clip-path="url(#18)"></g></g><g clip-path="url(#19)"></g></g></g></svg>