<svg xmlns="http://www.w3.org/2000/svg" xmlns:xlink="http://www.w3.org/1999/xlink" id="body_1" preserveAspectRatio="xMinYMin meet" viewBox="0 0 767 564"><defs><clipPath id="1"><path id="" clip-rule="evenodd" transform="matrix(1 0 0 1 0 0)" d="M0 423L0 -0.6532898L0 -0.6532898L575.5979 -0.6532898L575.5979 -0.6532898L575.5979 423L575.5979 423L0 423z" /></clipPath><clipPath id="2"><path id="" clip-rule="evenodd" transform="matrix(1 0 0 1 0 0)" d="M49.95 29.996735L525.95 29.996735L525.95 29.996735L525.95 389.99673L525.95 389.99673L49.95 389.99673z" /></clipPath><clipPath id="3"><path id="" clip-rule="evenodd" transform="matrix(1 0 0 1 0 0)" d="M49.95 28.992126L525.95 28.992126L525.95 28.992126L525.95 390.99213L525.95 390.99213L49.95 390.99213z" /></clipPath><clipPath id="4"><path id="" clip-rule="evenodd" transform="matrix(1 0 0 1 0 0)" d="M49.95 29.996735L525.95 29.996735L525.95 29.996735L525.95 389.99673L525.95 389.99673L49.95 389.99673z" /></clipPath><clipPath id="5"><path id="" clip-rule="evenodd" transform="matrix(1 0 0 1 0 0)" d="M50.7 30.746735L524.8979 30.746735L524.8979 30.746735L524.8979 80.50134L524.8979 80.50134L50.7 80.50134z" /></clipPath><clipPath id="6"><path id="" clip-rule="evenodd" transform="matrix(1 0 0 1 0 0)" d="M50.7 81.00134L524.8979 81.00134L524.8979 81.00134L524.8979 97.654144L524.8979 97.654144L50.7 97.654144z" /></clipPath><clipPath id="7"><path id="" clip-rule="evenodd" transform="matrix(1 0 0 1 0 0)" d="M395.49512 98.154144L524.8979 98.154144L524.8979 98.154144L524.8979 116.462036L524.8979 116.462036L395.49512 116.462036z" /></clipPath><clipPath id="8"><path id="" clip-rule="evenodd" transform="matrix(1 0 0 1 0 0)" d="M50.7 116.962036L265.0924 116.962036L265.0924 116.962036L265.0924 143.54535L265.0924 143.54535L50.7 143.54535z" /></clipPath><clipPath id="9"><path id="" clip-rule="evenodd" transform="matrix(1 0 0 1 0 0)" d="M265.5924 116.962036L524.8979 116.962036L524.8979 116.962036L524.8979 143.54535L524.8979 143.54535L265.5924 143.54535z" /></clipPath><clipPath id="10"><path id="" clip-rule="evenodd" transform="matrix(1 0 0 1 0 0)" d="M50.7 144.04535L394.99512 144.04535L394.99512 144.04535L394.99512 170.62863L394.99512 170.62863L50.7 170.62863z" /></clipPath><clipPath id="11"><path id="" clip-rule="evenodd" transform="matrix(1 0 0 1 0 0)" d="M50.7 171.12863L99.95 171.12863L99.95 171.12863L99.95 197.71204L99.95 197.71204L50.7 197.71204z" /></clipPath><clipPath id="12"><path id="" clip-rule="evenodd" transform="matrix(1 0 0 1 0 0)" d="M100.45 171.12863L524.8979 171.12863L524.8979 171.12863L524.8979 224.79533L524.8979 224.79533L100.45 224.79533z" /></clipPath><clipPath id="13"><path id="" clip-rule="evenodd" transform="matrix(1 0 0 1 0 0)" d="M50.7 225.29533L265.0924 225.29533L265.0924 225.29533L265.0924 251.87863L265.0924 251.87863L50.7 251.87863z" /></clipPath><clipPath id="14"><path id="" clip-rule="evenodd" transform="matrix(1 0 0 1 0 0)" d="M265.5924 225.29533L524.8979 225.29533L524.8979 225.29533L524.8979 251.87863L524.8979 251.87863L265.5924 251.87863z" /></clipPath><clipPath id="15"><path id="" clip-rule="evenodd" transform="matrix(1 0 0 1 0 0)" d="M50.7 252.37863L265.0924 252.37863L265.0924 252.37863L265.0924 278.96204L265.0924 278.96204L50.7 278.96204z" /></clipPath><clipPath id="16"><path id="" clip-rule="evenodd" transform="matrix(1 0 0 1 0 0)" d="M265.5924 252.37863L524.8979 252.37863L524.8979 252.37863L524.8979 278.96204L524.8979 278.96204L265.5924 278.96204z" /></clipPath><clipPath id="17"><path id="" clip-rule="evenodd" transform="matrix(1 0 0 1 0 0)" d="M50.7 279.46204L99.95 279.46204L99.95 279.46204L99.95 297.76984L99.95 297.76984L50.7 297.76984z" /></clipPath><clipPath id="18"><path id="" clip-rule="evenodd" transform="matrix(1 0 0 1 0 0)" d="M157.8007 279.46204L265.0924 279.46204L265.0924 279.46204L265.0924 297.76984L265.0924 297.76984L157.8007 297.76984z" /></clipPath><clipPath id="19"><path id="" clip-rule="evenodd" transform="matrix(1 0 0 1 0 0)" d="M265.5924 279.46204L330.04382 279.46204L330.04382 279.46204L330.04382 297.76984L330.04382 297.76984L265.5924 297.76984z" /></clipPath><clipPath id="20"><path id="" clip-rule="evenodd" transform="matrix(1 0 0 1 0 0)" d="M395.49512 279.46204L459.9465 279.46204L459.9465 279.46204L459.9465 297.76984L459.9465 297.76984L395.49512 297.76984z" /></clipPath><clipPath id="21"><path id="" clip-rule="evenodd" transform="matrix(1 0 0 1 0 0)" d="M50.7 298.26984L157.3007 298.26984L157.3007 298.26984L157.3007 333.88092L157.3007 333.88092L50.7 333.88092z" /></clipPath><clipPath id="22"><path id="" clip-rule="evenodd" transform="matrix(1 0 0 1 0 0)" d="M157.8007 298.26984L265.0924 298.26984L265.0924 298.26984L265.0924 333.88092L265.0924 333.88092L157.8007 333.88092z" /></clipPath><clipPath id="23"><path id="" clip-rule="evenodd" transform="matrix(1 0 0 1 0 0)" d="M265.5924 298.26984L394.99512 298.26984L394.99512 298.26984L394.99512 333.88092L394.99512 333.88092L265.5924 333.88092z" /></clipPath><clipPath id="24"><path id="" clip-rule="evenodd" transform="matrix(1 0 0 1 0 0)" d="M395.49512 298.26984L524.8979 298.26984L524.8979 298.26984L524.8979 333.88092L524.8979 333.88092L395.49512 333.88092z" /></clipPath><clipPath id="25"><path id="" clip-rule="evenodd" transform="matrix(1 0 0 1 0 0)" d="M50.7 334.38092L157.3007 334.38092L157.3007 334.38092L157.3007 352.68884L157.3007 352.68884L50.7 352.68884z" /></clipPath><clipPath id="26"><path id="" clip-rule="evenodd" transform="matrix(1 0 0 1 0 0)" d="M157.8007 334.38092L265.0924 334.38092L265.0924 334.38092L265.0924 352.68884L265.0924 352.68884L157.8007 352.68884z" /></clipPath><clipPath id="27"><path id="" clip-rule="evenodd" transform="matrix(1 0 0 1 0 0)" d="M265.5924 334.38092L330.04382 334.38092L330.04382 334.38092L330.04382 352.68884L330.04382 352.68884L265.5924 352.68884z" /></clipPath><clipPath id="28"><path id="" clip-rule="evenodd" transform="matrix(1 0 0 1 0 0)" d="M395.49512 334.38092L459.9465 334.38092L459.9465 334.38092L459.9465 352.68884L459.9465 352.68884L395.49512 352.68884z" /></clipPath><clipPath id="29"><path id="" clip-rule="evenodd" transform="matrix(1 0 0 1 0 0)" d="M50.7 353.18884L157.3007 353.18884L157.3007 353.18884L157.3007 388.79993L157.3007 388.79993L50.7 388.79993z" /></clipPath><clipPath id="30"><path id="" clip-rule="evenodd" transform="matrix(1 0 0 1 0 0)" d="M157.8007 353.18884L265.0924 353.18884L265.0924 353.18884L265.0924 388.79993L265.0924 388.79993L157.8007 388.79993z" /></clipPath><clipPath id="31"><path id="" clip-rule="evenodd" transform="matrix(1 0 0 1 0 0)" d="M265.5924 353.18884L394.99512 353.18884L394.99512 353.18884L394.99512 388.79993L394.99512 388.79993L265.5924 388.79993z" /></clipPath><clipPath id="32"><path id="" clip-rule="evenodd" transform="matrix(1 0 0 1 0 0)" d="M395.49512 353.18884L524.8979 353.18884L524.8979 353.18884L524.8979 388.79993L524.8979 388.79993L395.49512 388.79993z" /></clipPath><clipPath id="33"><path id="" clip-rule="evenodd" transform="matrix(1 0 0 1 0 0)" d="M49.95 29.996735L525.95 29.996735L525.95 29.996735L525.95 389.99673L525.95 389.99673L49.95 389.99673z" /></clipPath></defs><g transform="matrix(1.3333334 0 0 1.3333334 0 0)"><g clip-path="url(#1)"><g clip-path="url(#2)"></g><g clip-path="url(#3)"><path id="1" transform="matrix(1 0 0 -1 0 423)" d="M525.148 252.12137L525.148 225.03796" stroke="#000000" stroke-width="1.0031" fill="none" /><path id="2" transform="matrix(1 0 0 -1 0 423)" d="M460.1965 252.12126L525.1479 252.12126" stroke="#000000" stroke-width="1.0031" fill="none" /><path id="3" transform="matrix(1 0 0 -1 0 423)" d="M395.24512 252.12126L460.1965 252.12126" stroke="#000000" stroke-width="1.0031" fill="none" /><path id="4" transform="matrix(1 0 0 -1 0 423)" d="M330.29382 252.12126L395.24512 252.12126" stroke="#000000" stroke-width="1.0031" fill="none" /><path id="5" transform="matrix(1 0 0 -1 0 423)" d="M265.3424 252.12126L330.29382 252.12126" stroke="#000000" stroke-width="1.0031" fill="none" /><path id="6" transform="matrix(1 0 0 -1 0 423)" d="M211.4465 252.12126L265.34232 252.12126" stroke="#000000" stroke-width="1.0031" fill="none" /><path id="7" transform="matrix(1 0 0 -1 0 423)" d="M157.5507 252.12126L211.4465 252.12126" stroke="#000000" stroke-width="1.0031" fill="none" /><path id="8" transform="matrix(1 0 0 -1 0 423)" d="M100.2 252.12126L157.5507 252.12126" stroke="#000000" stroke-width="1.0031" fill="none" /><path id="9" transform="matrix(1 0 0 -1 0 423)" d="M50.45 252.12137L50.45 225.03796" stroke="#000000" stroke-width="1.0031" fill="none" /><path id="10" transform="matrix(1 0 0 -1 0 423)" d="M50.45 252.12126L100.2 252.12126" stroke="#000000" stroke-width="1.0031" fill="none" /><path id="11" transform="matrix(1 0 0 -1 0 423)" d="M525.148 124.98016L525.148 88.86908" stroke="#000000" stroke-width="1.0031" fill="none" /><path id="12" transform="matrix(1 0 0 -1 0 423)" d="M395.24503 124.98016L395.24503 88.86908" stroke="#000000" stroke-width="1.0031" fill="none" /><path id="13" transform="matrix(1 0 0 -1 0 423)" d="M265.342 124.98016L265.342 88.86908" stroke="#000000" stroke-width="1.0031" fill="none" /><path id="14" transform="matrix(1 0 0 -1 0 423)" d="M157.551 124.98016L157.551 88.86908" stroke="#000000" stroke-width="1.0031" fill="none" /><path id="15" transform="matrix(1 0 0 -1 0 423)" d="M50.45 124.98016L50.45 88.86908" stroke="#000000" stroke-width="1.0031" fill="none" /><path id="16" transform="matrix(1 0 0 -1 0 423)" d="M525.148 225.03796L525.148 197.95467" stroke="#000000" stroke-width="1.0031" fill="none" /><path id="17" transform="matrix(1 0 0 -1 0 423)" d="M50.45 225.03796L50.45 197.95467" stroke="#000000" stroke-width="1.0031" fill="none" /><path id="18" transform="matrix(1 0 0 -1 0 423)" d="M525.148 88.86908L525.148 70.06116" stroke="#000000" stroke-width="1.0031" fill="none" /><path id="19" transform="matrix(1 0 0 -1 0 423)" d="M460.1965 88.86926L525.1479 88.86926" stroke="#000000" stroke-width="1.0031" fill="none" /><path id="20" transform="matrix(1 0 0 -1 0 423)" d="M395.24503 88.86908L395.24503 70.06116" stroke="#000000" stroke-width="1.0031" fill="none" /><path id="21" transform="matrix(1 0 0 -1 0 423)" d="M395.24512 88.86926L460.1965 88.86926" stroke="#000000" stroke-width="1.0031" fill="none" /><path id="22" transform="matrix(1 0 0 -1 0 423)" d="M330.29382 88.86926L395.24512 88.86926" stroke="#000000" stroke-width="1.0031" fill="none" /><path id="23" transform="matrix(1 0 0 -1 0 423)" d="M265.342 88.86908L265.342 70.06116" stroke="#000000" stroke-width="1.0031" fill="none" /><path id="24" transform="matrix(1 0 0 -1 0 423)" d="M265.3424 88.86926L330.29382 88.86926" stroke="#000000" stroke-width="1.0031" fill="none" /><path id="25" transform="matrix(1 0 0 -1 0 423)" d="M211.4465 88.86926L265.34232 88.86926" stroke="#000000" stroke-width="1.0031" fill="none" /><path id="26" transform="matrix(1 0 0 -1 0 423)" d="M157.551 88.86908L157.551 70.06116" stroke="#000000" stroke-width="1.0031" fill="none" /><path id="27" transform="matrix(1 0 0 -1 0 423)" d="M157.5507 88.86926L211.4465 88.86926" stroke="#000000" stroke-width="1.0031" fill="none" /><path id="28" transform="matrix(1 0 0 -1 0 423)" d="M50.45 88.86908L50.45 70.06116" stroke="#000000" stroke-width="1.0031" fill="none" /><path id="29" transform="matrix(1 0 0 -1 0 423)" d="M525.148 197.95467L525.148 170.87137" stroke="#000000" stroke-width="1.0031" fill="none" /><path id="30" transform="matrix(1 0 0 -1 0 423)" d="M460.1965 197.95427L525.1479 197.95427" stroke="#000000" stroke-width="1.0031" fill="none" /><path id="31" transform="matrix(1 0 0 -1 0 423)" d="M395.24512 197.95427L460.1965 197.95427" stroke="#000000" stroke-width="1.0031" fill="none" /><path id="32" transform="matrix(1 0 0 -1 0 423)" d="M330.29382 197.95427L395.24512 197.95427" stroke="#000000" stroke-width="1.0031" fill="none" /><path id="33" transform="matrix(1 0 0 -1 0 423)" d="M265.342 197.95467L265.342 170.87137" stroke="#000000" stroke-width="1.0031" fill="none" /><path id="34" transform="matrix(1 0 0 -1 0 423)" d="M265.34232 197.95427L330.29382 197.95427" stroke="#000000" stroke-width="1.0031" fill="none" /><path id="35" transform="matrix(1 0 0 -1 0 423)" d="M211.4465 197.95427L265.34232 197.95427" stroke="#000000" stroke-width="1.0031" fill="none" /><path id="36" transform="matrix(1 0 0 -1 0 423)" d="M157.5507 197.95427L211.4465 197.95427" stroke="#000000" stroke-width="1.0031" fill="none" /><path id="37" transform="matrix(1 0 0 -1 0 423)" d="M100.2 197.95427L157.5507 197.95427" stroke="#000000" stroke-width="1.0031" fill="none" /><path id="38" transform="matrix(1 0 0 -1 0 423)" d="M50.45 197.95467L50.45 170.87137" stroke="#000000" stroke-width="1.0031" fill="none" /><path id="39" transform="matrix(1 0 0 -1 0 423)" d="M50.45 197.95427L100.2 197.95427" stroke="#000000" stroke-width="1.0031" fill="none" /><path id="40" transform="matrix(1 0 0 -1 0 423)" d="M525.148 70.06116L525.148 33.950073" stroke="#000000" stroke-width="1.0031" fill="none" /><path id="41" transform="matrix(1 0 0 -1 0 423)" d="M395.24503 70.06116L395.24503 33.950073" stroke="#000000" stroke-width="1.0031" fill="none" /><path id="42" transform="matrix(1 0 0 -1 0 423)" d="M265.342 70.06116L265.342 33.950073" stroke="#000000" stroke-width="1.0031" fill="none" /><path id="43" transform="matrix(1 0 0 -1 0 423)" d="M157.551 70.06116L157.551 33.950073" stroke="#000000" stroke-width="1.0031" fill="none" /><path id="44" transform="matrix(1 0 0 -1 0 423)" d="M525.148 306.28796L525.148 279.20465" stroke="#000000" stroke-width="1.0031" fill="none" /><path id="45" transform="matrix(1 0 0 -1 0 423)" d="M460.1965 306.28827L525.1479 306.28827" stroke="#000000" stroke-width="1.0031" fill="none" /><path id="46" transform="matrix(1 0 0 -1 0 423)" d="M395.24512 306.28827L460.1965 306.28827" stroke="#000000" stroke-width="1.0031" fill="none" /><path id="47" transform="matrix(1 0 0 -1 0 423)" d="M330.29382 306.28827L395.24512 306.28827" stroke="#000000" stroke-width="1.0031" fill="none" /><path id="48" transform="matrix(1 0 0 -1 0 423)" d="M265.3424 306.28827L330.29382 306.28827" stroke="#000000" stroke-width="1.0031" fill="none" /><path id="49" transform="matrix(1 0 0 -1 0 423)" d="M211.4465 306.28827L265.34232 306.28827" stroke="#000000" stroke-width="1.0031" fill="none" /><path id="50" transform="matrix(1 0 0 -1 0 423)" d="M157.5507 306.28827L211.4465 306.28827" stroke="#000000" stroke-width="1.0031" fill="none" /><path id="51" transform="matrix(1 0 0 -1 0 423)" d="M100.2 306.28827L157.5507 306.28827" stroke="#000000" stroke-width="1.0031" fill="none" /><path id="52" transform="matrix(1 0 0 -1 0 423)" d="M50.45 306.28796L50.45 279.20465" stroke="#000000" stroke-width="1.0031" fill="none" /><path id="53" transform="matrix(1 0 0 -1 0 423)" d="M50.45 306.28827L100.2 306.28827" stroke="#000000" stroke-width="1.0031" fill="none" /><path id="54" transform="matrix(1 0 0 -1 0 423)" d="M525.148 170.87137L525.148 143.78796" stroke="#000000" stroke-width="1.0031" fill="none" /><path id="55" transform="matrix(1 0 0 -1 0 423)" d="M460.1965 170.87126L525.1479 170.87126" stroke="#000000" stroke-width="1.0031" fill="none" /><path id="56" transform="matrix(1 0 0 -1 0 423)" d="M395.24512 170.87126L460.1965 170.87126" stroke="#000000" stroke-width="1.0031" fill="none" /><path id="57" transform="matrix(1 0 0 -1 0 423)" d="M330.29382 170.87126L395.24512 170.87126" stroke="#000000" stroke-width="1.0031" fill="none" /><path id="58" transform="matrix(1 0 0 -1 0 423)" d="M265.342 170.87137L265.342 143.78796" stroke="#000000" stroke-width="1.0031" fill="none" /><path id="59" transform="matrix(1 0 0 -1 0 423)" d="M265.3424 170.87126L330.29382 170.87126" stroke="#000000" stroke-width="1.0031" fill="none" /><path id="60" transform="matrix(1 0 0 -1 0 423)" d="M211.4465 170.87126L265.34232 170.87126" stroke="#000000" stroke-width="1.0031" fill="none" /><path id="61" transform="matrix(1 0 0 -1 0 423)" d="M157.5507 170.87126L211.4465 170.87126" stroke="#000000" stroke-width="1.0031" fill="none" /><path id="62" transform="matrix(1 0 0 -1 0 423)" d="M100.2 170.87126L157.5507 170.87126" stroke="#000000" stroke-width="1.0031" fill="none" /><path id="63" transform="matrix(1 0 0 -1 0 423)" d="M50.45 170.87137L50.45 143.78796" stroke="#000000" stroke-width="1.0031" fill="none" /><path id="64" transform="matrix(1 0 0 -1 0 423)" d="M50.45 170.87126L100.2 170.87126" stroke="#000000" stroke-width="1.0031" fill="none" /><path id="65" transform="matrix(1 0 0 -1 0 423)" d="M460.1965 33.950256L525.1479 33.950256" stroke="#000000" stroke-width="1.0031" fill="none" /><path id="66" transform="matrix(1 0 0 -1 0 423)" d="M395.24512 33.950256L460.1965 33.950256" stroke="#000000" stroke-width="1.0031" fill="none" /><path id="67" transform="matrix(1 0 0 -1 0 423)" d="M330.29382 33.950256L395.24512 33.950256" stroke="#000000" stroke-width="1.0031" fill="none" /><path id="68" transform="matrix(1 0 0 -1 0 423)" d="M265.3424 33.950256L330.29382 33.950256" stroke="#000000" stroke-width="1.0031" fill="none" /><path id="69" transform="matrix(1 0 0 -1 0 423)" d="M211.4465 33.950256L265.34232 33.950256" stroke="#000000" stroke-width="1.0031" fill="none" /><path id="70" transform="matrix(1 0 0 -1 0 423)" d="M157.5507 33.950256L211.4465 33.950256" stroke="#000000" stroke-width="1.0031" fill="none" /><path id="71" transform="matrix(1 0 0 -1 0 423)" d="M100.2 33.950256L157.5507 33.950256" stroke="#000000" stroke-width="1.0031" fill="none" /><path id="72" transform="matrix(1 0 0 -1 0 423)" d="M525.148 279.20465L525.148 252.12137" stroke="#000000" stroke-width="1.0031" fill="none" /><path id="73" transform="matrix(1 0 0 -1 0 423)" d="M50.45 33.950256L100.2 33.950256" stroke="#000000" stroke-width="1.0031" fill="none" /><path id="74" transform="matrix(1 0 0 -1 0 423)" d="M460.1965 279.20425L525.1479 279.20425" stroke="#000000" stroke-width="1.0031" fill="none" /><path id="75" transform="matrix(1 0 0 -1 0 423)" d="M395.24512 279.20425L460.1965 279.20425" stroke="#000000" stroke-width="1.0031" fill="none" /><path id="76" transform="matrix(1 0 0 -1 0 423)" d="M330.29382 279.20425L395.24512 279.20425" stroke="#000000" stroke-width="1.0031" fill="none" /><path id="77" transform="matrix(1 0 0 -1 0 423)" d="M265.3424 279.20425L330.29382 279.20425" stroke="#000000" stroke-width="1.0031" fill="none" /><path id="78" transform="matrix(1 0 0 -1 0 423)" d="M211.4465 279.20425L265.34232 279.20425" stroke="#000000" stroke-width="1.0031" fill="none" /><path id="79" transform="matrix(1 0 0 -1 0 423)" d="M157.5507 279.20425L211.4465 279.20425" stroke="#000000" stroke-width="1.0031" fill="none" /><path id="80" transform="matrix(1 0 0 -1 0 423)" d="M100.2 279.20425L157.5507 279.20425" stroke="#000000" stroke-width="1.0031" fill="none" /><path id="81" transform="matrix(1 0 0 -1 0 423)" d="M50.45 279.20465L50.45 252.12137" stroke="#000000" stroke-width="1.0031" fill="none" /><path id="82" transform="matrix(1 0 0 -1 0 423)" d="M50.45 279.20425L100.2 279.20425" stroke="#000000" stroke-width="1.0031" fill="none" /><path id="83" transform="matrix(1 0 0 -1 0 423)" d="M525.148 143.78796L525.148 124.98016" stroke="#000000" stroke-width="1.0031" fill="none" /><path id="84" transform="matrix(1 0 0 -1 0 423)" d="M460.1965 143.78827L525.1479 143.78827" stroke="#000000" stroke-width="1.0031" fill="none" /><path id="85" transform="matrix(1 0 0 -1 0 423)" d="M395.24503 143.78796L395.24503 124.98016" stroke="#000000" stroke-width="1.0031" fill="none" /><path id="86" transform="matrix(1 0 0 -1 0 423)" d="M395.24512 143.78827L460.1965 143.78827" stroke="#000000" stroke-width="1.0031" fill="none" /><path id="87" transform="matrix(1 0 0 -1 0 423)" d="M330.29382 143.78827L395.24512 143.78827" stroke="#000000" stroke-width="1.0031" fill="none" /><path id="88" transform="matrix(1 0 0 -1 0 423)" d="M265.342 143.78796L265.342 124.98016" stroke="#000000" stroke-width="1.0031" fill="none" /><path id="89" transform="matrix(1 0 0 -1 0 423)" d="M265.3424 143.78827L330.29382 143.78827" stroke="#000000" stroke-width="1.0031" fill="none" /><path id="90" transform="matrix(1 0 0 -1 0 423)" d="M211.4465 143.78827L265.34232 143.78827" stroke="#000000" stroke-width="1.0031" fill="none" /><path id="91" transform="matrix(1 0 0 -1 0 423)" d="M157.551 143.78796L157.551 124.98016" stroke="#000000" stroke-width="1.0031" fill="none" /><path id="92" transform="matrix(1 0 0 -1 0 423)" d="M157.5507 143.78827L211.4465 143.78827" stroke="#000000" stroke-width="1.0031" fill="none" /><path id="93" transform="matrix(1 0 0 -1 0 423)" d="M100.2 143.78827L157.5507 143.78827" stroke="#000000" stroke-width="1.0031" fill="none" /><path id="94" transform="matrix(1 0 0 -1 0 423)" d="M50.45 143.78796L50.45 124.98016" stroke="#000000" stroke-width="1.0031" fill="none" /><path id="95" transform="matrix(1 0 0 -1 0 423)" d="M50.45 143.78827L100.2 143.78827" stroke="#000000" stroke-width="1.0031" fill="none" /><path id="96" transform="matrix(1 0 0 -1 0 423)" d="M50.45 70.06116L50.45 33.950073" stroke="#000000" stroke-width="1.0031" fill="none" /></g><g clip-path="url(#4)"><g clip-path="url(#5)"></g><g clip-path="url(#6)"></g><g clip-path="url(#7)"></g><g clip-path="url(#8)"></g><g clip-path="url(#9)"></g><g clip-path="url(#10)"></g><g clip-path="url(#11)"></g><g clip-path="url(#12)"></g><g clip-path="url(#13)"></g><g clip-path="url(#14)"></g><g clip-path="url(#15)"></g><g clip-path="url(#16)"></g><g clip-path="url(#17)"></g><g clip-path="url(#18)"></g><g clip-path="url(#19)"></g><g clip-path="url(#20)"></g><g clip-path="url(#21)"></g><g clip-path="url(#22)"></g><g clip-path="url(#23)"></g><g clip-path="url(#24)"></g><g clip-path="url(#25)"></g><g clip-path="url(#26)"></g><g clip-path="url(#27)"></g><g clip-path="url(#28)"></g><g clip-path="url(#29)"></g><g clip-path="url(#30)"></g><g clip-path="url(#31)"></g><g clip-path="url(#32)"></g></g><g clip-path="url(#33)"><path id="357" transform="matrix(1 0 0 -1 0 423)" d="M157.55113 88.86902L50.45 88.86902" stroke="#000000" stroke-width="0.690975" fill="none" /></g></g></g></svg>