<svg xmlns="http://www.w3.org/2000/svg" xmlns:xlink="http://www.w3.org/1999/xlink" id="body_1" preserveAspectRatio="xMinYMin meet" viewBox="0 0 767 528"><defs><clipPath id="1"><path id="" clip-rule="evenodd" transform="matrix(1 0 0 1 0 0)" d="M0 396L0 -0.56988525L0 -0.56988525L575.5979 -0.56988525L575.5979 -0.56988525L575.5979 396L575.5979 396L0 396z" /></clipPath><clipPath id="2"><path id="" clip-rule="evenodd" transform="matrix(1 0 0 1 0 0)" d="M49.95 30.08014L525.95 30.08014L525.95 30.08014L525.95 363.08014L525.95 363.08014L49.95 363.08014z" /></clipPath><clipPath id="3"><path id="" clip-rule="evenodd" transform="matrix(1 0 0 1 0 0)" d="M49.95 29.075531L525.95 29.075531L525.95 29.075531L525.95 364.07553L525.95 364.07553L49.95 364.07553z" /></clipPath><clipPath id="4"><path id="" clip-rule="evenodd" transform="matrix(1 0 0 1 0 0)" d="M49.95 30.08014L525.95 30.08014L525.95 30.08014L525.95 363.08014L525.95 363.08014L49.95 363.08014z" /></clipPath><clipPath id="5"><path id="" clip-rule="evenodd" transform="matrix(1 0 0 1 0 0)" d="M50.7 30.83014L524.8979 30.83014L524.8979 30.83014L524.8979 80.58475L524.8979 80.58475L50.7 80.58475z" /></clipPath><clipPath id="6"><path id="" clip-rule="evenodd" transform="matrix(1 0 0 1 0 0)" d="M50.7 81.08475L524.8979 81.08475L524.8979 81.08475L524.8979 97.73755L524.8979 97.73755L50.7 97.73755z" /></clipPath><clipPath id="7"><path id="" clip-rule="evenodd" transform="matrix(1 0 0 1 0 0)" d="M395.49512 98.23755L459.9465 98.23755L459.9465 98.23755L459.9465 116.54544L459.9465 116.54544L395.49512 116.54544z" /></clipPath><clipPath id="8"><path id="" clip-rule="evenodd" transform="matrix(1 0 0 1 0 0)" d="M50.7 117.04544L265.0924 117.04544L265.0924 117.04544L265.0924 143.62874L265.0924 143.62874L50.7 143.62874z" /></clipPath><clipPath id="9"><path id="" clip-rule="evenodd" transform="matrix(1 0 0 1 0 0)" d="M265.5924 117.04544L524.8979 117.04544L524.8979 117.04544L524.8979 143.62874L524.8979 143.62874L265.5924 143.62874z" /></clipPath><clipPath id="10"><path id="" clip-rule="evenodd" transform="matrix(1 0 0 1 0 0)" d="M50.7 144.12874L524.8979 144.12874L524.8979 144.12874L524.8979 170.71204L524.8979 170.71204L50.7 170.71204z" /></clipPath><clipPath id="11"><path id="" clip-rule="evenodd" transform="matrix(1 0 0 1 0 0)" d="M50.7 171.21204L99.95 171.21204L99.95 171.21204L99.95 197.79544L99.95 197.79544L50.7 197.79544z" /></clipPath><clipPath id="12"><path id="" clip-rule="evenodd" transform="matrix(1 0 0 1 0 0)" d="M50.7 225.37874L265.0924 225.37874L265.0924 225.37874L265.0924 251.96204L265.0924 251.96204L50.7 251.96204z" /></clipPath><clipPath id="13"><path id="" clip-rule="evenodd" transform="matrix(1 0 0 1 0 0)" d="M265.5924 225.37874L524.8979 225.37874L524.8979 225.37874L524.8979 251.96204L524.8979 251.96204L265.5924 251.96204z" /></clipPath><clipPath id="14"><path id="" clip-rule="evenodd" transform="matrix(1 0 0 1 0 0)" d="M50.7 252.46204L99.95 252.46204L99.95 252.46204L99.95 270.76996L99.95 270.76996L50.7 270.76996z" /></clipPath><clipPath id="15"><path id="" clip-rule="evenodd" transform="matrix(1 0 0 1 0 0)" d="M157.8007 252.46204L265.0924 252.46204L265.0924 252.46204L265.0924 270.76996L265.0924 270.76996L157.8007 270.76996z" /></clipPath><clipPath id="16"><path id="" clip-rule="evenodd" transform="matrix(1 0 0 1 0 0)" d="M265.5924 252.46204L330.04382 252.46204L330.04382 252.46204L330.04382 270.76996L330.04382 270.76996L265.5924 270.76996z" /></clipPath><clipPath id="17"><path id="" clip-rule="evenodd" transform="matrix(1 0 0 1 0 0)" d="M395.49512 252.46204L459.9465 252.46204L459.9465 252.46204L459.9465 270.76996L459.9465 270.76996L395.49512 270.76996z" /></clipPath><clipPath id="18"><path id="" clip-rule="evenodd" transform="matrix(1 0 0 1 0 0)" d="M50.7 307.38104L157.3007 307.38104L157.3007 307.38104L157.3007 325.68893L157.3007 325.68893L50.7 325.68893z" /></clipPath><clipPath id="19"><path id="" clip-rule="evenodd" transform="matrix(1 0 0 1 0 0)" d="M157.8007 307.38104L265.0924 307.38104L265.0924 307.38104L265.0924 325.68893L265.0924 325.68893L157.8007 325.68893z" /></clipPath><clipPath id="20"><path id="" clip-rule="evenodd" transform="matrix(1 0 0 1 0 0)" d="M265.5924 307.38104L330.04382 307.38104L330.04382 307.38104L330.04382 325.68893L330.04382 325.68893L265.5924 325.68893z" /></clipPath><clipPath id="21"><path id="" clip-rule="evenodd" transform="matrix(1 0 0 1 0 0)" d="M395.49512 307.38104L459.9465 307.38104L459.9465 307.38104L459.9465 325.68893L459.9465 325.68893L395.49512 325.68893z" /></clipPath><clipPath id="22"><path id="" clip-rule="evenodd" transform="matrix(1 0 0 1 0 0)" d="M49.95 30.08014L525.95 30.08014L525.95 30.08014L525.95 363.08014L525.95 363.08014L49.95 363.08014z" /></clipPath></defs><g transform="matrix(1.3333334 0 0 1.3333333 0 0)"><g clip-path="url(#1)"><g clip-path="url(#2)"></g><g clip-path="url(#3)"><path id="1" transform="matrix(1 0 0 -1 0 396)" d="M50.45 124.98006L50.45 88.86896" stroke="#000000" stroke-width="1.0031" fill="none" /><path id="2" transform="matrix(1 0 0 -1 0 396)" d="M525.148 70.061066L525.148 33.94995" stroke="#000000" stroke-width="1.0031" fill="none" /><path id="3" transform="matrix(1 0 0 -1 0 396)" d="M395.24503 70.061066L395.24503 33.94995" stroke="#000000" stroke-width="1.0031" fill="none" /><path id="4" transform="matrix(1 0 0 -1 0 396)" d="M265.342 70.061066L265.342 33.94995" stroke="#000000" stroke-width="1.0031" fill="none" /><path id="5" transform="matrix(1 0 0 -1 0 396)" d="M157.551 70.061066L157.551 33.94995" stroke="#000000" stroke-width="1.0031" fill="none" /><path id="6" transform="matrix(1 0 0 -1 0 396)" d="M50.45 70.061066L50.45 33.94995" stroke="#000000" stroke-width="1.0031" fill="none" /><path id="7" transform="matrix(1 0 0 -1 0 396)" d="M525.148 252.12126L525.148 225.03796" stroke="#000000" stroke-width="1.0031" fill="none" /><path id="8" transform="matrix(1 0 0 -1 0 396)" d="M460.1965 252.12085L525.1479 252.12085" stroke="#000000" stroke-width="1.0031" fill="none" /><path id="9" transform="matrix(1 0 0 -1 0 396)" d="M395.24512 252.12085L460.1965 252.12085" stroke="#000000" stroke-width="1.0031" fill="none" /><path id="10" transform="matrix(1 0 0 -1 0 396)" d="M330.29382 252.12085L395.24512 252.12085" stroke="#000000" stroke-width="1.0031" fill="none" /><path id="11" transform="matrix(1 0 0 -1 0 396)" d="M265.3424 252.12085L330.29382 252.12085" stroke="#000000" stroke-width="1.0031" fill="none" /><path id="12" transform="matrix(1 0 0 -1 0 396)" d="M211.4465 252.12085L265.34232 252.12085" stroke="#000000" stroke-width="1.0031" fill="none" /><path id="13" transform="matrix(1 0 0 -1 0 396)" d="M157.5507 252.12085L211.4465 252.12085" stroke="#000000" stroke-width="1.0031" fill="none" /><path id="14" transform="matrix(1 0 0 -1 0 396)" d="M100.2 252.12085L157.5507 252.12085" stroke="#000000" stroke-width="1.0031" fill="none" /><path id="15" transform="matrix(1 0 0 -1 0 396)" d="M50.45 252.12126L50.45 225.03796" stroke="#000000" stroke-width="1.0031" fill="none" /><path id="16" transform="matrix(1 0 0 -1 0 396)" d="M50.45 252.12085L100.2 252.12085" stroke="#000000" stroke-width="1.0031" fill="none" /><path id="17" transform="matrix(1 0 0 -1 0 396)" d="M525.148 197.95456L525.148 170.87126" stroke="#000000" stroke-width="1.0031" fill="none" /><path id="18" transform="matrix(1 0 0 -1 0 396)" d="M395.24512 33.94986L460.1965 33.94986" stroke="#000000" stroke-width="1.0031" fill="none" /><path id="19" transform="matrix(1 0 0 -1 0 396)" d="M330.29382 33.94986L395.24512 33.94986" stroke="#000000" stroke-width="1.0031" fill="none" /><path id="20" transform="matrix(1 0 0 -1 0 396)" d="M50.45 197.95456L50.45 170.87126" stroke="#000000" stroke-width="1.0031" fill="none" /><path id="21" transform="matrix(1 0 0 -1 0 396)" d="M265.3424 33.94986L330.29382 33.94986" stroke="#000000" stroke-width="1.0031" fill="none" /><path id="22" transform="matrix(1 0 0 -1 0 396)" d="M525.148 143.78796L525.148 124.98006" stroke="#000000" stroke-width="1.0031" fill="none" /><path id="23" transform="matrix(1 0 0 -1 0 396)" d="M211.4465 33.94986L265.34232 33.94986" stroke="#000000" stroke-width="1.0031" fill="none" /><path id="24" transform="matrix(1 0 0 -1 0 396)" d="M460.1965 143.78786L525.1479 143.78786" stroke="#000000" stroke-width="1.0031" fill="none" /><path id="25" transform="matrix(1 0 0 -1 0 396)" d="M395.24503 143.78796L395.24503 124.98006" stroke="#000000" stroke-width="1.0031" fill="none" /><path id="26" transform="matrix(1 0 0 -1 0 396)" d="M395.24512 143.78786L460.1965 143.78786" stroke="#000000" stroke-width="1.0031" fill="none" /><path id="27" transform="matrix(1 0 0 -1 0 396)" d="M330.29382 143.78786L395.24512 143.78786" stroke="#000000" stroke-width="1.0031" fill="none" /><path id="28" transform="matrix(1 0 0 -1 0 396)" d="M265.342 143.78796L265.342 124.98006" stroke="#000000" stroke-width="1.0031" fill="none" /><path id="29" transform="matrix(1 0 0 -1 0 396)" d="M265.3424 143.78786L330.29382 143.78786" stroke="#000000" stroke-width="1.0031" fill="none" /><path id="30" transform="matrix(1 0 0 -1 0 396)" d="M211.4465 143.78786L265.34232 143.78786" stroke="#000000" stroke-width="1.0031" fill="none" /><path id="31" transform="matrix(1 0 0 -1 0 396)" d="M157.551 143.78796L157.551 124.98006" stroke="#000000" stroke-width="1.0031" fill="none" /><path id="32" transform="matrix(1 0 0 -1 0 396)" d="M157.5507 143.78786L211.4465 143.78786" stroke="#000000" stroke-width="1.0031" fill="none" /><path id="33" transform="matrix(1 0 0 -1 0 396)" d="M100.2 143.78786L157.5507 143.78786" stroke="#000000" stroke-width="1.0031" fill="none" /><path id="34" transform="matrix(1 0 0 -1 0 396)" d="M50.45 143.78796L50.45 124.98006" stroke="#000000" stroke-width="1.0031" fill="none" /><path id="35" transform="matrix(1 0 0 -1 0 396)" d="M50.45 143.78786L100.2 143.78786" stroke="#000000" stroke-width="1.0031" fill="none" /><path id="36" transform="matrix(1 0 0 -1 0 396)" d="M525.148 88.86896L525.148 70.061066" stroke="#000000" stroke-width="1.0031" fill="none" /><path id="37" transform="matrix(1 0 0 -1 0 396)" d="M395.24503 88.86896L395.24503 70.061066" stroke="#000000" stroke-width="1.0031" fill="none" /><path id="38" transform="matrix(1 0 0 -1 0 396)" d="M265.342 88.86896L265.342 70.061066" stroke="#000000" stroke-width="1.0031" fill="none" /><path id="39" transform="matrix(1 0 0 -1 0 396)" d="M211.4465 88.868866L265.34232 88.868866" stroke="#000000" stroke-width="1.0031" fill="none" /><path id="40" transform="matrix(1 0 0 -1 0 396)" d="M157.551 88.86896L157.551 70.061066" stroke="#000000" stroke-width="1.0031" fill="none" /><path id="41" transform="matrix(1 0 0 -1 0 396)" d="M157.5507 88.868866L211.4465 88.868866" stroke="#000000" stroke-width="1.0031" fill="none" /><path id="42" transform="matrix(1 0 0 -1 0 396)" d="M50.45 88.86896L50.45 70.061066" stroke="#000000" stroke-width="1.0031" fill="none" /><path id="43" transform="matrix(1 0 0 -1 0 396)" d="M525.148 279.20456L525.148 252.12126" stroke="#000000" stroke-width="1.0031" fill="none" /><path id="44" transform="matrix(1 0 0 -1 0 396)" d="M460.1965 279.20486L525.1479 279.20486" stroke="#000000" stroke-width="1.0031" fill="none" /><path id="45" transform="matrix(1 0 0 -1 0 396)" d="M395.24512 279.20486L460.1965 279.20486" stroke="#000000" stroke-width="1.0031" fill="none" /><path id="46" transform="matrix(1 0 0 -1 0 396)" d="M330.29382 279.20486L395.24512 279.20486" stroke="#000000" stroke-width="1.0031" fill="none" /><path id="47" transform="matrix(1 0 0 -1 0 396)" d="M460.1965 33.94986L525.1479 33.94986" stroke="#000000" stroke-width="1.0031" fill="none" /><path id="48" transform="matrix(1 0 0 -1 0 396)" d="M265.3424 279.20486L330.29382 279.20486" stroke="#000000" stroke-width="1.0031" fill="none" /><path id="49" transform="matrix(1 0 0 -1 0 396)" d="M211.4465 279.20486L265.34232 279.20486" stroke="#000000" stroke-width="1.0031" fill="none" /><path id="50" transform="matrix(1 0 0 -1 0 396)" d="M157.5507 279.20486L211.4465 279.20486" stroke="#000000" stroke-width="1.0031" fill="none" /><path id="51" transform="matrix(1 0 0 -1 0 396)" d="M100.2 279.20486L157.5507 279.20486" stroke="#000000" stroke-width="1.0031" fill="none" /><path id="52" transform="matrix(1 0 0 -1 0 396)" d="M50.45 279.20456L50.45 252.12126" stroke="#000000" stroke-width="1.0031" fill="none" /><path id="53" transform="matrix(1 0 0 -1 0 396)" d="M50.45 279.20486L100.2 279.20486" stroke="#000000" stroke-width="1.0031" fill="none" /><path id="54" transform="matrix(1 0 0 -1 0 396)" d="M157.5507 33.94986L211.4465 33.94986" stroke="#000000" stroke-width="1.0031" fill="none" /><path id="55" transform="matrix(1 0 0 -1 0 396)" d="M395.24512 88.868866L460.1965 88.868866" stroke="#000000" stroke-width="1.0031" fill="none" /><path id="56" transform="matrix(1 0 0 -1 0 396)" d="M100.2 33.94986L157.5507 33.94986" stroke="#000000" stroke-width="1.0031" fill="none" /><path id="57" transform="matrix(1 0 0 -1 0 396)" d="M50.45 33.94986L100.2 33.94986" stroke="#000000" stroke-width="1.0031" fill="none" /><path id="58" transform="matrix(1 0 0 -1 0 396)" d="M525.148 225.03796L525.148 197.95456" stroke="#000000" stroke-width="1.0031" fill="none" /><path id="59" transform="matrix(1 0 0 -1 0 396)" d="M460.1965 225.03786L525.1479 225.03786" stroke="#000000" stroke-width="1.0031" fill="none" /><path id="60" transform="matrix(1 0 0 -1 0 396)" d="M330.29382 88.868866L395.24512 88.868866" stroke="#000000" stroke-width="1.0031" fill="none" /><path id="61" transform="matrix(1 0 0 -1 0 396)" d="M395.24512 225.03786L460.1965 225.03786" stroke="#000000" stroke-width="1.0031" fill="none" /><path id="62" transform="matrix(1 0 0 -1 0 396)" d="M330.29382 225.03786L395.24512 225.03786" stroke="#000000" stroke-width="1.0031" fill="none" /><path id="63" transform="matrix(1 0 0 -1 0 396)" d="M265.3424 225.03786L330.29382 225.03786" stroke="#000000" stroke-width="1.0031" fill="none" /><path id="64" transform="matrix(1 0 0 -1 0 396)" d="M211.4465 225.03786L265.34232 225.03786" stroke="#000000" stroke-width="1.0031" fill="none" /><path id="65" transform="matrix(1 0 0 -1 0 396)" d="M265.3424 88.868866L330.29382 88.868866" stroke="#000000" stroke-width="1.0031" fill="none" /><path id="66" transform="matrix(1 0 0 -1 0 396)" d="M157.5507 225.03786L211.4465 225.03786" stroke="#000000" stroke-width="1.0031" fill="none" /><path id="67" transform="matrix(1 0 0 -1 0 396)" d="M460.1965 88.868866L525.1479 88.868866" stroke="#000000" stroke-width="1.0031" fill="none" /><path id="68" transform="matrix(1 0 0 -1 0 396)" d="M100.2 225.03786L157.5507 225.03786" stroke="#000000" stroke-width="1.0031" fill="none" /><path id="69" transform="matrix(1 0 0 -1 0 396)" d="M50.45 225.03796L50.45 197.95456" stroke="#000000" stroke-width="1.0031" fill="none" /><path id="70" transform="matrix(1 0 0 -1 0 396)" d="M50.45 225.03786L100.2 225.03786" stroke="#000000" stroke-width="1.0031" fill="none" /><path id="71" transform="matrix(1 0 0 -1 0 396)" d="M525.148 170.87126L525.148 143.78796" stroke="#000000" stroke-width="1.0031" fill="none" /><path id="72" transform="matrix(1 0 0 -1 0 396)" d="M460.1965 170.87086L525.1479 170.87086" stroke="#000000" stroke-width="1.0031" fill="none" /><path id="73" transform="matrix(1 0 0 -1 0 396)" d="M395.24512 170.87086L460.1965 170.87086" stroke="#000000" stroke-width="1.0031" fill="none" /><path id="74" transform="matrix(1 0 0 -1 0 396)" d="M330.29382 170.87086L395.24512 170.87086" stroke="#000000" stroke-width="1.0031" fill="none" /><path id="75" transform="matrix(1 0 0 -1 0 396)" d="M265.342 170.87126L265.342 143.78796" stroke="#000000" stroke-width="1.0031" fill="none" /><path id="76" transform="matrix(1 0 0 -1 0 396)" d="M265.3424 170.87086L330.29382 170.87086" stroke="#000000" stroke-width="1.0031" fill="none" /><path id="77" transform="matrix(1 0 0 -1 0 396)" d="M211.4465 170.87086L265.34232 170.87086" stroke="#000000" stroke-width="1.0031" fill="none" /><path id="78" transform="matrix(1 0 0 -1 0 396)" d="M157.5507 170.87086L211.4465 170.87086" stroke="#000000" stroke-width="1.0031" fill="none" /><path id="79" transform="matrix(1 0 0 -1 0 396)" d="M100.2 170.87086L157.5507 170.87086" stroke="#000000" stroke-width="1.0031" fill="none" /><path id="80" transform="matrix(1 0 0 -1 0 396)" d="M50.45 170.87126L50.45 143.78796" stroke="#000000" stroke-width="1.0031" fill="none" /><path id="81" transform="matrix(1 0 0 -1 0 396)" d="M50.45 170.87086L100.2 170.87086" stroke="#000000" stroke-width="1.0031" fill="none" /><path id="82" transform="matrix(1 0 0 -1 0 396)" d="M525.148 124.98006L525.148 88.86896" stroke="#000000" stroke-width="1.0031" fill="none" /><path id="83" transform="matrix(1 0 0 -1 0 396)" d="M395.24503 124.98006L395.24503 88.86896" stroke="#000000" stroke-width="1.0031" fill="none" /><path id="84" transform="matrix(1 0 0 -1 0 396)" d="M265.342 124.98006L265.342 88.86896" stroke="#000000" stroke-width="1.0031" fill="none" /><path id="85" transform="matrix(1 0 0 -1 0 396)" d="M157.551 124.98006L157.551 88.86896" stroke="#000000" stroke-width="1.0031" fill="none" /></g><g clip-path="url(#4)"><g clip-path="url(#5)"></g><g clip-path="url(#6)"></g><g clip-path="url(#7)"></g><g clip-path="url(#8)"></g><g clip-path="url(#9)"></g><g clip-path="url(#10)"></g><g clip-path="url(#11)"></g><g clip-path="url(#12)"></g><g clip-path="url(#13)"></g><g clip-path="url(#14)"></g><g clip-path="url(#15)"></g><g clip-path="url(#16)"></g><g clip-path="url(#17)"></g><g clip-path="url(#18)"></g><g clip-path="url(#19)"></g><g clip-path="url(#20)"></g><g clip-path="url(#21)"></g></g><g clip-path="url(#22)"><path id="203" transform="matrix(1 0 0 -1 0 396)" d="M159.62405 88.11657L50.450012 88.8689" stroke="#000000" stroke-width="0.690975" fill="none" /></g></g></g></svg>