<svg xmlns="http://www.w3.org/2000/svg" xmlns:xlink="http://www.w3.org/1999/xlink" id="body_1" preserveAspectRatio="xMinYMin meet" viewBox="0 0 745 1023"><defs><clipPath id="1"><path id="" clip-rule="evenodd" transform="matrix(1 0 0 1 0 0)" d="M0 767L0 -0.39971924L0 -0.39971924L559.2765 -0.39971924L559.2765 -0.39971924L559.2765 767L559.2765 767L0 767z" /></clipPath><clipPath id="2"><path id="" clip-rule="evenodd" transform="matrix(1 0 0 1 0 0)" d="M59.98 69.96643L534.98 69.96643L534.98 69.96643L534.98 696.96643L534.98 696.96643L59.98 696.96643z" /></clipPath><clipPath id="3"><path id="" clip-rule="evenodd" transform="matrix(1 0 0 1 0 0)" d="M59.98 68.925354L534.98 68.925354L534.98 68.925354L534.98 697.92535L534.98 697.92535L59.98 697.92535z" /></clipPath><clipPath id="4"><path id="" clip-rule="evenodd" transform="matrix(1 0 0 1 0 0)" d="M59.98 69.96643L534.98 69.96643L534.98 69.96643L534.98 696.96643L534.98 696.96643L59.98 696.96643z" /></clipPath><clipPath id="5"><path id="" clip-rule="evenodd" transform="matrix(1 0 0 1 0 0)" d="M60.73 70.71643L516.318 70.71643L516.318 70.71643L516.318 104.89014L516.318 104.89014L60.73 104.89014z" /></clipPath><clipPath id="6"><path id="" clip-rule="evenodd" transform="matrix(1 0 0 1 0 0)" d="M60.73 105.39014L170.8874 105.39014L170.8874 105.39014L170.8874 157.28595L170.8874 157.28595L60.73 157.28595z" /></clipPath><clipPath id="7"><path id="" clip-rule="evenodd" transform="matrix(1 0 0 1 0 0)" d="M296.9985 105.39014L360.0517 105.39014L360.0517 105.39014L360.0517 157.28595L360.0517 157.28595L296.9985 157.28595z" /></clipPath><clipPath id="8"><path id="" clip-rule="evenodd" transform="matrix(1 0 0 1 0 0)" d="M60.73 157.78595L170.8874 157.78595L170.8874 157.78595L170.8874 245.89642L170.8874 245.89642L60.73 245.89642z" /></clipPath><clipPath id="9"><path id="" clip-rule="evenodd" transform="matrix(1 0 0 1 0 0)" d="M171.3874 157.78595L533.5147 157.78595L533.5147 157.78595L533.5147 245.89642L533.5147 245.89642L171.3874 245.89642z" /></clipPath><clipPath id="10"><path id="" clip-rule="evenodd" transform="matrix(1 0 0 1 0 0)" d="M60.73 246.39642L170.8874 246.39642L170.8874 246.39642L170.8874 307.5385L170.8874 307.5385L60.73 307.5385z" /></clipPath><clipPath id="11"><path id="" clip-rule="evenodd" transform="matrix(1 0 0 1 0 0)" d="M171.3874 246.39642L533.5147 246.39642L533.5147 246.39642L533.5147 307.5385L533.5147 307.5385L171.3874 307.5385z" /></clipPath><clipPath id="12"><path id="" clip-rule="evenodd" transform="matrix(1 0 0 1 0 0)" d="M60.73 308.0385L170.8874 308.0385L170.8874 308.0385L170.8874 369.18063L170.8874 369.18063L60.73 369.18063z" /></clipPath><clipPath id="13"><path id="" clip-rule="evenodd" transform="matrix(1 0 0 1 0 0)" d="M171.3874 308.0385L533.5147 308.0385L533.5147 308.0385L533.5147 369.18063L533.5147 369.18063L171.3874 369.18063z" /></clipPath><clipPath id="14"><path id="" clip-rule="evenodd" transform="matrix(1 0 0 1 0 0)" d="M60.73 369.68063L170.8874 369.68063L170.8874 369.68063L170.8874 430.82272L170.8874 430.82272L60.73 430.82272z" /></clipPath><clipPath id="15"><path id="" clip-rule="evenodd" transform="matrix(1 0 0 1 0 0)" d="M171.3874 369.68063L533.5147 369.68063L533.5147 369.68063L533.5147 430.82272L533.5147 430.82272L171.3874 430.82272z" /></clipPath><clipPath id="16"><path id="" clip-rule="evenodd" transform="matrix(1 0 0 1 0 0)" d="M60.73 431.32272L170.8874 431.32272L170.8874 431.32272L170.8874 492.46484L170.8874 492.46484L60.73 492.46484z" /></clipPath><clipPath id="17"><path id="" clip-rule="evenodd" transform="matrix(1 0 0 1 0 0)" d="M171.3874 431.32272L533.5147 431.32272L533.5147 431.32272L533.5147 492.46484L533.5147 492.46484L171.3874 492.46484z" /></clipPath><clipPath id="18"><path id="" clip-rule="evenodd" transform="matrix(1 0 0 1 0 0)" d="M60.73 492.96484L170.8874 492.96484L170.8874 492.96484L170.8874 554.10693L170.8874 554.10693L60.73 554.10693z" /></clipPath><clipPath id="19"><path id="" clip-rule="evenodd" transform="matrix(1 0 0 1 0 0)" d="M171.3874 492.96484L533.5147 492.96484L533.5147 492.96484L533.5147 554.10693L533.5147 554.10693L171.3874 554.10693z" /></clipPath><clipPath id="20"><path id="" clip-rule="evenodd" transform="matrix(1 0 0 1 0 0)" d="M60.73 554.60693L170.8874 554.60693L170.8874 554.60693L170.8874 615.749L170.8874 615.749L60.73 615.749z" /></clipPath><clipPath id="21"><path id="" clip-rule="evenodd" transform="matrix(1 0 0 1 0 0)" d="M171.3874 554.60693L533.5147 554.60693L533.5147 554.60693L533.5147 615.749L533.5147 615.749L171.3874 615.749z" /></clipPath><clipPath id="22"><path id="" clip-rule="evenodd" transform="matrix(1 0 0 1 0 0)" d="M60.73 616.249L170.8874 616.249L170.8874 616.249L170.8874 695.88385L170.8874 695.88385L60.73 695.88385z" /></clipPath><clipPath id="23"><path id="" clip-rule="evenodd" transform="matrix(1 0 0 1 0 0)" d="M171.3874 616.249L533.5147 616.249L533.5147 616.249L533.5147 695.88385L533.5147 695.88385L171.3874 695.88385z" /></clipPath><clipPath id="24"><path id="" clip-rule="evenodd" transform="matrix(1 0 0 1 0 0)" d="M59.98 69.96643L534.98 69.96643L534.98 69.96643L534.98 696.96643L534.98 696.96643L59.98 696.96643z" /></clipPath></defs><g transform="matrix(1.3333333 0 0 1.3333334 0 0)"><g clip-path="url(#1)"><g clip-path="url(#2)"></g><g clip-path="url(#3)"><path id="1" transform="matrix(1 0 0 -1 0 767)" d="M533.765 459.2115L533.765 397.56937" stroke="#000000" stroke-width="1.0274" fill="none" /><path id="2" transform="matrix(1 0 0 -1 0 767)" d="M516.568 459.21155L533.7647 459.21155" stroke="#000000" stroke-width="1.0274" fill="none" /><path id="3" transform="matrix(1 0 0 -1 0 767)" d="M516.568 459.21155L516.568 459.21155" stroke="#000000" stroke-width="1.0274" fill="none" /><path id="4" transform="matrix(1 0 0 -1 0 767)" d="M414.1351 459.21155L516.568 459.21155" stroke="#000000" stroke-width="1.0274" fill="none" /><path id="5" transform="matrix(1 0 0 -1 0 767)" d="M360.3017 459.21155L414.1351 459.21155" stroke="#000000" stroke-width="1.0274" fill="none" /><path id="6" transform="matrix(1 0 0 -1 0 767)" d="M296.7485 459.21155L360.3017 459.21155" stroke="#000000" stroke-width="1.0274" fill="none" /><path id="7" transform="matrix(1 0 0 -1 0 767)" d="M242.91519 459.21155L296.7485 459.21155" stroke="#000000" stroke-width="1.0274" fill="none" /><path id="8" transform="matrix(1 0 0 -1 0 767)" d="M171.137 459.2115L171.137 397.56937" stroke="#000000" stroke-width="1.0274" fill="none" /><path id="9" transform="matrix(1 0 0 -1 0 767)" d="M171.1374 459.21155L242.91519 459.21155" stroke="#000000" stroke-width="1.0274" fill="none" /><path id="10" transform="matrix(1 0 0 -1 0 767)" d="M60.48 459.2115L60.48 397.56937" stroke="#000000" stroke-width="1.0274" fill="none" /><path id="11" transform="matrix(1 0 0 -1 0 767)" d="M60.48 459.21155L171.1374 459.21155" stroke="#000000" stroke-width="1.0274" fill="none" /><path id="12" transform="matrix(1 0 0 -1 0 767)" d="M533.765 151.00098L533.765 70.86615" stroke="#000000" stroke-width="1.0274" fill="none" /><path id="13" transform="matrix(1 0 0 -1 0 767)" d="M516.568 151.00055L533.7647 151.00055" stroke="#000000" stroke-width="1.0274" fill="none" /><path id="14" transform="matrix(1 0 0 -1 0 767)" d="M516.568 151.00055L516.568 151.00055" stroke="#000000" stroke-width="1.0274" fill="none" /><path id="15" transform="matrix(1 0 0 -1 0 767)" d="M414.1351 151.00055L516.568 151.00055" stroke="#000000" stroke-width="1.0274" fill="none" /><path id="16" transform="matrix(1 0 0 -1 0 767)" d="M360.3017 151.00055L414.1351 151.00055" stroke="#000000" stroke-width="1.0274" fill="none" /><path id="17" transform="matrix(1 0 0 -1 0 767)" d="M296.7485 151.00055L360.3017 151.00055" stroke="#000000" stroke-width="1.0274" fill="none" /><path id="18" transform="matrix(1 0 0 -1 0 767)" d="M242.91519 151.00055L296.7485 151.00055" stroke="#000000" stroke-width="1.0274" fill="none" /><path id="19" transform="matrix(1 0 0 -1 0 767)" d="M171.137 151.00098L171.137 70.86615" stroke="#000000" stroke-width="1.0274" fill="none" /><path id="20" transform="matrix(1 0 0 -1 0 767)" d="M171.1374 151.00055L242.91519 151.00055" stroke="#000000" stroke-width="1.0274" fill="none" /><path id="21" transform="matrix(1 0 0 -1 0 767)" d="M60.48 151.00098L60.48 70.86615" stroke="#000000" stroke-width="1.0274" fill="none" /><path id="22" transform="matrix(1 0 0 -1 0 767)" d="M60.48 151.00055L171.1374 151.00055" stroke="#000000" stroke-width="1.0274" fill="none" /><path id="23" transform="matrix(1 0 0 -1 0 767)" d="M533.765 397.56937L533.765 335.92728" stroke="#000000" stroke-width="1.0274" fill="none" /><path id="24" transform="matrix(1 0 0 -1 0 767)" d="M516.568 397.56958L533.7647 397.56958" stroke="#000000" stroke-width="1.0274" fill="none" /><path id="25" transform="matrix(1 0 0 -1 0 767)" d="M516.568 397.56958L516.568 397.56958" stroke="#000000" stroke-width="1.0274" fill="none" /><path id="26" transform="matrix(1 0 0 -1 0 767)" d="M414.1351 397.56958L516.568 397.56958" stroke="#000000" stroke-width="1.0274" fill="none" /><path id="27" transform="matrix(1 0 0 -1 0 767)" d="M360.3017 397.56958L414.1351 397.56958" stroke="#000000" stroke-width="1.0274" fill="none" /><path id="28" transform="matrix(1 0 0 -1 0 767)" d="M296.7485 397.56958L360.3017 397.56958" stroke="#000000" stroke-width="1.0274" fill="none" /><path id="29" transform="matrix(1 0 0 -1 0 767)" d="M242.91519 397.56958L296.7485 397.56958" stroke="#000000" stroke-width="1.0274" fill="none" /><path id="30" transform="matrix(1 0 0 -1 0 767)" d="M171.137 397.56937L171.137 335.92728" stroke="#000000" stroke-width="1.0274" fill="none" /><path id="31" transform="matrix(1 0 0 -1 0 767)" d="M171.1374 397.56958L242.91519 397.56958" stroke="#000000" stroke-width="1.0274" fill="none" /><path id="32" transform="matrix(1 0 0 -1 0 767)" d="M60.48 397.56937L60.48 335.92728" stroke="#000000" stroke-width="1.0274" fill="none" /><path id="33" transform="matrix(1 0 0 -1 0 767)" d="M60.48 397.56958L171.1374 397.56958" stroke="#000000" stroke-width="1.0274" fill="none" /><path id="34" transform="matrix(1 0 0 -1 0 767)" d="M516.568 70.86658L533.7647 70.86658" stroke="#000000" stroke-width="1.0274" fill="none" /><path id="35" transform="matrix(1 0 0 -1 0 767)" d="M516.568 70.86658L516.568 70.86658" stroke="#000000" stroke-width="1.0274" fill="none" /><path id="36" transform="matrix(1 0 0 -1 0 767)" d="M414.1351 70.86658L516.568 70.86658" stroke="#000000" stroke-width="1.0274" fill="none" /><path id="37" transform="matrix(1 0 0 -1 0 767)" d="M360.3017 70.86658L414.1351 70.86658" stroke="#000000" stroke-width="1.0274" fill="none" /><path id="38" transform="matrix(1 0 0 -1 0 767)" d="M296.7485 70.86658L360.3017 70.86658" stroke="#000000" stroke-width="1.0274" fill="none" /><path id="39" transform="matrix(1 0 0 -1 0 767)" d="M242.91519 70.86658L296.7485 70.86658" stroke="#000000" stroke-width="1.0274" fill="none" /><path id="40" transform="matrix(1 0 0 -1 0 767)" d="M171.1374 70.86658L242.91519 70.86658" stroke="#000000" stroke-width="1.0274" fill="none" /><path id="41" transform="matrix(1 0 0 -1 0 767)" d="M533.765 661.85986L533.765 609.46405" stroke="#000000" stroke-width="1.0274" fill="none" /><path id="42" transform="matrix(1 0 0 -1 0 767)" d="M60.48 70.86658L171.1374 70.86658" stroke="#000000" stroke-width="1.0274" fill="none" /><path id="43" transform="matrix(1 0 0 -1 0 767)" d="M516.568 661.85956L533.7647 661.85956" stroke="#000000" stroke-width="1.0274" fill="none" /><path id="44" transform="matrix(1 0 0 -1 0 767)" d="M516.568 661.85956L516.568 661.85956" stroke="#000000" stroke-width="1.0274" fill="none" /><path id="45" transform="matrix(1 0 0 -1 0 767)" d="M414.1351 661.85956L516.568 661.85956" stroke="#000000" stroke-width="1.0274" fill="none" /><path id="46" transform="matrix(1 0 0 -1 0 767)" d="M360.302 661.85986L360.302 609.46405" stroke="#000000" stroke-width="1.0274" fill="none" /><path id="47" transform="matrix(1 0 0 -1 0 767)" d="M360.3017 661.85956L414.1351 661.85956" stroke="#000000" stroke-width="1.0274" fill="none" /><path id="48" transform="matrix(1 0 0 -1 0 767)" d="M296.749 661.85986L296.749 609.46405" stroke="#000000" stroke-width="1.0274" fill="none" /><path id="49" transform="matrix(1 0 0 -1 0 767)" d="M296.7485 661.85956L360.3017 661.85956" stroke="#000000" stroke-width="1.0274" fill="none" /><path id="50" transform="matrix(1 0 0 -1 0 767)" d="M242.91519 661.85956L296.7485 661.85956" stroke="#000000" stroke-width="1.0274" fill="none" /><path id="51" transform="matrix(1 0 0 -1 0 767)" d="M171.137 661.85986L171.137 609.46405" stroke="#000000" stroke-width="1.0274" fill="none" /><path id="52" transform="matrix(1 0 0 -1 0 767)" d="M171.1374 661.85956L242.91519 661.85956" stroke="#000000" stroke-width="1.0274" fill="none" /><path id="53" transform="matrix(1 0 0 -1 0 767)" d="M60.48 661.85986L60.48 609.46405" stroke="#000000" stroke-width="1.0274" fill="none" /><path id="54" transform="matrix(1 0 0 -1 0 767)" d="M60.48 661.85956L171.1374 661.85956" stroke="#000000" stroke-width="1.0274" fill="none" /><path id="55" transform="matrix(1 0 0 -1 0 767)" d="M533.765 335.92728L533.765 274.28516" stroke="#000000" stroke-width="1.0274" fill="none" /><path id="56" transform="matrix(1 0 0 -1 0 767)" d="M516.568 335.92758L533.7647 335.92758" stroke="#000000" stroke-width="1.0274" fill="none" /><path id="57" transform="matrix(1 0 0 -1 0 767)" d="M516.568 335.92758L516.568 335.92758" stroke="#000000" stroke-width="1.0274" fill="none" /><path id="58" transform="matrix(1 0 0 -1 0 767)" d="M414.1351 335.92758L516.568 335.92758" stroke="#000000" stroke-width="1.0274" fill="none" /><path id="59" transform="matrix(1 0 0 -1 0 767)" d="M360.3017 335.92758L414.1351 335.92758" stroke="#000000" stroke-width="1.0274" fill="none" /><path id="60" transform="matrix(1 0 0 -1 0 767)" d="M296.7485 335.92758L360.3017 335.92758" stroke="#000000" stroke-width="1.0274" fill="none" /><path id="61" transform="matrix(1 0 0 -1 0 767)" d="M242.91519 335.92758L296.7485 335.92758" stroke="#000000" stroke-width="1.0274" fill="none" /><path id="62" transform="matrix(1 0 0 -1 0 767)" d="M171.137 335.92728L171.137 274.28516" stroke="#000000" stroke-width="1.0274" fill="none" /><path id="63" transform="matrix(1 0 0 -1 0 767)" d="M171.1374 335.92758L242.91519 335.92758" stroke="#000000" stroke-width="1.0274" fill="none" /><path id="64" transform="matrix(1 0 0 -1 0 767)" d="M60.48 335.92728L60.48 274.28516" stroke="#000000" stroke-width="1.0274" fill="none" /><path id="65" transform="matrix(1 0 0 -1 0 767)" d="M60.48 335.92758L171.1374 335.92758" stroke="#000000" stroke-width="1.0274" fill="none" /><path id="66" transform="matrix(1 0 0 -1 0 767)" d="M533.765 609.46405L533.765 520.8536" stroke="#000000" stroke-width="1.0274" fill="none" /><path id="67" transform="matrix(1 0 0 -1 0 767)" d="M516.568 609.4646L533.7647 609.4646" stroke="#000000" stroke-width="1.0274" fill="none" /><path id="68" transform="matrix(1 0 0 -1 0 767)" d="M516.568 609.4646L516.568 609.4646" stroke="#000000" stroke-width="1.0274" fill="none" /><path id="69" transform="matrix(1 0 0 -1 0 767)" d="M414.1351 609.4646L516.568 609.4646" stroke="#000000" stroke-width="1.0274" fill="none" /><path id="70" transform="matrix(1 0 0 -1 0 767)" d="M360.3017 609.4646L414.1351 609.4646" stroke="#000000" stroke-width="1.0274" fill="none" /><path id="71" transform="matrix(1 0 0 -1 0 767)" d="M296.7485 609.4646L360.3017 609.4646" stroke="#000000" stroke-width="1.0274" fill="none" /><path id="72" transform="matrix(1 0 0 -1 0 767)" d="M242.91519 609.4646L296.7485 609.4646" stroke="#000000" stroke-width="1.0274" fill="none" /><path id="73" transform="matrix(1 0 0 -1 0 767)" d="M171.137 609.46405L171.137 520.8536" stroke="#000000" stroke-width="1.0274" fill="none" /><path id="74" transform="matrix(1 0 0 -1 0 767)" d="M171.1374 609.4646L242.91519 609.4646" stroke="#000000" stroke-width="1.0274" fill="none" /><path id="75" transform="matrix(1 0 0 -1 0 767)" d="M60.48 609.46405L60.48 520.8536" stroke="#000000" stroke-width="1.0274" fill="none" /><path id="76" transform="matrix(1 0 0 -1 0 767)" d="M60.48 609.4646L171.1374 609.4646" stroke="#000000" stroke-width="1.0274" fill="none" /><path id="77" transform="matrix(1 0 0 -1 0 767)" d="M533.765 274.28516L533.765 212.64307" stroke="#000000" stroke-width="1.0274" fill="none" /><path id="78" transform="matrix(1 0 0 -1 0 767)" d="M516.568 274.28558L533.7647 274.28558" stroke="#000000" stroke-width="1.0274" fill="none" /><path id="79" transform="matrix(1 0 0 -1 0 767)" d="M516.568 274.28558L516.568 274.28558" stroke="#000000" stroke-width="1.0274" fill="none" /><path id="80" transform="matrix(1 0 0 -1 0 767)" d="M414.1351 274.28558L516.568 274.28558" stroke="#000000" stroke-width="1.0274" fill="none" /><path id="81" transform="matrix(1 0 0 -1 0 767)" d="M360.3017 274.28558L414.1351 274.28558" stroke="#000000" stroke-width="1.0274" fill="none" /><path id="82" transform="matrix(1 0 0 -1 0 767)" d="M296.7485 274.28558L360.3017 274.28558" stroke="#000000" stroke-width="1.0274" fill="none" /><path id="83" transform="matrix(1 0 0 -1 0 767)" d="M242.91519 274.28558L296.7485 274.28558" stroke="#000000" stroke-width="1.0274" fill="none" /><path id="84" transform="matrix(1 0 0 -1 0 767)" d="M171.137 274.28516L171.137 212.64307" stroke="#000000" stroke-width="1.0274" fill="none" /><path id="85" transform="matrix(1 0 0 -1 0 767)" d="M171.1374 274.28558L242.91519 274.28558" stroke="#000000" stroke-width="1.0274" fill="none" /><path id="86" transform="matrix(1 0 0 -1 0 767)" d="M60.48 274.28516L60.48 212.64307" stroke="#000000" stroke-width="1.0274" fill="none" /><path id="87" transform="matrix(1 0 0 -1 0 767)" d="M60.48 274.28558L171.1374 274.28558" stroke="#000000" stroke-width="1.0274" fill="none" /><path id="88" transform="matrix(1 0 0 -1 0 767)" d="M533.765 520.8536L533.765 459.2115" stroke="#000000" stroke-width="1.0274" fill="none" /><path id="89" transform="matrix(1 0 0 -1 0 767)" d="M516.568 520.8536L533.7647 520.8536" stroke="#000000" stroke-width="1.0274" fill="none" /><path id="90" transform="matrix(1 0 0 -1 0 767)" d="M516.568 520.8536L516.568 520.8536" stroke="#000000" stroke-width="1.0274" fill="none" /><path id="91" transform="matrix(1 0 0 -1 0 767)" d="M414.1351 520.8536L516.568 520.8536" stroke="#000000" stroke-width="1.0274" fill="none" /><path id="92" transform="matrix(1 0 0 -1 0 767)" d="M360.3017 520.8536L414.1351 520.8536" stroke="#000000" stroke-width="1.0274" fill="none" /><path id="93" transform="matrix(1 0 0 -1 0 767)" d="M296.7485 520.8536L360.3017 520.8536" stroke="#000000" stroke-width="1.0274" fill="none" /><path id="94" transform="matrix(1 0 0 -1 0 767)" d="M242.91519 520.8536L296.7485 520.8536" stroke="#000000" stroke-width="1.0274" fill="none" /><path id="95" transform="matrix(1 0 0 -1 0 767)" d="M171.137 520.8536L171.137 459.2115" stroke="#000000" stroke-width="1.0274" fill="none" /><path id="96" transform="matrix(1 0 0 -1 0 767)" d="M171.1374 520.8536L242.91519 520.8536" stroke="#000000" stroke-width="1.0274" fill="none" /><path id="97" transform="matrix(1 0 0 -1 0 767)" d="M60.48 520.8536L60.48 459.2115" stroke="#000000" stroke-width="1.0274" fill="none" /><path id="98" transform="matrix(1 0 0 -1 0 767)" d="M60.48 520.8536L171.1374 520.8536" stroke="#000000" stroke-width="1.0274" fill="none" /><path id="99" transform="matrix(1 0 0 -1 0 767)" d="M533.765 212.64307L533.765 151.00098" stroke="#000000" stroke-width="1.0274" fill="none" /><path id="100" transform="matrix(1 0 0 -1 0 767)" d="M516.568 212.64258L533.7647 212.64258" stroke="#000000" stroke-width="1.0274" fill="none" /><path id="101" transform="matrix(1 0 0 -1 0 767)" d="M516.568 212.64258L516.568 212.64258" stroke="#000000" stroke-width="1.0274" fill="none" /><path id="102" transform="matrix(1 0 0 -1 0 767)" d="M414.1351 212.64258L516.568 212.64258" stroke="#000000" stroke-width="1.0274" fill="none" /><path id="103" transform="matrix(1 0 0 -1 0 767)" d="M360.3017 212.64258L414.1351 212.64258" stroke="#000000" stroke-width="1.0274" fill="none" /><path id="104" transform="matrix(1 0 0 -1 0 767)" d="M296.7485 212.64258L360.3017 212.64258" stroke="#000000" stroke-width="1.0274" fill="none" /><path id="105" transform="matrix(1 0 0 -1 0 767)" d="M242.91519 212.64258L296.7485 212.64258" stroke="#000000" stroke-width="1.0274" fill="none" /><path id="106" transform="matrix(1 0 0 -1 0 767)" d="M171.137 212.64307L171.137 151.00098" stroke="#000000" stroke-width="1.0274" fill="none" /><path id="107" transform="matrix(1 0 0 -1 0 767)" d="M171.1374 212.64258L242.91519 212.64258" stroke="#000000" stroke-width="1.0274" fill="none" /><path id="108" transform="matrix(1 0 0 -1 0 767)" d="M60.48 212.64307L60.48 151.00098" stroke="#000000" stroke-width="1.0274" fill="none" /><path id="109" transform="matrix(1 0 0 -1 0 767)" d="M60.48 212.64258L171.1374 212.64258" stroke="#000000" stroke-width="1.0274" fill="none" /></g><g clip-path="url(#4)"><g clip-path="url(#5)"></g><g clip-path="url(#6)"></g><g clip-path="url(#7)"></g><g clip-path="url(#8)"></g><g clip-path="url(#9)"></g><g clip-path="url(#10)"></g><g clip-path="url(#11)"></g><g clip-path="url(#12)"></g><g clip-path="url(#13)"></g><g clip-path="url(#14)"></g><g clip-path="url(#15)"></g><g clip-path="url(#16)"></g><g clip-path="url(#17)"></g><g clip-path="url(#18)"></g><g clip-path="url(#19)"></g><g clip-path="url(#20)"></g><g clip-path="url(#21)"></g><g clip-path="url(#22)"></g><g clip-path="url(#23)"></g></g><g clip-path="url(#24)"></g></g></g></svg>