<svg xmlns="http://www.w3.org/2000/svg" xmlns:xlink="http://www.w3.org/1999/xlink" id="body_1" preserveAspectRatio="xMinYMin meet" viewBox="0 0 767 563"><defs><clipPath id="1"><path id="" clip-rule="evenodd" transform="matrix(1 0 0 1 0 0)" d="M0 422L0 -0.44958496L0 -0.44958496L575.5979 -0.44958496L575.5979 -0.44958496L575.5979 422L575.5979 422L0 422z" /></clipPath><clipPath id="2"><path id="" clip-rule="evenodd" transform="matrix(1 0 0 1 0 0)" d="M49.95 30.20044L525.95 30.20044L525.95 30.20044L525.95 389.20044L525.95 389.20044L49.95 389.20044z" /></clipPath><clipPath id="3"><path id="" clip-rule="evenodd" transform="matrix(1 0 0 1 0 0)" d="M49.95 29.195831L525.95 29.195831L525.95 29.195831L525.95 390.19583L525.95 390.19583L49.95 390.19583z" /></clipPath><clipPath id="4"><path id="" clip-rule="evenodd" transform="matrix(1 0 0 1 0 0)" d="M49.95 30.20044L525.95 30.20044L525.95 30.20044L525.95 389.20044L525.95 389.20044L49.95 389.20044z" /></clipPath><clipPath id="5"><path id="" clip-rule="evenodd" transform="matrix(1 0 0 1 0 0)" d="M50.7 30.95044L524.8979 30.95044L524.8979 30.95044L524.8979 80.10324L524.8979 80.10324L50.7 80.10324z" /></clipPath><clipPath id="6"><path id="" clip-rule="evenodd" transform="matrix(1 0 0 1 0 0)" d="M50.7 80.60324L524.8979 80.60324L524.8979 80.60324L524.8979 96.654144L524.8979 96.654144L50.7 96.654144z" /></clipPath><clipPath id="7"><path id="" clip-rule="evenodd" transform="matrix(1 0 0 1 0 0)" d="M395.49512 97.154144L459.9465 97.154144L459.9465 97.154144L459.9465 115.462036L459.9465 115.462036L395.49512 115.462036z" /></clipPath><clipPath id="8"><path id="" clip-rule="evenodd" transform="matrix(1 0 0 1 0 0)" d="M50.7 115.962036L265.0924 115.962036L265.0924 115.962036L265.0924 142.54535L265.0924 142.54535L50.7 142.54535z" /></clipPath><clipPath id="9"><path id="" clip-rule="evenodd" transform="matrix(1 0 0 1 0 0)" d="M265.5924 115.962036L524.8979 115.962036L524.8979 115.962036L524.8979 142.54535L524.8979 142.54535L265.5924 142.54535z" /></clipPath><clipPath id="10"><path id="" clip-rule="evenodd" transform="matrix(1 0 0 1 0 0)" d="M50.7 143.04535L524.8979 143.04535L524.8979 143.04535L524.8979 169.62865L524.8979 169.62865L50.7 169.62865z" /></clipPath><clipPath id="11"><path id="" clip-rule="evenodd" transform="matrix(1 0 0 1 0 0)" d="M50.7 170.12865L99.95 170.12865L99.95 170.12865L99.95 196.71204L99.95 196.71204L50.7 196.71204z" /></clipPath><clipPath id="12"><path id="" clip-rule="evenodd" transform="matrix(1 0 0 1 0 0)" d="M50.7 224.29533L157.3007 224.29533L157.3007 224.29533L157.3007 250.87865L157.3007 250.87865L50.7 250.87865z" /></clipPath><clipPath id="13"><path id="" clip-rule="evenodd" transform="matrix(1 0 0 1 0 0)" d="M211.6965 224.29533L265.09232 224.29533L265.09232 224.29533L265.09232 250.87865L265.09232 250.87865L211.6965 250.87865z" /></clipPath><clipPath id="14"><path id="" clip-rule="evenodd" transform="matrix(1 0 0 1 0 0)" d="M50.7 251.37865L265.0924 251.37865L265.0924 251.37865L265.0924 277.96204L265.0924 277.96204L50.7 277.96204z" /></clipPath><clipPath id="15"><path id="" clip-rule="evenodd" transform="matrix(1 0 0 1 0 0)" d="M50.7 278.46204L99.95 278.46204L99.95 278.46204L99.95 296.76984L99.95 296.76984L50.7 296.76984z" /></clipPath><clipPath id="16"><path id="" clip-rule="evenodd" transform="matrix(1 0 0 1 0 0)" d="M157.8007 278.46204L265.0924 278.46204L265.0924 278.46204L265.0924 296.76984L265.0924 296.76984L157.8007 296.76984z" /></clipPath><clipPath id="17"><path id="" clip-rule="evenodd" transform="matrix(1 0 0 1 0 0)" d="M265.5924 278.46204L330.04382 278.46204L330.04382 278.46204L330.04382 296.76984L330.04382 296.76984L265.5924 296.76984z" /></clipPath><clipPath id="18"><path id="" clip-rule="evenodd" transform="matrix(1 0 0 1 0 0)" d="M395.49512 278.46204L459.9465 278.46204L459.9465 278.46204L459.9465 296.76984L459.9465 296.76984L395.49512 296.76984z" /></clipPath><clipPath id="19"><path id="" clip-rule="evenodd" transform="matrix(1 0 0 1 0 0)" d="M50.7 333.38095L157.3007 333.38095L157.3007 333.38095L157.3007 351.68884L157.3007 351.68884L50.7 351.68884z" /></clipPath><clipPath id="20"><path id="" clip-rule="evenodd" transform="matrix(1 0 0 1 0 0)" d="M157.8007 333.38095L265.0924 333.38095L265.0924 333.38095L265.0924 351.68884L265.0924 351.68884L157.8007 351.68884z" /></clipPath><clipPath id="21"><path id="" clip-rule="evenodd" transform="matrix(1 0 0 1 0 0)" d="M265.5924 333.38095L330.04382 333.38095L330.04382 333.38095L330.04382 351.68884L330.04382 351.68884L265.5924 351.68884z" /></clipPath><clipPath id="22"><path id="" clip-rule="evenodd" transform="matrix(1 0 0 1 0 0)" d="M395.49512 333.38095L459.9465 333.38095L459.9465 333.38095L459.9465 351.68884L459.9465 351.68884L395.49512 351.68884z" /></clipPath><clipPath id="23"><path id="" clip-rule="evenodd" transform="matrix(1 0 0 1 0 0)" d="M49.95 30.20044L525.95 30.20044L525.95 30.20044L525.95 389.20044L525.95 389.20044L49.95 389.20044z" /></clipPath></defs><g transform="matrix(1.3333334 0 0 1.3333334 0 0)"><g clip-path="url(#1)"><g clip-path="url(#2)"></g><g clip-path="url(#3)"><path id="1" transform="matrix(1 0 0 -1 0 422)" d="M525.148 306.28796L525.148 279.20465" stroke="#000000" stroke-width="1.0031" fill="none" /><path id="2" transform="matrix(1 0 0 -1 0 422)" d="M525.148 252.12135L525.148 225.03796" stroke="#000000" stroke-width="1.0031" fill="none" /><path id="3" transform="matrix(1 0 0 -1 0 422)" d="M460.1965 252.12157L525.1479 252.12157" stroke="#000000" stroke-width="1.0031" fill="none" /><path id="4" transform="matrix(1 0 0 -1 0 422)" d="M395.24512 252.12157L460.1965 252.12157" stroke="#000000" stroke-width="1.0031" fill="none" /><path id="5" transform="matrix(1 0 0 -1 0 422)" d="M330.29382 252.12157L395.24512 252.12157" stroke="#000000" stroke-width="1.0031" fill="none" /><path id="6" transform="matrix(1 0 0 -1 0 422)" d="M265.3424 252.12157L330.29382 252.12157" stroke="#000000" stroke-width="1.0031" fill="none" /><path id="7" transform="matrix(1 0 0 -1 0 422)" d="M211.4465 252.12157L265.34232 252.12157" stroke="#000000" stroke-width="1.0031" fill="none" /><path id="8" transform="matrix(1 0 0 -1 0 422)" d="M157.5507 252.12157L211.4465 252.12157" stroke="#000000" stroke-width="1.0031" fill="none" /><path id="9" transform="matrix(1 0 0 -1 0 422)" d="M100.2 252.12157L157.5507 252.12157" stroke="#000000" stroke-width="1.0031" fill="none" /><path id="10" transform="matrix(1 0 0 -1 0 422)" d="M50.45 252.12135L50.45 225.03796" stroke="#000000" stroke-width="1.0031" fill="none" /><path id="11" transform="matrix(1 0 0 -1 0 422)" d="M50.45 252.12157L100.2 252.12157" stroke="#000000" stroke-width="1.0031" fill="none" /><path id="12" transform="matrix(1 0 0 -1 0 422)" d="M525.148 124.98016L525.148 88.86905" stroke="#000000" stroke-width="1.0031" fill="none" /><path id="13" transform="matrix(1 0 0 -1 0 422)" d="M395.24503 124.98016L395.24503 88.86905" stroke="#000000" stroke-width="1.0031" fill="none" /><path id="14" transform="matrix(1 0 0 -1 0 422)" d="M265.342 124.98016L265.342 88.86905" stroke="#000000" stroke-width="1.0031" fill="none" /><path id="15" transform="matrix(1 0 0 -1 0 422)" d="M157.551 124.98016L157.551 88.86905" stroke="#000000" stroke-width="1.0031" fill="none" /><path id="16" transform="matrix(1 0 0 -1 0 422)" d="M50.45 124.98016L50.45 88.86905" stroke="#000000" stroke-width="1.0031" fill="none" /><path id="17" transform="matrix(1 0 0 -1 0 422)" d="M525.148 225.03796L525.148 197.95467" stroke="#000000" stroke-width="1.0031" fill="none" /><path id="18" transform="matrix(1 0 0 -1 0 422)" d="M50.45 225.03796L50.45 197.95467" stroke="#000000" stroke-width="1.0031" fill="none" /><path id="19" transform="matrix(1 0 0 -1 0 422)" d="M525.148 88.86905L525.148 70.06116" stroke="#000000" stroke-width="1.0031" fill="none" /><path id="20" transform="matrix(1 0 0 -1 0 422)" d="M460.1965 88.86856L525.1479 88.86856" stroke="#000000" stroke-width="1.0031" fill="none" /><path id="21" transform="matrix(1 0 0 -1 0 422)" d="M395.24503 88.86905L395.24503 70.06116" stroke="#000000" stroke-width="1.0031" fill="none" /><path id="22" transform="matrix(1 0 0 -1 0 422)" d="M395.24512 88.86856L460.1965 88.86856" stroke="#000000" stroke-width="1.0031" fill="none" /><path id="23" transform="matrix(1 0 0 -1 0 422)" d="M330.29382 88.86856L395.24512 88.86856" stroke="#000000" stroke-width="1.0031" fill="none" /><path id="24" transform="matrix(1 0 0 -1 0 422)" d="M265.342 88.86905L265.342 70.06116" stroke="#000000" stroke-width="1.0031" fill="none" /><path id="25" transform="matrix(1 0 0 -1 0 422)" d="M265.3424 88.86856L330.29382 88.86856" stroke="#000000" stroke-width="1.0031" fill="none" /><path id="26" transform="matrix(1 0 0 -1 0 422)" d="M211.4465 88.86856L265.34232 88.86856" stroke="#000000" stroke-width="1.0031" fill="none" /><path id="27" transform="matrix(1 0 0 -1 0 422)" d="M157.551 88.86905L157.551 70.06116" stroke="#000000" stroke-width="1.0031" fill="none" /><path id="28" transform="matrix(1 0 0 -1 0 422)" d="M157.5507 88.86856L211.4465 88.86856" stroke="#000000" stroke-width="1.0031" fill="none" /><path id="29" transform="matrix(1 0 0 -1 0 422)" d="M50.45 88.86905L50.45 70.06116" stroke="#000000" stroke-width="1.0031" fill="none" /><path id="30" transform="matrix(1 0 0 -1 0 422)" d="M525.148 197.95467L525.148 170.87135" stroke="#000000" stroke-width="1.0031" fill="none" /><path id="31" transform="matrix(1 0 0 -1 0 422)" d="M460.1965 197.95456L525.1479 197.95456" stroke="#000000" stroke-width="1.0031" fill="none" /><path id="32" transform="matrix(1 0 0 -1 0 422)" d="M395.24512 197.95456L460.1965 197.95456" stroke="#000000" stroke-width="1.0031" fill="none" /><path id="33" transform="matrix(1 0 0 -1 0 422)" d="M330.29382 197.95456L395.24512 197.95456" stroke="#000000" stroke-width="1.0031" fill="none" /><path id="34" transform="matrix(1 0 0 -1 0 422)" d="M265.3424 197.95456L330.29382 197.95456" stroke="#000000" stroke-width="1.0031" fill="none" /><path id="35" transform="matrix(1 0 0 -1 0 422)" d="M211.4465 197.95456L265.34232 197.95456" stroke="#000000" stroke-width="1.0031" fill="none" /><path id="36" transform="matrix(1 0 0 -1 0 422)" d="M157.5507 197.95456L211.4465 197.95456" stroke="#000000" stroke-width="1.0031" fill="none" /><path id="37" transform="matrix(1 0 0 -1 0 422)" d="M100.2 197.95456L157.5507 197.95456" stroke="#000000" stroke-width="1.0031" fill="none" /><path id="38" transform="matrix(1 0 0 -1 0 422)" d="M50.45 197.95467L50.45 170.87135" stroke="#000000" stroke-width="1.0031" fill="none" /><path id="39" transform="matrix(1 0 0 -1 0 422)" d="M50.45 197.95456L100.2 197.95456" stroke="#000000" stroke-width="1.0031" fill="none" /><path id="40" transform="matrix(1 0 0 -1 0 422)" d="M525.148 70.06116L525.148 33.950073" stroke="#000000" stroke-width="1.0031" fill="none" /><path id="41" transform="matrix(1 0 0 -1 0 422)" d="M395.24503 70.06116L395.24503 33.950073" stroke="#000000" stroke-width="1.0031" fill="none" /><path id="42" transform="matrix(1 0 0 -1 0 422)" d="M265.342 70.06116L265.342 33.950073" stroke="#000000" stroke-width="1.0031" fill="none" /><path id="43" transform="matrix(1 0 0 -1 0 422)" d="M157.551 70.06116L157.551 33.950073" stroke="#000000" stroke-width="1.0031" fill="none" /><path id="44" transform="matrix(1 0 0 -1 0 422)" d="M50.45 70.06116L50.45 33.950073" stroke="#000000" stroke-width="1.0031" fill="none" /><path id="45" transform="matrix(1 0 0 -1 0 422)" d="M460.1965 306.28757L525.1479 306.28757" stroke="#000000" stroke-width="1.0031" fill="none" /><path id="46" transform="matrix(1 0 0 -1 0 422)" d="M395.24512 306.28757L460.1965 306.28757" stroke="#000000" stroke-width="1.0031" fill="none" /><path id="47" transform="matrix(1 0 0 -1 0 422)" d="M330.29382 306.28757L395.24512 306.28757" stroke="#000000" stroke-width="1.0031" fill="none" /><path id="48" transform="matrix(1 0 0 -1 0 422)" d="M265.3424 306.28757L330.29382 306.28757" stroke="#000000" stroke-width="1.0031" fill="none" /><path id="49" transform="matrix(1 0 0 -1 0 422)" d="M211.4465 306.28757L265.34232 306.28757" stroke="#000000" stroke-width="1.0031" fill="none" /><path id="50" transform="matrix(1 0 0 -1 0 422)" d="M157.5507 306.28757L211.4465 306.28757" stroke="#000000" stroke-width="1.0031" fill="none" /><path id="51" transform="matrix(1 0 0 -1 0 422)" d="M100.2 306.28757L157.5507 306.28757" stroke="#000000" stroke-width="1.0031" fill="none" /><path id="52" transform="matrix(1 0 0 -1 0 422)" d="M50.45 306.28796L50.45 279.20465" stroke="#000000" stroke-width="1.0031" fill="none" /><path id="53" transform="matrix(1 0 0 -1 0 422)" d="M50.45 306.28757L100.2 306.28757" stroke="#000000" stroke-width="1.0031" fill="none" /><path id="54" transform="matrix(1 0 0 -1 0 422)" d="M525.148 170.87135L525.148 143.78796" stroke="#000000" stroke-width="1.0031" fill="none" /><path id="55" transform="matrix(1 0 0 -1 0 422)" d="M460.1965 170.87157L525.1479 170.87157" stroke="#000000" stroke-width="1.0031" fill="none" /><path id="56" transform="matrix(1 0 0 -1 0 422)" d="M395.24512 170.87157L460.1965 170.87157" stroke="#000000" stroke-width="1.0031" fill="none" /><path id="57" transform="matrix(1 0 0 -1 0 422)" d="M330.29382 170.87157L395.24512 170.87157" stroke="#000000" stroke-width="1.0031" fill="none" /><path id="58" transform="matrix(1 0 0 -1 0 422)" d="M265.3424 170.87157L330.29382 170.87157" stroke="#000000" stroke-width="1.0031" fill="none" /><path id="59" transform="matrix(1 0 0 -1 0 422)" d="M211.4465 170.87157L265.34232 170.87157" stroke="#000000" stroke-width="1.0031" fill="none" /><path id="60" transform="matrix(1 0 0 -1 0 422)" d="M157.5507 170.87157L211.4465 170.87157" stroke="#000000" stroke-width="1.0031" fill="none" /><path id="61" transform="matrix(1 0 0 -1 0 422)" d="M100.2 170.87157L157.5507 170.87157" stroke="#000000" stroke-width="1.0031" fill="none" /><path id="62" transform="matrix(1 0 0 -1 0 422)" d="M50.45 170.87135L50.45 143.78796" stroke="#000000" stroke-width="1.0031" fill="none" /><path id="63" transform="matrix(1 0 0 -1 0 422)" d="M50.45 170.87157L100.2 170.87157" stroke="#000000" stroke-width="1.0031" fill="none" /><path id="64" transform="matrix(1 0 0 -1 0 422)" d="M460.1965 33.949554L525.1479 33.949554" stroke="#000000" stroke-width="1.0031" fill="none" /><path id="65" transform="matrix(1 0 0 -1 0 422)" d="M395.24512 33.949554L460.1965 33.949554" stroke="#000000" stroke-width="1.0031" fill="none" /><path id="66" transform="matrix(1 0 0 -1 0 422)" d="M330.29382 33.949554L395.24512 33.949554" stroke="#000000" stroke-width="1.0031" fill="none" /><path id="67" transform="matrix(1 0 0 -1 0 422)" d="M265.3424 33.949554L330.29382 33.949554" stroke="#000000" stroke-width="1.0031" fill="none" /><path id="68" transform="matrix(1 0 0 -1 0 422)" d="M211.4465 33.949554L265.34232 33.949554" stroke="#000000" stroke-width="1.0031" fill="none" /><path id="69" transform="matrix(1 0 0 -1 0 422)" d="M157.5507 33.949554L211.4465 33.949554" stroke="#000000" stroke-width="1.0031" fill="none" /><path id="70" transform="matrix(1 0 0 -1 0 422)" d="M100.2 33.949554L157.5507 33.949554" stroke="#000000" stroke-width="1.0031" fill="none" /><path id="71" transform="matrix(1 0 0 -1 0 422)" d="M525.148 279.20465L525.148 252.12135" stroke="#000000" stroke-width="1.0031" fill="none" /><path id="72" transform="matrix(1 0 0 -1 0 422)" d="M50.45 33.949554L100.2 33.949554" stroke="#000000" stroke-width="1.0031" fill="none" /><path id="73" transform="matrix(1 0 0 -1 0 422)" d="M460.1965 279.20456L525.1479 279.20456" stroke="#000000" stroke-width="1.0031" fill="none" /><path id="74" transform="matrix(1 0 0 -1 0 422)" d="M395.24512 279.20456L460.1965 279.20456" stroke="#000000" stroke-width="1.0031" fill="none" /><path id="75" transform="matrix(1 0 0 -1 0 422)" d="M330.29382 279.20456L395.24512 279.20456" stroke="#000000" stroke-width="1.0031" fill="none" /><path id="76" transform="matrix(1 0 0 -1 0 422)" d="M265.3424 279.20456L330.29382 279.20456" stroke="#000000" stroke-width="1.0031" fill="none" /><path id="77" transform="matrix(1 0 0 -1 0 422)" d="M211.4465 279.20456L265.34232 279.20456" stroke="#000000" stroke-width="1.0031" fill="none" /><path id="78" transform="matrix(1 0 0 -1 0 422)" d="M157.5507 279.20456L211.4465 279.20456" stroke="#000000" stroke-width="1.0031" fill="none" /><path id="79" transform="matrix(1 0 0 -1 0 422)" d="M100.2 279.20456L157.5507 279.20456" stroke="#000000" stroke-width="1.0031" fill="none" /><path id="80" transform="matrix(1 0 0 -1 0 422)" d="M50.45 279.20465L50.45 252.12135" stroke="#000000" stroke-width="1.0031" fill="none" /><path id="81" transform="matrix(1 0 0 -1 0 422)" d="M50.45 279.20456L100.2 279.20456" stroke="#000000" stroke-width="1.0031" fill="none" /><path id="82" transform="matrix(1 0 0 -1 0 422)" d="M525.148 143.78796L525.148 124.98016" stroke="#000000" stroke-width="1.0031" fill="none" /><path id="83" transform="matrix(1 0 0 -1 0 422)" d="M460.1965 143.78757L525.1479 143.78757" stroke="#000000" stroke-width="1.0031" fill="none" /><path id="84" transform="matrix(1 0 0 -1 0 422)" d="M395.24503 143.78796L395.24503 124.98016" stroke="#000000" stroke-width="1.0031" fill="none" /><path id="85" transform="matrix(1 0 0 -1 0 422)" d="M395.24512 143.78757L460.1965 143.78757" stroke="#000000" stroke-width="1.0031" fill="none" /><path id="86" transform="matrix(1 0 0 -1 0 422)" d="M330.29382 143.78757L395.24512 143.78757" stroke="#000000" stroke-width="1.0031" fill="none" /><path id="87" transform="matrix(1 0 0 -1 0 422)" d="M265.342 143.78796L265.342 124.98016" stroke="#000000" stroke-width="1.0031" fill="none" /><path id="88" transform="matrix(1 0 0 -1 0 422)" d="M265.3424 143.78757L330.29382 143.78757" stroke="#000000" stroke-width="1.0031" fill="none" /><path id="89" transform="matrix(1 0 0 -1 0 422)" d="M211.4465 143.78757L265.34232 143.78757" stroke="#000000" stroke-width="1.0031" fill="none" /><path id="90" transform="matrix(1 0 0 -1 0 422)" d="M157.551 143.78796L157.551 124.98016" stroke="#000000" stroke-width="1.0031" fill="none" /><path id="91" transform="matrix(1 0 0 -1 0 422)" d="M157.5507 143.78757L211.4465 143.78757" stroke="#000000" stroke-width="1.0031" fill="none" /><path id="92" transform="matrix(1 0 0 -1 0 422)" d="M100.2 143.78757L157.5507 143.78757" stroke="#000000" stroke-width="1.0031" fill="none" /><path id="93" transform="matrix(1 0 0 -1 0 422)" d="M50.45 143.78796L50.45 124.98016" stroke="#000000" stroke-width="1.0031" fill="none" /><path id="94" transform="matrix(1 0 0 -1 0 422)" d="M50.45 143.78757L100.2 143.78757" stroke="#000000" stroke-width="1.0031" fill="none" /></g><g clip-path="url(#4)"><g clip-path="url(#5)"></g><g clip-path="url(#6)"></g><g clip-path="url(#7)"></g><g clip-path="url(#8)"></g><g clip-path="url(#9)"></g><g clip-path="url(#10)"></g><g clip-path="url(#11)"></g><g clip-path="url(#12)"></g><g clip-path="url(#13)"></g><g clip-path="url(#14)"></g><g clip-path="url(#15)"></g><g clip-path="url(#16)"></g><g clip-path="url(#17)"></g><g clip-path="url(#18)"></g><g clip-path="url(#19)"></g><g clip-path="url(#20)"></g><g clip-path="url(#21)"></g><g clip-path="url(#22)"></g></g><g clip-path="url(#23)"><path id="203" transform="matrix(1 0 0 -1 0 422)" d="M157.55113 88.1167L50.45 88.1167" stroke="#000000" stroke-width="0.690975" fill="none" /></g></g></g></svg>